%TF.GenerationSoftware,KiCad,Pcbnew,(6.0.5)*%
%TF.CreationDate,2022-06-02T01:51:08+02:00*%
%TF.ProjectId,Hardware,48617264-7761-4726-952e-6b696361645f,rev?*%
%TF.SameCoordinates,Original*%
%TF.FileFunction,Copper,L1,Top*%
%TF.FilePolarity,Positive*%
%FSLAX46Y46*%
G04 Gerber Fmt 4.6, Leading zero omitted, Abs format (unit mm)*
G04 Created by KiCad (PCBNEW (6.0.5)) date 2022-06-02 01:51:08*
%MOMM*%
%LPD*%
G01*
G04 APERTURE LIST*
G04 Aperture macros list*
%AMRoundRect*
0 Rectangle with rounded corners*
0 $1 Rounding radius*
0 $2 $3 $4 $5 $6 $7 $8 $9 X,Y pos of 4 corners*
0 Add a 4 corners polygon primitive as box body*
4,1,4,$2,$3,$4,$5,$6,$7,$8,$9,$2,$3,0*
0 Add four circle primitives for the rounded corners*
1,1,$1+$1,$2,$3*
1,1,$1+$1,$4,$5*
1,1,$1+$1,$6,$7*
1,1,$1+$1,$8,$9*
0 Add four rect primitives between the rounded corners*
20,1,$1+$1,$2,$3,$4,$5,0*
20,1,$1+$1,$4,$5,$6,$7,0*
20,1,$1+$1,$6,$7,$8,$9,0*
20,1,$1+$1,$8,$9,$2,$3,0*%
G04 Aperture macros list end*
%TA.AperFunction,SMDPad,CuDef*%
%ADD10R,1.500000X0.900000*%
%TD*%
%TA.AperFunction,SMDPad,CuDef*%
%ADD11R,0.900000X1.500000*%
%TD*%
%TA.AperFunction,SMDPad,CuDef*%
%ADD12R,0.900000X0.900000*%
%TD*%
%TA.AperFunction,SMDPad,CuDef*%
%ADD13RoundRect,0.250000X0.475000X-0.250000X0.475000X0.250000X-0.475000X0.250000X-0.475000X-0.250000X0*%
%TD*%
%TA.AperFunction,SMDPad,CuDef*%
%ADD14R,1.700000X0.900000*%
%TD*%
%TA.AperFunction,SMDPad,CuDef*%
%ADD15R,0.300000X0.800000*%
%TD*%
%TA.AperFunction,SMDPad,CuDef*%
%ADD16R,2.480000X1.750000*%
%TD*%
%TA.AperFunction,SMDPad,CuDef*%
%ADD17RoundRect,0.200000X-0.275000X0.200000X-0.275000X-0.200000X0.275000X-0.200000X0.275000X0.200000X0*%
%TD*%
%TA.AperFunction,SMDPad,CuDef*%
%ADD18RoundRect,0.218750X-0.256250X0.218750X-0.256250X-0.218750X0.256250X-0.218750X0.256250X0.218750X0*%
%TD*%
%TA.AperFunction,ComponentPad*%
%ADD19RoundRect,0.250000X0.725000X-0.600000X0.725000X0.600000X-0.725000X0.600000X-0.725000X-0.600000X0*%
%TD*%
%TA.AperFunction,ComponentPad*%
%ADD20O,1.950000X1.700000*%
%TD*%
%TA.AperFunction,SMDPad,CuDef*%
%ADD21RoundRect,0.250000X0.250000X0.475000X-0.250000X0.475000X-0.250000X-0.475000X0.250000X-0.475000X0*%
%TD*%
%TA.AperFunction,SMDPad,CuDef*%
%ADD22RoundRect,0.200000X-0.200000X-0.275000X0.200000X-0.275000X0.200000X0.275000X-0.200000X0.275000X0*%
%TD*%
%TA.AperFunction,SMDPad,CuDef*%
%ADD23RoundRect,0.218750X-0.218750X-0.381250X0.218750X-0.381250X0.218750X0.381250X-0.218750X0.381250X0*%
%TD*%
%TA.AperFunction,SMDPad,CuDef*%
%ADD24R,0.900000X1.700000*%
%TD*%
%TA.AperFunction,SMDPad,CuDef*%
%ADD25RoundRect,0.200000X0.275000X-0.200000X0.275000X0.200000X-0.275000X0.200000X-0.275000X-0.200000X0*%
%TD*%
%TA.AperFunction,SMDPad,CuDef*%
%ADD26RoundRect,0.250000X-0.250000X-0.475000X0.250000X-0.475000X0.250000X0.475000X-0.250000X0.475000X0*%
%TD*%
%TA.AperFunction,ComponentPad*%
%ADD27O,2.000000X1.700000*%
%TD*%
%TA.AperFunction,ComponentPad*%
%ADD28RoundRect,0.250000X-0.750000X0.600000X-0.750000X-0.600000X0.750000X-0.600000X0.750000X0.600000X0*%
%TD*%
%TA.AperFunction,ComponentPad*%
%ADD29O,1.700000X1.700000*%
%TD*%
%TA.AperFunction,ComponentPad*%
%ADD30R,1.700000X1.700000*%
%TD*%
%TA.AperFunction,ViaPad*%
%ADD31C,0.400000*%
%TD*%
%TA.AperFunction,ViaPad*%
%ADD32C,0.500000*%
%TD*%
%TA.AperFunction,Conductor*%
%ADD33C,0.250000*%
%TD*%
G04 APERTURE END LIST*
D10*
%TO.P,IC1,1,GND_1*%
%TO.N,GND*%
X105750000Y-103490000D03*
%TO.P,IC1,2,3V3*%
%TO.N,+3V3*%
X105750000Y-104760000D03*
%TO.P,IC1,3,EN*%
%TO.N,/EN*%
X105750000Y-106030000D03*
%TO.P,IC1,4,IO4*%
%TO.N,/ADC_battery*%
X105750000Y-107300000D03*
%TO.P,IC1,5,IO5*%
%TO.N,unconnected-(IC1-Pad5)*%
X105750000Y-108570000D03*
%TO.P,IC1,6,IO6*%
%TO.N,/HK_led*%
X105750000Y-109840000D03*
%TO.P,IC1,7,IO7*%
%TO.N,/HK-button*%
X105750000Y-111110000D03*
%TO.P,IC1,8,IO15*%
%TO.N,unconnected-(IC1-Pad8)*%
X105750000Y-112380000D03*
%TO.P,IC1,9,IO16*%
%TO.N,unconnected-(IC1-Pad9)*%
X105750000Y-113650000D03*
%TO.P,IC1,10,IO17*%
%TO.N,/TMC_uart*%
X105750000Y-114920000D03*
%TO.P,IC1,11,IO18*%
%TO.N,Net-(IC1-Pad11)*%
X105750000Y-116190000D03*
%TO.P,IC1,12,IO8*%
%TO.N,unconnected-(IC1-Pad12)*%
X105750000Y-117460000D03*
%TO.P,IC1,13,IO19*%
%TO.N,unconnected-(IC1-Pad13)*%
X105750000Y-118730000D03*
%TO.P,IC1,14,IO20*%
%TO.N,unconnected-(IC1-Pad14)*%
X105750000Y-120000000D03*
D11*
%TO.P,IC1,15,IO3*%
%TO.N,unconnected-(IC1-Pad15)*%
X107515000Y-121250000D03*
%TO.P,IC1,16,IO46*%
%TO.N,unconnected-(IC1-Pad16)*%
X108785000Y-121250000D03*
%TO.P,IC1,17,IO9*%
%TO.N,/TMC_en*%
X110055000Y-121250000D03*
%TO.P,IC1,18,IO10*%
%TO.N,/TMC_step*%
X111325000Y-121250000D03*
%TO.P,IC1,19,IO11*%
%TO.N,/TMC_dir*%
X112595000Y-121250000D03*
%TO.P,IC1,20,IO12*%
%TO.N,/TMC_index*%
X113865000Y-121250000D03*
%TO.P,IC1,21,IO13*%
%TO.N,/TMC_diag*%
X115135000Y-121250000D03*
%TO.P,IC1,22,IO14*%
%TO.N,unconnected-(IC1-Pad22)*%
X116405000Y-121250000D03*
%TO.P,IC1,23,IO21*%
%TO.N,unconnected-(IC1-Pad23)*%
X117675000Y-121250000D03*
%TO.P,IC1,24,IO47*%
%TO.N,unconnected-(IC1-Pad24)*%
X118945000Y-121250000D03*
%TO.P,IC1,25,IO48*%
%TO.N,unconnected-(IC1-Pad25)*%
X120215000Y-121250000D03*
%TO.P,IC1,26,IO45*%
%TO.N,unconnected-(IC1-Pad26)*%
X121485000Y-121250000D03*
D10*
%TO.P,IC1,27,IO0*%
%TO.N,Net-(IC1-Pad27)*%
X123250000Y-120000000D03*
%TO.P,IC1,28,IO35*%
%TO.N,unconnected-(IC1-Pad28)*%
X123250000Y-118730000D03*
%TO.P,IC1,29,IO36*%
%TO.N,unconnected-(IC1-Pad29)*%
X123250000Y-117460000D03*
%TO.P,IC1,30,IO37*%
%TO.N,unconnected-(IC1-Pad30)*%
X123250000Y-116190000D03*
%TO.P,IC1,31,IO38*%
%TO.N,unconnected-(IC1-Pad31)*%
X123250000Y-114920000D03*
%TO.P,IC1,32,IO39*%
%TO.N,unconnected-(IC1-Pad32)*%
X123250000Y-113650000D03*
%TO.P,IC1,33,IO40*%
%TO.N,unconnected-(IC1-Pad33)*%
X123250000Y-112380000D03*
%TO.P,IC1,34,IO41*%
%TO.N,unconnected-(IC1-Pad34)*%
X123250000Y-111110000D03*
%TO.P,IC1,35,IO42*%
%TO.N,unconnected-(IC1-Pad35)*%
X123250000Y-109840000D03*
%TO.P,IC1,36,RXD0*%
%TO.N,/RX0*%
X123250000Y-108570000D03*
%TO.P,IC1,37,TXD0*%
%TO.N,/TX0*%
X123250000Y-107300000D03*
%TO.P,IC1,38,IO2*%
%TO.N,unconnected-(IC1-Pad38)*%
X123250000Y-106030000D03*
%TO.P,IC1,39,IO1*%
%TO.N,unconnected-(IC1-Pad39)*%
X123250000Y-104760000D03*
%TO.P,IC1,40,GND_2*%
%TO.N,GND*%
X123250000Y-103490000D03*
D12*
%TO.P,IC1,41,GND_3*%
X113000000Y-111210000D03*
%TO.P,IC1,42,GND_4*%
X113000000Y-109810000D03*
%TO.P,IC1,43,GND_5*%
X111600000Y-109810000D03*
%TO.P,IC1,44,GND_6*%
X111600000Y-111210000D03*
%TO.P,IC1,45,GND_7*%
X111600000Y-112610000D03*
%TO.P,IC1,46,GND_8*%
X113000000Y-112610000D03*
%TO.P,IC1,47,GND_9*%
X114400000Y-112610000D03*
%TO.P,IC1,48,GND_10*%
X114400000Y-111210000D03*
%TO.P,IC1,49,GND_11*%
X114400000Y-109810000D03*
%TD*%
D13*
%TO.P,C12,1*%
%TO.N,+3V3*%
X127500000Y-104450000D03*
%TO.P,C12,2*%
%TO.N,/EN*%
X127500000Y-102550000D03*
%TD*%
D14*
%TO.P,SW1,1,1*%
%TO.N,/EN*%
X126000000Y-108800000D03*
%TO.P,SW1,2,2*%
%TO.N,GND*%
X126000000Y-112200000D03*
%TD*%
D15*
%TO.P,IC2,1,FB/VOUT*%
%TO.N,+3V3*%
X132000000Y-116000000D03*
%TO.P,IC2,2,OUT*%
X131500000Y-116000000D03*
%TO.P,IC2,3,EN/UVLO*%
%TO.N,/VS_input*%
X131000000Y-116000000D03*
%TO.P,IC2,4,VIN*%
X130500000Y-116000000D03*
%TO.P,IC2,5,GND_1*%
%TO.N,GND*%
X130000000Y-116000000D03*
%TO.P,IC2,6,SW*%
%TO.N,Net-(C9-Pad2)*%
X130000000Y-119000000D03*
%TO.P,IC2,7,BOOST*%
%TO.N,Net-(C9-Pad1)*%
X130500000Y-119000000D03*
%TO.P,IC2,8,BD*%
%TO.N,+3V3*%
X131000000Y-119000000D03*
%TO.P,IC2,9,PG*%
%TO.N,unconnected-(IC2-Pad9)*%
X131500000Y-119000000D03*
%TO.P,IC2,10,RT*%
%TO.N,Net-(IC2-Pad10)*%
X132000000Y-119000000D03*
D16*
%TO.P,IC2,11,GND_2*%
%TO.N,GND*%
X131000000Y-117500000D03*
%TD*%
D17*
%TO.P,R10,1*%
%TO.N,/ADC_battery*%
X126000000Y-125175000D03*
%TO.P,R10,2*%
%TO.N,GND*%
X126000000Y-126825000D03*
%TD*%
D18*
%TO.P,D1,1,K*%
%TO.N,/HK_led*%
X115000000Y-127212500D03*
%TO.P,D1,2,A*%
%TO.N,Net-(D1-Pad2)*%
X115000000Y-128787500D03*
%TD*%
D19*
%TO.P,J2,1,Pin_1*%
%TO.N,/B2*%
X97975000Y-114250000D03*
D20*
%TO.P,J2,2,Pin_2*%
%TO.N,/B1*%
X97975000Y-111750000D03*
%TO.P,J2,3,Pin_3*%
%TO.N,/A2*%
X97975000Y-109250000D03*
%TO.P,J2,4,Pin_4*%
%TO.N,/A1*%
X97975000Y-106750000D03*
%TD*%
D17*
%TO.P,R9,1*%
%TO.N,/VS_input*%
X126000000Y-122175000D03*
%TO.P,R9,2*%
%TO.N,/ADC_battery*%
X126000000Y-123825000D03*
%TD*%
D21*
%TO.P,C9,1*%
%TO.N,Net-(C9-Pad1)*%
X129950000Y-121000000D03*
%TO.P,C9,2*%
%TO.N,Net-(C9-Pad2)*%
X128050000Y-121000000D03*
%TD*%
D22*
%TO.P,R3,2*%
%TO.N,GND*%
X134825000Y-120500000D03*
%TO.P,R3,1*%
%TO.N,Net-(IC2-Pad10)*%
X133175000Y-120500000D03*
%TD*%
D23*
%TO.P,L1,1,1*%
%TO.N,Net-(C9-Pad2)*%
X128437500Y-123000000D03*
%TO.P,L1,2,2*%
%TO.N,+3V3*%
X130562500Y-123000000D03*
%TD*%
D13*
%TO.P,C13,1*%
%TO.N,/EN*%
X126000000Y-100950000D03*
%TO.P,C13,2*%
%TO.N,GND*%
X126000000Y-99050000D03*
%TD*%
D24*
%TO.P,SW2,2,2*%
%TO.N,GND*%
X117700000Y-132500000D03*
%TO.P,SW2,1,1*%
%TO.N,/HK-button*%
X114300000Y-132500000D03*
%TD*%
D25*
%TO.P,R8,1*%
%TO.N,Net-(IC1-Pad11)*%
X104000000Y-115825000D03*
%TO.P,R8,2*%
%TO.N,/TMC_uart*%
X104000000Y-114175000D03*
%TD*%
%TO.P,R6,1*%
%TO.N,+3V3*%
X125500000Y-104325000D03*
%TO.P,R6,2*%
%TO.N,/EN*%
X125500000Y-102675000D03*
%TD*%
D26*
%TO.P,C2,1*%
%TO.N,GND*%
X129050000Y-114000000D03*
%TO.P,C2,2*%
%TO.N,/VS_input*%
X130950000Y-114000000D03*
%TD*%
D27*
%TO.P,J1,2,Pin_2*%
%TO.N,/VS_input*%
X133050000Y-109500000D03*
D28*
%TO.P,J1,1,Pin_1*%
%TO.N,GND*%
X133050000Y-107000000D03*
%TD*%
D25*
%TO.P,R7,2*%
%TO.N,+3V3*%
X117000000Y-127175000D03*
%TO.P,R7,1*%
%TO.N,Net-(D1-Pad2)*%
X117000000Y-128825000D03*
%TD*%
D17*
%TO.P,R11,1*%
%TO.N,/ADC_battery*%
X124500000Y-125175000D03*
%TO.P,R11,2*%
%TO.N,GND*%
X124500000Y-126825000D03*
%TD*%
D29*
%TO.P,J3,2,Pin_2*%
%TO.N,GND*%
X123765000Y-134000000D03*
D30*
%TO.P,J3,1,Pin_1*%
%TO.N,Net-(IC1-Pad27)*%
X121225000Y-134000000D03*
%TD*%
D13*
%TO.P,C10,1*%
%TO.N,GND*%
X134000000Y-117950000D03*
%TO.P,C10,2*%
%TO.N,+3V3*%
X134000000Y-116050000D03*
%TD*%
D31*
%TO.N,GND*%
X133500000Y-114000000D03*
X134125474Y-119144247D03*
X132164686Y-120080677D03*
X131742633Y-122309644D03*
X127500000Y-118500000D03*
X128500000Y-116500000D03*
X95677521Y-123877556D03*
X98849511Y-125849511D03*
X96618702Y-118795568D03*
X110000000Y-129500000D03*
X110000000Y-134500000D03*
X96000000Y-131500000D03*
X103000000Y-134500000D03*
X96000000Y-100500000D03*
X127500000Y-96500000D03*
X102500000Y-106000000D03*
X119500000Y-107000000D03*
X119500000Y-111500000D03*
X120000000Y-118500000D03*
X115000000Y-116000000D03*
X133500000Y-126000000D03*
X125000000Y-131000000D03*
%TO.N,+3V3*%
X130000000Y-124500000D03*
X118115692Y-127154706D03*
X103499999Y-128024500D03*
%TO.N,/VS_input*%
X122500000Y-129500000D03*
%TO.N,/HK-button*%
X109000000Y-113500000D03*
X118768555Y-124018984D03*
%TO.N,/HK_led*%
X116000000Y-122500000D03*
X108000000Y-111000000D03*
%TO.N,+3V3*%
X125500000Y-105500000D03*
X107000000Y-104500000D03*
%TO.N,/ADC_battery*%
X123429657Y-125161478D03*
X107000000Y-107500000D03*
%TO.N,/TMC_dir*%
X97200498Y-121922433D03*
%TO.N,/TMC_step*%
X111345826Y-123849500D03*
X96506623Y-124072052D03*
X111339231Y-126553289D03*
%TO.N,/TMC_en*%
X104524500Y-120075062D03*
%TO.N,/TMC_index*%
X100036760Y-125796366D03*
%TO.N,/TMC_diag*%
X100875500Y-125985622D03*
%TO.N,/TMC_uart*%
X98500000Y-124475500D03*
%TO.N,Net-(IC3-Pad17)*%
X101615654Y-126874500D03*
X97031123Y-122497510D03*
D32*
%TO.N,GND*%
X99750000Y-122750000D03*
X101250000Y-122750000D03*
X101250000Y-121250000D03*
X99750000Y-121250000D03*
X100500000Y-123500000D03*
X100500000Y-120500000D03*
X100500000Y-122000000D03*
X102000000Y-122000000D03*
X99000000Y-122000000D03*
X99000000Y-123500000D03*
X102000000Y-123500000D03*
X102000000Y-120500000D03*
X99000000Y-120500000D03*
D31*
%TO.N,/A1*%
X100024500Y-118000000D03*
%TO.N,/B1*%
X100975500Y-118806718D03*
%TO.N,/B2*%
X103004215Y-119779353D03*
%TD*%
D33*
%TO.N,/TMC_uart*%
X103357949Y-124484435D02*
X98508935Y-124484435D01*
X104000000Y-118500000D02*
X104000000Y-123842384D01*
X104000000Y-123842384D02*
X103357949Y-124484435D01*
X98508935Y-124484435D02*
X98500000Y-124475500D01*
X103000000Y-117500000D02*
X104000000Y-118500000D01*
X103000000Y-114500000D02*
X103000000Y-117500000D01*
X103325000Y-114175000D02*
X103000000Y-114500000D01*
X104000000Y-114175000D02*
X103325000Y-114175000D01*
%TO.N,/TMC_dir*%
X111491464Y-125008536D02*
X98291264Y-125008536D01*
X97555634Y-124272906D02*
X97555634Y-122277569D01*
X112595000Y-123905000D02*
X111491464Y-125008536D01*
X98291264Y-125008536D02*
X97555634Y-124272906D01*
X112595000Y-121250000D02*
X112595000Y-123905000D01*
X97555634Y-122277569D02*
X97200498Y-121922433D01*
%TO.N,/TMC_index*%
X113865000Y-124135000D02*
X113865000Y-121250000D01*
X112541944Y-125458056D02*
X113865000Y-124135000D01*
X100375070Y-125458056D02*
X112541944Y-125458056D01*
X100036760Y-125796366D02*
X100375070Y-125458056D01*
%TO.N,/TMC_diag*%
X112802572Y-126019783D02*
X115135000Y-123687355D01*
X115135000Y-123687355D02*
X115135000Y-121250000D01*
X100909661Y-126019783D02*
X112802572Y-126019783D01*
X100875500Y-125985622D02*
X100909661Y-126019783D01*
%TO.N,/EN*%
X104750000Y-106030000D02*
X105750000Y-106030000D01*
X104500000Y-105780000D02*
X104750000Y-106030000D01*
X104500000Y-102890978D02*
X104500000Y-105780000D01*
X104890978Y-102500000D02*
X104500000Y-102890978D01*
X123855062Y-102500000D02*
X104890978Y-102500000D01*
X124236360Y-102118702D02*
X123855062Y-102500000D01*
X124236360Y-101366920D02*
X124236360Y-102118702D01*
X124653280Y-100950000D02*
X124236360Y-101366920D01*
X126000000Y-100950000D02*
X124653280Y-100950000D01*
X106329022Y-106030000D02*
X105750000Y-106030000D01*
%TO.N,+3V3*%
X134000000Y-119864283D02*
X134000000Y-121000000D01*
X134000000Y-121000000D02*
X132000000Y-123000000D01*
X132686197Y-118550480D02*
X134000000Y-119864283D01*
X132000000Y-123000000D02*
X130562500Y-123000000D01*
X134000000Y-116050000D02*
X132686197Y-117363803D01*
X132686197Y-117363803D02*
X132686197Y-118550480D01*
%TO.N,GND*%
X130000000Y-116000000D02*
X129000000Y-116000000D01*
X129000000Y-116000000D02*
X128500000Y-116500000D01*
%TO.N,/TMC_step*%
X110392520Y-127500000D02*
X111339231Y-126553289D01*
X96506623Y-126142341D02*
X97864282Y-127500000D01*
X96506623Y-124072052D02*
X96506623Y-126142341D01*
X97864282Y-127500000D02*
X110392520Y-127500000D01*
%TO.N,+3V3*%
X130562500Y-123937500D02*
X130562500Y-123000000D01*
X130000000Y-124500000D02*
X130562500Y-123937500D01*
X118095398Y-127175000D02*
X118115692Y-127154706D01*
X117000000Y-127175000D02*
X118095398Y-127175000D01*
%TO.N,/HK-button*%
X115500000Y-130500000D02*
X114300000Y-131700000D01*
X118000000Y-130500000D02*
X115500000Y-130500000D01*
X118778447Y-129721553D02*
X118000000Y-130500000D01*
X118778447Y-124028876D02*
X118778447Y-129721553D01*
X118768555Y-124018984D02*
X118778447Y-124028876D01*
X114300000Y-131700000D02*
X114300000Y-132500000D01*
%TO.N,+3V3*%
X116200480Y-127974520D02*
X117000000Y-127175000D01*
X103549979Y-127974520D02*
X116200480Y-127974520D01*
X103499999Y-128024500D02*
X103549979Y-127974520D01*
%TO.N,/VS_input*%
X122500000Y-124000000D02*
X122500000Y-129500000D01*
X124325000Y-122175000D02*
X122500000Y-124000000D01*
X126000000Y-122175000D02*
X124325000Y-122175000D01*
%TO.N,/HK-button*%
X106610000Y-111110000D02*
X109000000Y-113500000D01*
X105750000Y-111110000D02*
X106610000Y-111110000D01*
%TO.N,/HK_led*%
X106840000Y-109840000D02*
X105750000Y-109840000D01*
X108000000Y-111000000D02*
X106840000Y-109840000D01*
X116000000Y-124000000D02*
X116000000Y-122500000D01*
X115000000Y-125000000D02*
X116000000Y-124000000D01*
X115000000Y-127212500D02*
X115000000Y-125000000D01*
%TO.N,Net-(D1-Pad2)*%
X115037500Y-128825000D02*
X115000000Y-128787500D01*
X117000000Y-128825000D02*
X115037500Y-128825000D01*
%TO.N,Net-(IC1-Pad27)*%
X123250000Y-121750000D02*
X123250000Y-120000000D01*
X121225000Y-123775000D02*
X123250000Y-121750000D01*
X121225000Y-134000000D02*
X121225000Y-123775000D01*
%TO.N,+3V3*%
X125500000Y-105500000D02*
X125500000Y-104325000D01*
X106740000Y-104760000D02*
X107000000Y-104500000D01*
X105750000Y-104760000D02*
X106740000Y-104760000D01*
X135000000Y-115050000D02*
X134000000Y-116050000D01*
X135000000Y-105000000D02*
X135000000Y-115050000D01*
X134450000Y-104450000D02*
X135000000Y-105000000D01*
X127500000Y-104450000D02*
X134450000Y-104450000D01*
X127375000Y-104325000D02*
X127500000Y-104450000D01*
X125500000Y-104325000D02*
X127375000Y-104325000D01*
%TO.N,/EN*%
X124700480Y-103474520D02*
X125500000Y-102675000D01*
X124700480Y-107700480D02*
X124700480Y-103474520D01*
X125800000Y-108800000D02*
X124700480Y-107700480D01*
X126000000Y-108800000D02*
X125800000Y-108800000D01*
X125500000Y-101450000D02*
X126000000Y-100950000D01*
X125500000Y-102675000D02*
X125500000Y-101450000D01*
X125625000Y-102550000D02*
X125500000Y-102675000D01*
X127500000Y-102550000D02*
X125625000Y-102550000D01*
%TO.N,/ADC_battery*%
X123429657Y-125161478D02*
X124486478Y-125161478D01*
X124486478Y-125161478D02*
X124500000Y-125175000D01*
X106800000Y-107300000D02*
X107000000Y-107500000D01*
X105750000Y-107300000D02*
X106800000Y-107300000D01*
%TO.N,/TMC_step*%
X111345826Y-123849500D02*
X111325000Y-123828674D01*
X111325000Y-123828674D02*
X111325000Y-121250000D01*
%TO.N,Net-(IC3-Pad17)*%
X97876423Y-126876423D02*
X97031123Y-126031123D01*
X97031123Y-126031123D02*
X97031123Y-122497510D01*
X101613731Y-126876423D02*
X97876423Y-126876423D01*
X101615654Y-126874500D02*
X101613731Y-126876423D01*
%TO.N,/TMC_en*%
X104524500Y-121524500D02*
X104524500Y-120075062D01*
X105500000Y-122500000D02*
X104524500Y-121524500D01*
X110055000Y-121829022D02*
X109384022Y-122500000D01*
X109384022Y-122500000D02*
X105500000Y-122500000D01*
X110055000Y-121250000D02*
X110055000Y-121829022D01*
%TO.N,/VS_input*%
X130248542Y-115049520D02*
X130500000Y-115300978D01*
X130500000Y-115300978D02*
X130500000Y-116000000D01*
X126000000Y-117000000D02*
X127950480Y-115049520D01*
X127950480Y-115049520D02*
X130248542Y-115049520D01*
X126000000Y-122175000D02*
X126000000Y-117000000D01*
%TO.N,/ADC_battery*%
X126000000Y-125175000D02*
X124500000Y-125175000D01*
X126000000Y-123825000D02*
X126000000Y-125175000D01*
%TO.N,/TMC_uart*%
X105750000Y-114920000D02*
X104745000Y-114920000D01*
X104745000Y-114920000D02*
X104000000Y-114175000D01*
%TO.N,Net-(IC1-Pad11)*%
X104365000Y-116190000D02*
X104000000Y-115825000D01*
X105750000Y-116190000D02*
X104365000Y-116190000D01*
%TO.N,/VS_input*%
X133050000Y-110450000D02*
X133050000Y-109500000D01*
X130950000Y-114000000D02*
X130950000Y-112550000D01*
X130950000Y-112550000D02*
X133050000Y-110450000D01*
X131000000Y-116000000D02*
X130500000Y-116000000D01*
%TO.N,Net-(C9-Pad2)*%
X128050000Y-122612500D02*
X128437500Y-123000000D01*
X128050000Y-121000000D02*
X128050000Y-122612500D01*
X129000000Y-119000000D02*
X130000000Y-119000000D01*
X128050000Y-119950000D02*
X129000000Y-119000000D01*
X128050000Y-121000000D02*
X128050000Y-119950000D01*
%TO.N,Net-(C9-Pad1)*%
X130500000Y-120450000D02*
X130500000Y-119000000D01*
X129950000Y-121000000D02*
X130500000Y-120450000D01*
%TO.N,+3V3*%
X131000000Y-122562500D02*
X131000000Y-119000000D01*
X130562500Y-123000000D02*
X131000000Y-122562500D01*
%TO.N,Net-(IC2-Pad10)*%
X132500000Y-119000000D02*
X132000000Y-119000000D01*
X133175000Y-119675000D02*
X132500000Y-119000000D01*
X133175000Y-120500000D02*
X133175000Y-119675000D01*
%TO.N,+3V3*%
X133950000Y-116000000D02*
X131500000Y-116000000D01*
X134000000Y-116050000D02*
X133950000Y-116000000D01*
%TO.N,/VS_input*%
X131000000Y-114050000D02*
X130950000Y-114000000D01*
X131000000Y-116000000D02*
X131000000Y-114050000D01*
%TO.N,/A1*%
X100000000Y-108018164D02*
X98731836Y-106750000D01*
X100000000Y-117975500D02*
X100024500Y-118000000D01*
X100000000Y-108018164D02*
X100000000Y-117975500D01*
%TO.N,/B1*%
X99806718Y-118806718D02*
X100975500Y-118806718D01*
X99802475Y-118802475D02*
X99806718Y-118806718D01*
%TO.N,/B2*%
X97975000Y-118975000D02*
X97975000Y-114250000D01*
X102626069Y-119401207D02*
X98401207Y-119401207D01*
X98401207Y-119401207D02*
X97975000Y-118975000D01*
X103004215Y-119779353D02*
X102626069Y-119401207D01*
%TO.N,/B1*%
X99392920Y-113167920D02*
X97975000Y-111750000D01*
X99392920Y-118392920D02*
X99392920Y-113167920D01*
X99802475Y-118802475D02*
X99392920Y-118392920D01*
%TO.N,/A1*%
X98731836Y-106750000D02*
X97975000Y-106750000D01*
X98750000Y-106750000D02*
X97975000Y-106750000D01*
%TD*%
%TA.AperFunction,Conductor*%
%TO.N,GND*%
G36*
X103942121Y-95528502D02*
G01*
X103988614Y-95582158D01*
X104000000Y-95634500D01*
X104000000Y-102453578D01*
X103982000Y-102514881D01*
X103983413Y-102515658D01*
X103973652Y-102533412D01*
X103962801Y-102549931D01*
X103950386Y-102565937D01*
X103947241Y-102573206D01*
X103947238Y-102573210D01*
X103932826Y-102606515D01*
X103927609Y-102617165D01*
X103906305Y-102655918D01*
X103904334Y-102663593D01*
X103904334Y-102663594D01*
X103901267Y-102675540D01*
X103894863Y-102694244D01*
X103886819Y-102712833D01*
X103885580Y-102720656D01*
X103885577Y-102720666D01*
X103879901Y-102756502D01*
X103877495Y-102768122D01*
X103866500Y-102810948D01*
X103866500Y-102831202D01*
X103864949Y-102850912D01*
X103861780Y-102870921D01*
X103862526Y-102878813D01*
X103865941Y-102914939D01*
X103866500Y-102926797D01*
X103866500Y-105701233D01*
X103865973Y-105712416D01*
X103864298Y-105719909D01*
X103864547Y-105727835D01*
X103864547Y-105727836D01*
X103866438Y-105787986D01*
X103866500Y-105791945D01*
X103866500Y-105819856D01*
X103866997Y-105823790D01*
X103866997Y-105823791D01*
X103867005Y-105823856D01*
X103867938Y-105835693D01*
X103869327Y-105879889D01*
X103874978Y-105899339D01*
X103878987Y-105918700D01*
X103881526Y-105938797D01*
X103884445Y-105946168D01*
X103884445Y-105946170D01*
X103897804Y-105979912D01*
X103901649Y-105991142D01*
X103913982Y-106033593D01*
X103918015Y-106040412D01*
X103918017Y-106040417D01*
X103924293Y-106051028D01*
X103932988Y-106068776D01*
X103940448Y-106087617D01*
X103945110Y-106094033D01*
X103945110Y-106094034D01*
X103966436Y-106123387D01*
X103972952Y-106133307D01*
X103982082Y-106148744D01*
X103995458Y-106171362D01*
X104009779Y-106185683D01*
X104022619Y-106200716D01*
X104034528Y-106217107D01*
X104064797Y-106242148D01*
X104068605Y-106245298D01*
X104077384Y-106253288D01*
X104246343Y-106422247D01*
X104253887Y-106430537D01*
X104258000Y-106437018D01*
X104263777Y-106442443D01*
X104307667Y-106483658D01*
X104310509Y-106486413D01*
X104330230Y-106506134D01*
X104333425Y-106508612D01*
X104342447Y-106516318D01*
X104374679Y-106546586D01*
X104381628Y-106550406D01*
X104392432Y-106556346D01*
X104408956Y-106567199D01*
X104424959Y-106579613D01*
X104432239Y-106582763D01*
X104439056Y-106586795D01*
X104438030Y-106588531D01*
X104484435Y-106627147D01*
X104505793Y-106694854D01*
X104502400Y-106726519D01*
X104501029Y-106732283D01*
X104498255Y-106739684D01*
X104491500Y-106801866D01*
X104491500Y-107798134D01*
X104498255Y-107860316D01*
X104509672Y-107890771D01*
X104514855Y-107961577D01*
X104509674Y-107979224D01*
X104498255Y-108009684D01*
X104491500Y-108071866D01*
X104491500Y-109068134D01*
X104498255Y-109130316D01*
X104509672Y-109160771D01*
X104514855Y-109231577D01*
X104509674Y-109249224D01*
X104498255Y-109279684D01*
X104491500Y-109341866D01*
X104491500Y-110338134D01*
X104498255Y-110400316D01*
X104509672Y-110430771D01*
X104514855Y-110501577D01*
X104509674Y-110519224D01*
X104498255Y-110549684D01*
X104491500Y-110611866D01*
X104491500Y-111608134D01*
X104498255Y-111670316D01*
X104509672Y-111700771D01*
X104514855Y-111771577D01*
X104509674Y-111789224D01*
X104498255Y-111819684D01*
X104491500Y-111881866D01*
X104491500Y-112878134D01*
X104498255Y-112940316D01*
X104509672Y-112970770D01*
X104514855Y-113041577D01*
X104509674Y-113059224D01*
X104498255Y-113089684D01*
X104491500Y-113151866D01*
X104491125Y-113151825D01*
X104468126Y-113216887D01*
X104412031Y-113260405D01*
X104354444Y-113268596D01*
X104331635Y-113266500D01*
X104328737Y-113266500D01*
X103999140Y-113266501D01*
X103668366Y-113266501D01*
X103665508Y-113266764D01*
X103665499Y-113266764D01*
X103629996Y-113270026D01*
X103594938Y-113273247D01*
X103588560Y-113275246D01*
X103588559Y-113275246D01*
X103438550Y-113322256D01*
X103438548Y-113322257D01*
X103431301Y-113324528D01*
X103284619Y-113413361D01*
X103163361Y-113534619D01*
X103160900Y-113538683D01*
X103097824Y-113581307D01*
X103071406Y-113588982D01*
X103064587Y-113593015D01*
X103064582Y-113593017D01*
X103053971Y-113599293D01*
X103036221Y-113607990D01*
X103017383Y-113615448D01*
X103010967Y-113620109D01*
X103010966Y-113620110D01*
X102981625Y-113641428D01*
X102971701Y-113647947D01*
X102940460Y-113666422D01*
X102940455Y-113666426D01*
X102933637Y-113670458D01*
X102919313Y-113684782D01*
X102904281Y-113697621D01*
X102887893Y-113709528D01*
X102872707Y-113727885D01*
X102859712Y-113743593D01*
X102851722Y-113752373D01*
X102607747Y-113996348D01*
X102599461Y-114003888D01*
X102592982Y-114008000D01*
X102587557Y-114013777D01*
X102546357Y-114057651D01*
X102543602Y-114060493D01*
X102523865Y-114080230D01*
X102521385Y-114083427D01*
X102513682Y-114092447D01*
X102483414Y-114124679D01*
X102479595Y-114131625D01*
X102479593Y-114131628D01*
X102473652Y-114142434D01*
X102462801Y-114158953D01*
X102450386Y-114174959D01*
X102447241Y-114182228D01*
X102447238Y-114182232D01*
X102432826Y-114215537D01*
X102427609Y-114226187D01*
X102406305Y-114264940D01*
X102404334Y-114272615D01*
X102404334Y-114272616D01*
X102401267Y-114284562D01*
X102394863Y-114303266D01*
X102386819Y-114321855D01*
X102385580Y-114329678D01*
X102385577Y-114329688D01*
X102379901Y-114365524D01*
X102377495Y-114377144D01*
X102366500Y-114419970D01*
X102366500Y-114440224D01*
X102364949Y-114459934D01*
X102361780Y-114479943D01*
X102362526Y-114487835D01*
X102365941Y-114523961D01*
X102366500Y-114535819D01*
X102366500Y-117421233D01*
X102365973Y-117432416D01*
X102364298Y-117439909D01*
X102364547Y-117447835D01*
X102364547Y-117447836D01*
X102366438Y-117507986D01*
X102366500Y-117511945D01*
X102366500Y-117539856D01*
X102366997Y-117543790D01*
X102366997Y-117543791D01*
X102367005Y-117543856D01*
X102367938Y-117555693D01*
X102369327Y-117599889D01*
X102374978Y-117619339D01*
X102378987Y-117638700D01*
X102381526Y-117658797D01*
X102384445Y-117666168D01*
X102384445Y-117666170D01*
X102397804Y-117699912D01*
X102401649Y-117711142D01*
X102413982Y-117753593D01*
X102418015Y-117760412D01*
X102418017Y-117760417D01*
X102424293Y-117771028D01*
X102432988Y-117788776D01*
X102440448Y-117807617D01*
X102445110Y-117814033D01*
X102445110Y-117814034D01*
X102466436Y-117843387D01*
X102472952Y-117853307D01*
X102495458Y-117891362D01*
X102509779Y-117905683D01*
X102522619Y-117920716D01*
X102534528Y-117937107D01*
X102568605Y-117965298D01*
X102577384Y-117973288D01*
X103329595Y-118725499D01*
X103363621Y-118787811D01*
X103366500Y-118814594D01*
X103366500Y-118941543D01*
X103346498Y-119009664D01*
X103292842Y-119056157D01*
X103222568Y-119066261D01*
X103157988Y-119036767D01*
X103151405Y-119030638D01*
X103129721Y-119008954D01*
X103122181Y-119000668D01*
X103118069Y-118994189D01*
X103068417Y-118947563D01*
X103065576Y-118944809D01*
X103045839Y-118925072D01*
X103042642Y-118922592D01*
X103033620Y-118914887D01*
X103023153Y-118905058D01*
X103001390Y-118884621D01*
X102994444Y-118880802D01*
X102994441Y-118880800D01*
X102983635Y-118874859D01*
X102967116Y-118864008D01*
X102966652Y-118863648D01*
X102951110Y-118851593D01*
X102943841Y-118848448D01*
X102943837Y-118848445D01*
X102910532Y-118834033D01*
X102899882Y-118828816D01*
X102861129Y-118807512D01*
X102841506Y-118802474D01*
X102822803Y-118796070D01*
X102811489Y-118791174D01*
X102811488Y-118791174D01*
X102804214Y-118788026D01*
X102796391Y-118786787D01*
X102796381Y-118786784D01*
X102760545Y-118781108D01*
X102748925Y-118778702D01*
X102713780Y-118769679D01*
X102713779Y-118769679D01*
X102706099Y-118767707D01*
X102685845Y-118767707D01*
X102666134Y-118766156D01*
X102653955Y-118764227D01*
X102646126Y-118762987D01*
X102638234Y-118763733D01*
X102602108Y-118767148D01*
X102590250Y-118767707D01*
X101796154Y-118767707D01*
X101728033Y-118747705D01*
X101681540Y-118694049D01*
X101671067Y-118656845D01*
X101669515Y-118644017D01*
X101669514Y-118644014D01*
X101668602Y-118636476D01*
X101646273Y-118577382D01*
X101610671Y-118483165D01*
X101607987Y-118476062D01*
X101555703Y-118399988D01*
X101515159Y-118340996D01*
X101515158Y-118340994D01*
X101510857Y-118334737D01*
X101458485Y-118288075D01*
X101388493Y-118225714D01*
X101388490Y-118225712D01*
X101382821Y-118220661D01*
X101231269Y-118140418D01*
X101173132Y-118125815D01*
X101072322Y-118100493D01*
X101072318Y-118100493D01*
X101064951Y-118098642D01*
X101057352Y-118098602D01*
X101057350Y-118098602D01*
X100985894Y-118098228D01*
X100893469Y-118097744D01*
X100886086Y-118099516D01*
X100878534Y-118100390D01*
X100878203Y-118097528D01*
X100820662Y-118094639D01*
X100762936Y-118053308D01*
X100737092Y-117990812D01*
X100734005Y-117965298D01*
X100729817Y-117930694D01*
X100718515Y-117837300D01*
X100718514Y-117837298D01*
X100717602Y-117829758D01*
X100711661Y-117814034D01*
X100659671Y-117676447D01*
X100656987Y-117669344D01*
X100652686Y-117663086D01*
X100649166Y-117656353D01*
X100651797Y-117654977D01*
X100633500Y-117596046D01*
X100633500Y-108096932D01*
X100634027Y-108085749D01*
X100635702Y-108078256D01*
X100635395Y-108068469D01*
X100633562Y-108010166D01*
X100633500Y-108006208D01*
X100633500Y-107978308D01*
X100632996Y-107974317D01*
X100632063Y-107962475D01*
X100631440Y-107942632D01*
X100630674Y-107918275D01*
X100628462Y-107910661D01*
X100628461Y-107910656D01*
X100625023Y-107898823D01*
X100621012Y-107879459D01*
X100619848Y-107870240D01*
X100618474Y-107859367D01*
X100615557Y-107852000D01*
X100615556Y-107851995D01*
X100602198Y-107818256D01*
X100598354Y-107807029D01*
X100588230Y-107772186D01*
X100586018Y-107764571D01*
X100575707Y-107747136D01*
X100567012Y-107729388D01*
X100559552Y-107710547D01*
X100533564Y-107674777D01*
X100527048Y-107664857D01*
X100508580Y-107633629D01*
X100508578Y-107633626D01*
X100504542Y-107626802D01*
X100490221Y-107612481D01*
X100477380Y-107597447D01*
X100470131Y-107587470D01*
X100465472Y-107581057D01*
X100459368Y-107576007D01*
X100459363Y-107576002D01*
X100431402Y-107552871D01*
X100422621Y-107544881D01*
X99477554Y-106599813D01*
X99443335Y-106536592D01*
X99432510Y-106484999D01*
X99405907Y-106358209D01*
X99403793Y-106352855D01*
X99323185Y-106148744D01*
X99323184Y-106148742D01*
X99321224Y-106143779D01*
X99314870Y-106133307D01*
X99204390Y-105951243D01*
X99201623Y-105946683D01*
X99150264Y-105887497D01*
X99054023Y-105776588D01*
X99054021Y-105776586D01*
X99050523Y-105772555D01*
X98976898Y-105712186D01*
X98876373Y-105629760D01*
X98876367Y-105629756D01*
X98872245Y-105626376D01*
X98867609Y-105623737D01*
X98867606Y-105623735D01*
X98676529Y-105514968D01*
X98671886Y-105512325D01*
X98455175Y-105433663D01*
X98449926Y-105432714D01*
X98449923Y-105432713D01*
X98232392Y-105393377D01*
X98232385Y-105393376D01*
X98228308Y-105392639D01*
X98210586Y-105391803D01*
X98205644Y-105391570D01*
X98205637Y-105391570D01*
X98204156Y-105391500D01*
X97792110Y-105391500D01*
X97725191Y-105397178D01*
X97625591Y-105405629D01*
X97625587Y-105405630D01*
X97620280Y-105406080D01*
X97615125Y-105407418D01*
X97615119Y-105407419D01*
X97402297Y-105462657D01*
X97402293Y-105462658D01*
X97397128Y-105463999D01*
X97392262Y-105466191D01*
X97392259Y-105466192D01*
X97284027Y-105514947D01*
X97186925Y-105558688D01*
X96995681Y-105687441D01*
X96991824Y-105691120D01*
X96991822Y-105691122D01*
X96969139Y-105712761D01*
X96828865Y-105846576D01*
X96825682Y-105850854D01*
X96775203Y-105918700D01*
X96691246Y-106031542D01*
X96688830Y-106036293D01*
X96688828Y-106036297D01*
X96644550Y-106123387D01*
X96586760Y-106237051D01*
X96585178Y-106242145D01*
X96585177Y-106242148D01*
X96529255Y-106422247D01*
X96518393Y-106457227D01*
X96517692Y-106462516D01*
X96496713Y-106620806D01*
X96488102Y-106685774D01*
X96496751Y-106916158D01*
X96544093Y-107141791D01*
X96546051Y-107146750D01*
X96546052Y-107146752D01*
X96615520Y-107322654D01*
X96628776Y-107356221D01*
X96748377Y-107553317D01*
X96751874Y-107557347D01*
X96884814Y-107710547D01*
X96899477Y-107727445D01*
X96941030Y-107761516D01*
X97073627Y-107870240D01*
X97073633Y-107870244D01*
X97077755Y-107873624D01*
X97109250Y-107891552D01*
X97158555Y-107942632D01*
X97172417Y-108012262D01*
X97146434Y-108078333D01*
X97117284Y-108105573D01*
X96995681Y-108187441D01*
X96991824Y-108191120D01*
X96991822Y-108191122D01*
X96940916Y-108239684D01*
X96828865Y-108346576D01*
X96691246Y-108531542D01*
X96688830Y-108536293D01*
X96688828Y-108536297D01*
X96658181Y-108596576D01*
X96586760Y-108737051D01*
X96585178Y-108742145D01*
X96585177Y-108742148D01*
X96549246Y-108857865D01*
X96518393Y-108957227D01*
X96517692Y-108962516D01*
X96496562Y-109121946D01*
X96488102Y-109185774D01*
X96488302Y-109191103D01*
X96488302Y-109191105D01*
X96491350Y-109272288D01*
X96496751Y-109416158D01*
X96544093Y-109641791D01*
X96546051Y-109646750D01*
X96546052Y-109646752D01*
X96587795Y-109752450D01*
X96628776Y-109856221D01*
X96631543Y-109860780D01*
X96631544Y-109860783D01*
X96696883Y-109968458D01*
X96748377Y-110053317D01*
X96751874Y-110057347D01*
X96891679Y-110218458D01*
X96899477Y-110227445D01*
X96903608Y-110230832D01*
X97073627Y-110370240D01*
X97073633Y-110370244D01*
X97077755Y-110373624D01*
X97109250Y-110391552D01*
X97158555Y-110442632D01*
X97172417Y-110512262D01*
X97146434Y-110578333D01*
X97117284Y-110605573D01*
X97107937Y-110611866D01*
X96995681Y-110687441D01*
X96828865Y-110846576D01*
X96691246Y-111031542D01*
X96688830Y-111036293D01*
X96688828Y-111036297D01*
X96685959Y-111041940D01*
X96586760Y-111237051D01*
X96585178Y-111242145D01*
X96585177Y-111242148D01*
X96553604Y-111343830D01*
X96518393Y-111457227D01*
X96517692Y-111462516D01*
X96489171Y-111677712D01*
X96488102Y-111685774D01*
X96488302Y-111691103D01*
X96488302Y-111691105D01*
X96491986Y-111789231D01*
X96496751Y-111916158D01*
X96544093Y-112141791D01*
X96546051Y-112146750D01*
X96546052Y-112146752D01*
X96626373Y-112350135D01*
X96628776Y-112356221D01*
X96748377Y-112553317D01*
X96751874Y-112557347D01*
X96805807Y-112619499D01*
X96899477Y-112727445D01*
X96935120Y-112756670D01*
X96975114Y-112815329D01*
X96977046Y-112886299D01*
X96940302Y-112947048D01*
X96921532Y-112961248D01*
X96829362Y-113018285D01*
X96775652Y-113051522D01*
X96650695Y-113176697D01*
X96646855Y-113182927D01*
X96646854Y-113182928D01*
X96595177Y-113266764D01*
X96557885Y-113327262D01*
X96502203Y-113495139D01*
X96501503Y-113501975D01*
X96501502Y-113501978D01*
X96500596Y-113510822D01*
X96491500Y-113599600D01*
X96491500Y-114900400D01*
X96502474Y-115006166D01*
X96504655Y-115012702D01*
X96504655Y-115012704D01*
X96524931Y-115073478D01*
X96558450Y-115173946D01*
X96651522Y-115324348D01*
X96656704Y-115329521D01*
X96686892Y-115359656D01*
X96776697Y-115449305D01*
X96782927Y-115453145D01*
X96782928Y-115453146D01*
X96905050Y-115528423D01*
X96927262Y-115542115D01*
X97007005Y-115568564D01*
X97088611Y-115595632D01*
X97088613Y-115595632D01*
X97095139Y-115597797D01*
X97101975Y-115598497D01*
X97101978Y-115598498D01*
X97145031Y-115602909D01*
X97199600Y-115608500D01*
X97215500Y-115608500D01*
X97283621Y-115628502D01*
X97330114Y-115682158D01*
X97341500Y-115734500D01*
X97341500Y-118896233D01*
X97340973Y-118907416D01*
X97339298Y-118914909D01*
X97339547Y-118922835D01*
X97339547Y-118922836D01*
X97341438Y-118982986D01*
X97341500Y-118986945D01*
X97341500Y-119014856D01*
X97341997Y-119018790D01*
X97341997Y-119018791D01*
X97342005Y-119018856D01*
X97342938Y-119030693D01*
X97344327Y-119074889D01*
X97349978Y-119094339D01*
X97353987Y-119113700D01*
X97356526Y-119133797D01*
X97359445Y-119141168D01*
X97359445Y-119141170D01*
X97372804Y-119174912D01*
X97376649Y-119186142D01*
X97388982Y-119228593D01*
X97393015Y-119235412D01*
X97393017Y-119235417D01*
X97399293Y-119246028D01*
X97407988Y-119263776D01*
X97415448Y-119282617D01*
X97420110Y-119289033D01*
X97420110Y-119289034D01*
X97441436Y-119318387D01*
X97447952Y-119328307D01*
X97470458Y-119366362D01*
X97484779Y-119380683D01*
X97497619Y-119395716D01*
X97509528Y-119412107D01*
X97515634Y-119417158D01*
X97543605Y-119440298D01*
X97552384Y-119448288D01*
X97897550Y-119793454D01*
X97905094Y-119801744D01*
X97909207Y-119808225D01*
X97914984Y-119813650D01*
X97958874Y-119854865D01*
X97961716Y-119857620D01*
X97981438Y-119877342D01*
X97984580Y-119879779D01*
X97984640Y-119879826D01*
X97993652Y-119887524D01*
X98009990Y-119902866D01*
X98025886Y-119917793D01*
X98032829Y-119921610D01*
X98043638Y-119927552D01*
X98060160Y-119938405D01*
X98076166Y-119950821D01*
X98083444Y-119953971D01*
X98083445Y-119953971D01*
X98116744Y-119968381D01*
X98127394Y-119973598D01*
X98166147Y-119994902D01*
X98173822Y-119996873D01*
X98173823Y-119996873D01*
X98185769Y-119999940D01*
X98204474Y-120006344D01*
X98223062Y-120014388D01*
X98230885Y-120015627D01*
X98230895Y-120015630D01*
X98266731Y-120021306D01*
X98278351Y-120023712D01*
X98313496Y-120032735D01*
X98321177Y-120034707D01*
X98341431Y-120034707D01*
X98361141Y-120036258D01*
X98381150Y-120039427D01*
X98389042Y-120038681D01*
X98425168Y-120035266D01*
X98437026Y-120034707D01*
X102257127Y-120034707D01*
X102325248Y-120054709D01*
X102367640Y-120101564D01*
X102368300Y-120103368D01*
X102463945Y-120245702D01*
X102590780Y-120361113D01*
X102741483Y-120442938D01*
X102907354Y-120486454D01*
X102994801Y-120487827D01*
X103071218Y-120489028D01*
X103071221Y-120489028D01*
X103078817Y-120489147D01*
X103212371Y-120458559D01*
X103283237Y-120462848D01*
X103340535Y-120504770D01*
X103366073Y-120571015D01*
X103366500Y-120581379D01*
X103366500Y-123527789D01*
X103346498Y-123595910D01*
X103329595Y-123616884D01*
X103132449Y-123814030D01*
X103070137Y-123848056D01*
X103043354Y-123850935D01*
X98865891Y-123850935D01*
X98806932Y-123836289D01*
X98762487Y-123812757D01*
X98755769Y-123809200D01*
X98745251Y-123806558D01*
X98596822Y-123769275D01*
X98596818Y-123769275D01*
X98589451Y-123767424D01*
X98581852Y-123767384D01*
X98581850Y-123767384D01*
X98510394Y-123767010D01*
X98417969Y-123766526D01*
X98410589Y-123768298D01*
X98410587Y-123768298D01*
X98377551Y-123776229D01*
X98344547Y-123784153D01*
X98273640Y-123780606D01*
X98215906Y-123739286D01*
X98189676Y-123673313D01*
X98189134Y-123661634D01*
X98189134Y-122356336D01*
X98189661Y-122345153D01*
X98191336Y-122337660D01*
X98190782Y-122320019D01*
X98189196Y-122269583D01*
X98189134Y-122265624D01*
X98189134Y-122237713D01*
X98188629Y-122233713D01*
X98187696Y-122221870D01*
X98186556Y-122185598D01*
X98186307Y-122177679D01*
X98180656Y-122158227D01*
X98176648Y-122138875D01*
X98175101Y-122126632D01*
X98174108Y-122118772D01*
X98163805Y-122092749D01*
X98157834Y-122077666D01*
X98153989Y-122066439D01*
X98144776Y-122034730D01*
X98141652Y-122023976D01*
X98131341Y-122006541D01*
X98122646Y-121988793D01*
X98115186Y-121969952D01*
X98089198Y-121934182D01*
X98082682Y-121924262D01*
X98064212Y-121893032D01*
X98060176Y-121886207D01*
X98054570Y-121880600D01*
X98045854Y-121871884D01*
X98033013Y-121856850D01*
X98025765Y-121846874D01*
X98025764Y-121846873D01*
X98021106Y-121840462D01*
X97987041Y-121812281D01*
X97978262Y-121804292D01*
X97893006Y-121719036D01*
X97864235Y-121674478D01*
X97835670Y-121598882D01*
X97835669Y-121598880D01*
X97832985Y-121591777D01*
X97804257Y-121549977D01*
X97740157Y-121456711D01*
X97740156Y-121456709D01*
X97735855Y-121450452D01*
X97730184Y-121445399D01*
X97613491Y-121341429D01*
X97613488Y-121341427D01*
X97607819Y-121336376D01*
X97599823Y-121332142D01*
X97462979Y-121259687D01*
X97462980Y-121259687D01*
X97456267Y-121256133D01*
X97438694Y-121251719D01*
X97297320Y-121216208D01*
X97297316Y-121216208D01*
X97289949Y-121214357D01*
X97282350Y-121214317D01*
X97282348Y-121214317D01*
X97210892Y-121213943D01*
X97118467Y-121213459D01*
X97111087Y-121215231D01*
X97111085Y-121215231D01*
X96959100Y-121251719D01*
X96959096Y-121251720D01*
X96951721Y-121253491D01*
X96799337Y-121332142D01*
X96670113Y-121444872D01*
X96571508Y-121585172D01*
X96509216Y-121744942D01*
X96508224Y-121752475D01*
X96508224Y-121752476D01*
X96489720Y-121893032D01*
X96486833Y-121914959D01*
X96487667Y-121922510D01*
X96493513Y-121975470D01*
X96481107Y-122045375D01*
X96471361Y-122061746D01*
X96406504Y-122154028D01*
X96406500Y-122154035D01*
X96402133Y-122160249D01*
X96375792Y-122227809D01*
X96344546Y-122307952D01*
X96339841Y-122320019D01*
X96338849Y-122327552D01*
X96338849Y-122327553D01*
X96325147Y-122431635D01*
X96317458Y-122490036D01*
X96326867Y-122575261D01*
X96335387Y-122652432D01*
X96336276Y-122660485D01*
X96338885Y-122667616D01*
X96338886Y-122667618D01*
X96389949Y-122807154D01*
X96397623Y-122850455D01*
X96397623Y-123270222D01*
X96377621Y-123338343D01*
X96323965Y-123384836D01*
X96301036Y-123392741D01*
X96272137Y-123399679D01*
X96257846Y-123403110D01*
X96105462Y-123481761D01*
X95976238Y-123594491D01*
X95877633Y-123734791D01*
X95852614Y-123798961D01*
X95822919Y-123875125D01*
X95815341Y-123894561D01*
X95814349Y-123902094D01*
X95814349Y-123902095D01*
X95794896Y-124049858D01*
X95792958Y-124064578D01*
X95800648Y-124134234D01*
X95810932Y-124227381D01*
X95811776Y-124235027D01*
X95814385Y-124242158D01*
X95814386Y-124242160D01*
X95865449Y-124381696D01*
X95873123Y-124424997D01*
X95873123Y-126063574D01*
X95872596Y-126074757D01*
X95870921Y-126082250D01*
X95871170Y-126090176D01*
X95871170Y-126090177D01*
X95873061Y-126150327D01*
X95873123Y-126154286D01*
X95873123Y-126182197D01*
X95873620Y-126186131D01*
X95873620Y-126186132D01*
X95873628Y-126186197D01*
X95874561Y-126198034D01*
X95875950Y-126242230D01*
X95881601Y-126261680D01*
X95885610Y-126281041D01*
X95888149Y-126301138D01*
X95891068Y-126308509D01*
X95891068Y-126308511D01*
X95904427Y-126342253D01*
X95908272Y-126353483D01*
X95918394Y-126388324D01*
X95920605Y-126395934D01*
X95924638Y-126402753D01*
X95924640Y-126402758D01*
X95930916Y-126413369D01*
X95939611Y-126431117D01*
X95947071Y-126449958D01*
X95951733Y-126456374D01*
X95951733Y-126456375D01*
X95973059Y-126485728D01*
X95979575Y-126495648D01*
X95996535Y-126524325D01*
X96002081Y-126533703D01*
X96016402Y-126548024D01*
X96029242Y-126563057D01*
X96041151Y-126579448D01*
X96068129Y-126601766D01*
X96075228Y-126607639D01*
X96084007Y-126615629D01*
X97360630Y-127892253D01*
X97368170Y-127900539D01*
X97372282Y-127907018D01*
X97378059Y-127912443D01*
X97421933Y-127953643D01*
X97424775Y-127956398D01*
X97444512Y-127976135D01*
X97447709Y-127978615D01*
X97456729Y-127986318D01*
X97488961Y-128016586D01*
X97495907Y-128020405D01*
X97495910Y-128020407D01*
X97506716Y-128026348D01*
X97523235Y-128037199D01*
X97539241Y-128049614D01*
X97546510Y-128052759D01*
X97546514Y-128052762D01*
X97579819Y-128067174D01*
X97590469Y-128072391D01*
X97629222Y-128093695D01*
X97636897Y-128095666D01*
X97636898Y-128095666D01*
X97648844Y-128098733D01*
X97667549Y-128105137D01*
X97686137Y-128113181D01*
X97693960Y-128114420D01*
X97693970Y-128114423D01*
X97729806Y-128120099D01*
X97741426Y-128122505D01*
X97776571Y-128131528D01*
X97784252Y-128133500D01*
X97804506Y-128133500D01*
X97824216Y-128135051D01*
X97844225Y-128138220D01*
X97852117Y-128137474D01*
X97888243Y-128134059D01*
X97900101Y-128133500D01*
X102697337Y-128133500D01*
X102765458Y-128153502D01*
X102811951Y-128207158D01*
X102815663Y-128216199D01*
X102864084Y-128348515D01*
X102868321Y-128354821D01*
X102868323Y-128354824D01*
X102912620Y-128420744D01*
X102959729Y-128490849D01*
X103086564Y-128606260D01*
X103237267Y-128688085D01*
X103403138Y-128731601D01*
X103490585Y-128732974D01*
X103567002Y-128734175D01*
X103567005Y-128734175D01*
X103574601Y-128734294D01*
X103582005Y-128732598D01*
X103582007Y-128732598D01*
X103644845Y-128718206D01*
X103741758Y-128696010D01*
X103889994Y-128621455D01*
X103946608Y-128608020D01*
X106150557Y-128608020D01*
X106218678Y-128628022D01*
X106265171Y-128681678D01*
X106275275Y-128751952D01*
X106242332Y-128820353D01*
X106129557Y-128940237D01*
X106041054Y-129067813D01*
X105984645Y-129149126D01*
X105980576Y-129154991D01*
X105978510Y-129159181D01*
X105978508Y-129159184D01*
X105873768Y-129371577D01*
X105864975Y-129389407D01*
X105863553Y-129393850D01*
X105863552Y-129393852D01*
X105803562Y-129581263D01*
X105785293Y-129638335D01*
X105743279Y-129896307D01*
X105742737Y-129937711D01*
X105740113Y-130138200D01*
X105739858Y-130157655D01*
X105775104Y-130416638D01*
X105776412Y-130421124D01*
X105776412Y-130421126D01*
X105796098Y-130488664D01*
X105848243Y-130667567D01*
X105957668Y-130904928D01*
X105960231Y-130908837D01*
X106098410Y-131119596D01*
X106098414Y-131119601D01*
X106100976Y-131123509D01*
X106275018Y-131318506D01*
X106475970Y-131485637D01*
X106479973Y-131488066D01*
X106695422Y-131618804D01*
X106695426Y-131618806D01*
X106699419Y-131621229D01*
X106940455Y-131722303D01*
X107193783Y-131786641D01*
X107198434Y-131787109D01*
X107198438Y-131787110D01*
X107391308Y-131806531D01*
X107410867Y-131808500D01*
X107566354Y-131808500D01*
X107568679Y-131808327D01*
X107568685Y-131808327D01*
X107756000Y-131794407D01*
X107756004Y-131794406D01*
X107760652Y-131794061D01*
X107765200Y-131793032D01*
X107765206Y-131793031D01*
X107966969Y-131747376D01*
X108015577Y-131736377D01*
X108019931Y-131734684D01*
X108254824Y-131643340D01*
X108254827Y-131643339D01*
X108259177Y-131641647D01*
X108486098Y-131511951D01*
X108691357Y-131350138D01*
X108870443Y-131159763D01*
X108988059Y-130990221D01*
X109016759Y-130948851D01*
X109016761Y-130948848D01*
X109019424Y-130945009D01*
X109026138Y-130931395D01*
X109132960Y-130714781D01*
X109132961Y-130714778D01*
X109135025Y-130710593D01*
X109214707Y-130461665D01*
X109256721Y-130203693D01*
X109259162Y-130017201D01*
X109260081Y-129947022D01*
X109260081Y-129947019D01*
X109260142Y-129942345D01*
X109224896Y-129683362D01*
X109219838Y-129666007D01*
X109176998Y-129519031D01*
X109151757Y-129432433D01*
X109042332Y-129195072D01*
X109009519Y-129145024D01*
X108901590Y-128980404D01*
X108901586Y-128980399D01*
X108899024Y-128976491D01*
X108757494Y-128817920D01*
X108727056Y-128753780D01*
X108736127Y-128683366D01*
X108781828Y-128629033D01*
X108851497Y-128608020D01*
X113890500Y-128608020D01*
X113958621Y-128628022D01*
X114005114Y-128681678D01*
X114016500Y-128734020D01*
X114016500Y-129054572D01*
X114016837Y-129057818D01*
X114016837Y-129057822D01*
X114019308Y-129081635D01*
X114027022Y-129155982D01*
X114080692Y-129316849D01*
X114169929Y-129461055D01*
X114289947Y-129580864D01*
X114434308Y-129669849D01*
X114441256Y-129672154D01*
X114441257Y-129672154D01*
X114588738Y-129721072D01*
X114588740Y-129721072D01*
X114595269Y-129723238D01*
X114695428Y-129733500D01*
X115089435Y-129733500D01*
X115157556Y-129753502D01*
X115204049Y-129807158D01*
X115214153Y-129877432D01*
X115184659Y-129942012D01*
X115163496Y-129961435D01*
X115156612Y-129966437D01*
X115146707Y-129972943D01*
X115129552Y-129983089D01*
X115108637Y-129995458D01*
X115094313Y-130009782D01*
X115079281Y-130022621D01*
X115062893Y-130034528D01*
X115036815Y-130066051D01*
X115034712Y-130068593D01*
X115026722Y-130077373D01*
X113999500Y-131104595D01*
X113937188Y-131138621D01*
X113910405Y-131141500D01*
X113801866Y-131141500D01*
X113739684Y-131148255D01*
X113603295Y-131199385D01*
X113486739Y-131286739D01*
X113399385Y-131403295D01*
X113348255Y-131539684D01*
X113341500Y-131601866D01*
X113341500Y-133398134D01*
X113348255Y-133460316D01*
X113399385Y-133596705D01*
X113486739Y-133713261D01*
X113603295Y-133800615D01*
X113739684Y-133851745D01*
X113801866Y-133858500D01*
X114798134Y-133858500D01*
X114860316Y-133851745D01*
X114996705Y-133800615D01*
X115113261Y-133713261D01*
X115200615Y-133596705D01*
X115251745Y-133460316D01*
X115258500Y-133398134D01*
X115258500Y-133336857D01*
X115278502Y-133268736D01*
X115332158Y-133222243D01*
X115402432Y-133212139D01*
X115458416Y-133234862D01*
X115463056Y-133239040D01*
X115468774Y-133242341D01*
X115468775Y-133242342D01*
X115482710Y-133250387D01*
X115628444Y-133334527D01*
X115810072Y-133393542D01*
X115816633Y-133394232D01*
X115816635Y-133394232D01*
X115869889Y-133399829D01*
X115952390Y-133408500D01*
X116047610Y-133408500D01*
X116130111Y-133399829D01*
X116183365Y-133394232D01*
X116183367Y-133394232D01*
X116189928Y-133393542D01*
X116371556Y-133334527D01*
X116517291Y-133250387D01*
X116531225Y-133242342D01*
X116531226Y-133242341D01*
X116536944Y-133239040D01*
X116541851Y-133234621D01*
X116541940Y-133234557D01*
X116608808Y-133210698D01*
X116677960Y-133226779D01*
X116727440Y-133277693D01*
X116742001Y-133336493D01*
X116742001Y-133394669D01*
X116742371Y-133401490D01*
X116747895Y-133452352D01*
X116751521Y-133467604D01*
X116796676Y-133588054D01*
X116805214Y-133603649D01*
X116881715Y-133705724D01*
X116894276Y-133718285D01*
X116996351Y-133794786D01*
X117011946Y-133803324D01*
X117132394Y-133848478D01*
X117147649Y-133852105D01*
X117198514Y-133857631D01*
X117205328Y-133858000D01*
X117427885Y-133858000D01*
X117443124Y-133853525D01*
X117444329Y-133852135D01*
X117446000Y-133844452D01*
X117446000Y-133839884D01*
X117954000Y-133839884D01*
X117958475Y-133855123D01*
X117959865Y-133856328D01*
X117967548Y-133857999D01*
X118194669Y-133857999D01*
X118201490Y-133857629D01*
X118252352Y-133852105D01*
X118267604Y-133848479D01*
X118388054Y-133803324D01*
X118403649Y-133794786D01*
X118505724Y-133718285D01*
X118518285Y-133705724D01*
X118594786Y-133603649D01*
X118603324Y-133588054D01*
X118648478Y-133467606D01*
X118652105Y-133452351D01*
X118657631Y-133401486D01*
X118658000Y-133394672D01*
X118658000Y-132772115D01*
X118653525Y-132756876D01*
X118652135Y-132755671D01*
X118644452Y-132754000D01*
X117972115Y-132754000D01*
X117956876Y-132758475D01*
X117955671Y-132759865D01*
X117954000Y-132767548D01*
X117954000Y-133839884D01*
X117446000Y-133839884D01*
X117446000Y-132372000D01*
X117466002Y-132303879D01*
X117519658Y-132257386D01*
X117572000Y-132246000D01*
X118639884Y-132246000D01*
X118655123Y-132241525D01*
X118656328Y-132240135D01*
X118657999Y-132232452D01*
X118657999Y-131605331D01*
X118657629Y-131598510D01*
X118652105Y-131547648D01*
X118648479Y-131532396D01*
X118603324Y-131411946D01*
X118594786Y-131396351D01*
X118518285Y-131294276D01*
X118505724Y-131281715D01*
X118397232Y-131200405D01*
X118354717Y-131143546D01*
X118349691Y-131072728D01*
X118383751Y-131010434D01*
X118388550Y-131006205D01*
X118391362Y-131004542D01*
X118405683Y-130990221D01*
X118420717Y-130977380D01*
X118437107Y-130965472D01*
X118465298Y-130931395D01*
X118473288Y-130922616D01*
X119170694Y-130225210D01*
X119178984Y-130217666D01*
X119185465Y-130213553D01*
X119232106Y-130163885D01*
X119234860Y-130161044D01*
X119254581Y-130141323D01*
X119257059Y-130138128D01*
X119264765Y-130129106D01*
X119289605Y-130102654D01*
X119295033Y-130096874D01*
X119304793Y-130079121D01*
X119315646Y-130062598D01*
X119323200Y-130052859D01*
X119328060Y-130046594D01*
X119345623Y-130006010D01*
X119350830Y-129995380D01*
X119372142Y-129956613D01*
X119374113Y-129948936D01*
X119374115Y-129948931D01*
X119377179Y-129936995D01*
X119383585Y-129918283D01*
X119385447Y-129913982D01*
X119391628Y-129899698D01*
X119392868Y-129891870D01*
X119392870Y-129891863D01*
X119398546Y-129856029D01*
X119400952Y-129844409D01*
X119409975Y-129809264D01*
X119409975Y-129809263D01*
X119411947Y-129801583D01*
X119411947Y-129781329D01*
X119413498Y-129761618D01*
X119415427Y-129749439D01*
X119416667Y-129741610D01*
X119412506Y-129697591D01*
X119411947Y-129685734D01*
X119411947Y-124342496D01*
X119421039Y-124295500D01*
X119448422Y-124227381D01*
X119457940Y-124203704D01*
X119462109Y-124174409D01*
X119481521Y-124038015D01*
X119481521Y-124038011D01*
X119482102Y-124033931D01*
X119482259Y-124018984D01*
X119474840Y-123957680D01*
X119462570Y-123856283D01*
X119462569Y-123856280D01*
X119461657Y-123848742D01*
X119458817Y-123841224D01*
X119403726Y-123695431D01*
X119401042Y-123688328D01*
X119392230Y-123675507D01*
X119308214Y-123553262D01*
X119308213Y-123553260D01*
X119303912Y-123547003D01*
X119298241Y-123541950D01*
X119181548Y-123437980D01*
X119181545Y-123437978D01*
X119175876Y-123432927D01*
X119167880Y-123428693D01*
X119031036Y-123356238D01*
X119031037Y-123356238D01*
X119024324Y-123352684D01*
X119006751Y-123348270D01*
X118865377Y-123312759D01*
X118865373Y-123312759D01*
X118858006Y-123310908D01*
X118850407Y-123310868D01*
X118850405Y-123310868D01*
X118778949Y-123310494D01*
X118686524Y-123310010D01*
X118679144Y-123311782D01*
X118679142Y-123311782D01*
X118527157Y-123348270D01*
X118527153Y-123348271D01*
X118519778Y-123350042D01*
X118367394Y-123428693D01*
X118238170Y-123541423D01*
X118139565Y-123681723D01*
X118117122Y-123739286D01*
X118086268Y-123818423D01*
X118077273Y-123841493D01*
X118076281Y-123849026D01*
X118076281Y-123849027D01*
X118058070Y-123987358D01*
X118054890Y-124011510D01*
X118062169Y-124077444D01*
X118072776Y-124173515D01*
X118073708Y-124181959D01*
X118076317Y-124189090D01*
X118076318Y-124189092D01*
X118086352Y-124216511D01*
X118132456Y-124342496D01*
X118132640Y-124342999D01*
X118132390Y-124343090D01*
X118144947Y-124395393D01*
X118144947Y-126321512D01*
X118124945Y-126389633D01*
X118071289Y-126436126D01*
X118036763Y-126445748D01*
X118033661Y-126445732D01*
X117989330Y-126456375D01*
X117871716Y-126484611D01*
X117800808Y-126481064D01*
X117753207Y-126451187D01*
X117715381Y-126413361D01*
X117568699Y-126324528D01*
X117561452Y-126322257D01*
X117561450Y-126322256D01*
X117468958Y-126293271D01*
X117405062Y-126273247D01*
X117331635Y-126266500D01*
X117328737Y-126266500D01*
X116999140Y-126266501D01*
X116668366Y-126266501D01*
X116665508Y-126266764D01*
X116665499Y-126266764D01*
X116629996Y-126270026D01*
X116594938Y-126273247D01*
X116588560Y-126275246D01*
X116588559Y-126275246D01*
X116438550Y-126322256D01*
X116438548Y-126322257D01*
X116431301Y-126324528D01*
X116284619Y-126413361D01*
X116163361Y-126534619D01*
X116159424Y-126541120D01*
X116103806Y-126632956D01*
X116051408Y-126680863D01*
X115981429Y-126692836D01*
X115916085Y-126665075D01*
X115888885Y-126633988D01*
X115888247Y-126632956D01*
X115830071Y-126538945D01*
X115815426Y-126524325D01*
X115715233Y-126424307D01*
X115710053Y-126419136D01*
X115693384Y-126408861D01*
X115645890Y-126356088D01*
X115633500Y-126301601D01*
X115633500Y-125314594D01*
X115653502Y-125246473D01*
X115670405Y-125225499D01*
X116392247Y-124503657D01*
X116400537Y-124496113D01*
X116407018Y-124492000D01*
X116453659Y-124442332D01*
X116456413Y-124439491D01*
X116476135Y-124419769D01*
X116478612Y-124416576D01*
X116486317Y-124407555D01*
X116497105Y-124396067D01*
X116516586Y-124375321D01*
X116520407Y-124368371D01*
X116526346Y-124357568D01*
X116537202Y-124341041D01*
X116544757Y-124331302D01*
X116544758Y-124331300D01*
X116549614Y-124325040D01*
X116567174Y-124284460D01*
X116572391Y-124273812D01*
X116589875Y-124242009D01*
X116589876Y-124242007D01*
X116593695Y-124235060D01*
X116598733Y-124215437D01*
X116605137Y-124196734D01*
X116610033Y-124185420D01*
X116610033Y-124185419D01*
X116613181Y-124178145D01*
X116614420Y-124170322D01*
X116614423Y-124170312D01*
X116620099Y-124134476D01*
X116622505Y-124122856D01*
X116631528Y-124087711D01*
X116631528Y-124087710D01*
X116633500Y-124080030D01*
X116633500Y-124059776D01*
X116635051Y-124040065D01*
X116635473Y-124037404D01*
X116638220Y-124020057D01*
X116634059Y-123976038D01*
X116633500Y-123964181D01*
X116633500Y-122848119D01*
X116642592Y-122801123D01*
X116657744Y-122763430D01*
X116689385Y-122684720D01*
X116690741Y-122675196D01*
X116699059Y-122616746D01*
X116728460Y-122552124D01*
X116788131Y-122513655D01*
X116823802Y-122508500D01*
X116903134Y-122508500D01*
X116965316Y-122501745D01*
X116995771Y-122490328D01*
X117066577Y-122485145D01*
X117084224Y-122490326D01*
X117114684Y-122501745D01*
X117176866Y-122508500D01*
X118173134Y-122508500D01*
X118235316Y-122501745D01*
X118265771Y-122490328D01*
X118336577Y-122485145D01*
X118354224Y-122490326D01*
X118384684Y-122501745D01*
X118446866Y-122508500D01*
X119443134Y-122508500D01*
X119505316Y-122501745D01*
X119535771Y-122490328D01*
X119606577Y-122485145D01*
X119624224Y-122490326D01*
X119654684Y-122501745D01*
X119716866Y-122508500D01*
X120713134Y-122508500D01*
X120775316Y-122501745D01*
X120805771Y-122490328D01*
X120876577Y-122485145D01*
X120894224Y-122490326D01*
X120924684Y-122501745D01*
X120986866Y-122508500D01*
X121291405Y-122508500D01*
X121359526Y-122528502D01*
X121406019Y-122582158D01*
X121416123Y-122652432D01*
X121386629Y-122717012D01*
X121380500Y-122723595D01*
X120832747Y-123271348D01*
X120824461Y-123278888D01*
X120817982Y-123283000D01*
X120812557Y-123288777D01*
X120771357Y-123332651D01*
X120768602Y-123335493D01*
X120748865Y-123355230D01*
X120746385Y-123358427D01*
X120738682Y-123367447D01*
X120708414Y-123399679D01*
X120704595Y-123406625D01*
X120704593Y-123406628D01*
X120698652Y-123417434D01*
X120687801Y-123433953D01*
X120675386Y-123449959D01*
X120672241Y-123457228D01*
X120672238Y-123457232D01*
X120657826Y-123490537D01*
X120652609Y-123501187D01*
X120631305Y-123539940D01*
X120626270Y-123559552D01*
X120626267Y-123559562D01*
X120619863Y-123578266D01*
X120616509Y-123586018D01*
X120611819Y-123596855D01*
X120610580Y-123604678D01*
X120610577Y-123604688D01*
X120604901Y-123640524D01*
X120602495Y-123652144D01*
X120591500Y-123694970D01*
X120591500Y-123715224D01*
X120589949Y-123734934D01*
X120586780Y-123754943D01*
X120587526Y-123762835D01*
X120590941Y-123798961D01*
X120591500Y-123810819D01*
X120591500Y-132515500D01*
X120571498Y-132583621D01*
X120517842Y-132630114D01*
X120465500Y-132641500D01*
X120326866Y-132641500D01*
X120264684Y-132648255D01*
X120128295Y-132699385D01*
X120011739Y-132786739D01*
X119924385Y-132903295D01*
X119873255Y-133039684D01*
X119866500Y-133101866D01*
X119866500Y-134898134D01*
X119873255Y-134960316D01*
X119924385Y-135096705D01*
X120011739Y-135213261D01*
X120018919Y-135218642D01*
X120018920Y-135218643D01*
X120080339Y-135264674D01*
X120122854Y-135321533D01*
X120127880Y-135392352D01*
X120093820Y-135454645D01*
X120031489Y-135488635D01*
X120004774Y-135491500D01*
X100049367Y-135491500D01*
X100029982Y-135490000D01*
X100015149Y-135487690D01*
X100015145Y-135487690D01*
X100006276Y-135486309D01*
X99985817Y-135488984D01*
X99963993Y-135489928D01*
X99614035Y-135474648D01*
X99603086Y-135473690D01*
X99586436Y-135471498D01*
X99225502Y-135423981D01*
X99214693Y-135422074D01*
X98842885Y-135339647D01*
X98832268Y-135336802D01*
X98717498Y-135300615D01*
X98469061Y-135222282D01*
X98458746Y-135218529D01*
X98106877Y-135072780D01*
X98096933Y-135068142D01*
X97759132Y-134892294D01*
X97749613Y-134886799D01*
X97428426Y-134682180D01*
X97419422Y-134675876D01*
X97117284Y-134444038D01*
X97108863Y-134436972D01*
X96828086Y-134179686D01*
X96820314Y-134171914D01*
X96563028Y-133891137D01*
X96555962Y-133882716D01*
X96324124Y-133580578D01*
X96317820Y-133571574D01*
X96113201Y-133250387D01*
X96107705Y-133240867D01*
X96038699Y-133108307D01*
X95931858Y-132903067D01*
X95927216Y-132893114D01*
X95916906Y-132868222D01*
X95781471Y-132541254D01*
X95777715Y-132530932D01*
X95772850Y-132515500D01*
X95663198Y-132167731D01*
X95660353Y-132157114D01*
X95577926Y-131785307D01*
X95576018Y-131774490D01*
X95572449Y-131747376D01*
X95526310Y-131396913D01*
X95525352Y-131385964D01*
X95517250Y-131200405D01*
X95514294Y-131132703D01*
X97890743Y-131132703D01*
X97891302Y-131136947D01*
X97891302Y-131136951D01*
X97899107Y-131196233D01*
X97928268Y-131417734D01*
X98004129Y-131695036D01*
X98005813Y-131698984D01*
X98094730Y-131907445D01*
X98116923Y-131959476D01*
X98128693Y-131979142D01*
X98241562Y-132167732D01*
X98264561Y-132206161D01*
X98444313Y-132430528D01*
X98461397Y-132446740D01*
X98645554Y-132621498D01*
X98652851Y-132628423D01*
X98751605Y-132699385D01*
X98877898Y-132790136D01*
X98886317Y-132796186D01*
X98890112Y-132798195D01*
X98890113Y-132798196D01*
X98911869Y-132809715D01*
X99140392Y-132930712D01*
X99164699Y-132939607D01*
X99349515Y-133007240D01*
X99410373Y-133029511D01*
X99691264Y-133090755D01*
X99719841Y-133093004D01*
X99914282Y-133108307D01*
X99914291Y-133108307D01*
X99916739Y-133108500D01*
X100072271Y-133108500D01*
X100074407Y-133108354D01*
X100074418Y-133108354D01*
X100282548Y-133094165D01*
X100282554Y-133094164D01*
X100286825Y-133093873D01*
X100291020Y-133093004D01*
X100291022Y-133093004D01*
X100548495Y-133039684D01*
X100568342Y-133035574D01*
X100839343Y-132939607D01*
X101094812Y-132807750D01*
X101098313Y-132805289D01*
X101098317Y-132805287D01*
X101274240Y-132681646D01*
X101330023Y-132642441D01*
X101410301Y-132567842D01*
X101537479Y-132449661D01*
X101537481Y-132449658D01*
X101540622Y-132446740D01*
X101722713Y-132224268D01*
X101872927Y-131979142D01*
X101988483Y-131715898D01*
X102067244Y-131439406D01*
X102101258Y-131200405D01*
X102107146Y-131159036D01*
X102107146Y-131159034D01*
X102107751Y-131154784D01*
X102107786Y-131148255D01*
X102109235Y-130871583D01*
X102109235Y-130871576D01*
X102109257Y-130867297D01*
X102071732Y-130582266D01*
X101995871Y-130304964D01*
X101955227Y-130209675D01*
X101884763Y-130044476D01*
X101884761Y-130044472D01*
X101883077Y-130040524D01*
X101799562Y-129900980D01*
X101737643Y-129797521D01*
X101737640Y-129797517D01*
X101735439Y-129793839D01*
X101555687Y-129569472D01*
X101347149Y-129371577D01*
X101113683Y-129203814D01*
X101091843Y-129192250D01*
X101023344Y-129155982D01*
X100859608Y-129069288D01*
X100616721Y-128980404D01*
X100593658Y-128971964D01*
X100593656Y-128971963D01*
X100589627Y-128970489D01*
X100308736Y-128909245D01*
X100277685Y-128906801D01*
X100085718Y-128891693D01*
X100085709Y-128891693D01*
X100083261Y-128891500D01*
X99927729Y-128891500D01*
X99925593Y-128891646D01*
X99925582Y-128891646D01*
X99717452Y-128905835D01*
X99717446Y-128905836D01*
X99713175Y-128906127D01*
X99708980Y-128906996D01*
X99708978Y-128906996D01*
X99572417Y-128935276D01*
X99431658Y-128964426D01*
X99160657Y-129060393D01*
X98905188Y-129192250D01*
X98901687Y-129194711D01*
X98901683Y-129194713D01*
X98895131Y-129199318D01*
X98669977Y-129357559D01*
X98654892Y-129371577D01*
X98496213Y-129519031D01*
X98459378Y-129553260D01*
X98277287Y-129775732D01*
X98127073Y-130020858D01*
X98125347Y-130024791D01*
X98125346Y-130024792D01*
X98108750Y-130062598D01*
X98011517Y-130284102D01*
X97932756Y-130560594D01*
X97892249Y-130845216D01*
X97892227Y-130849505D01*
X97892226Y-130849512D01*
X97890765Y-131128417D01*
X97890743Y-131132703D01*
X95514294Y-131132703D01*
X95510561Y-131047206D01*
X95512188Y-131020805D01*
X95512769Y-131017352D01*
X95512770Y-131017345D01*
X95513576Y-131012552D01*
X95513729Y-131000000D01*
X95509773Y-130972376D01*
X95508500Y-130954514D01*
X95508500Y-100132703D01*
X97890743Y-100132703D01*
X97928268Y-100417734D01*
X98004129Y-100695036D01*
X98116923Y-100959476D01*
X98264561Y-101206161D01*
X98444313Y-101430528D01*
X98541482Y-101522738D01*
X98628781Y-101605581D01*
X98652851Y-101628423D01*
X98886317Y-101796186D01*
X98890112Y-101798195D01*
X98890113Y-101798196D01*
X98911869Y-101809715D01*
X99140392Y-101930712D01*
X99410373Y-102029511D01*
X99691264Y-102090755D01*
X99719841Y-102093004D01*
X99914282Y-102108307D01*
X99914291Y-102108307D01*
X99916739Y-102108500D01*
X100072271Y-102108500D01*
X100074407Y-102108354D01*
X100074418Y-102108354D01*
X100282548Y-102094165D01*
X100282554Y-102094164D01*
X100286825Y-102093873D01*
X100291020Y-102093004D01*
X100291022Y-102093004D01*
X100427584Y-102064723D01*
X100568342Y-102035574D01*
X100839343Y-101939607D01*
X101048061Y-101831880D01*
X101091005Y-101809715D01*
X101091006Y-101809715D01*
X101094812Y-101807750D01*
X101098313Y-101805289D01*
X101098317Y-101805287D01*
X101252601Y-101696854D01*
X101330023Y-101642441D01*
X101424801Y-101554368D01*
X101537479Y-101449661D01*
X101537481Y-101449658D01*
X101540622Y-101446740D01*
X101722713Y-101224268D01*
X101872927Y-100979142D01*
X101988483Y-100715898D01*
X102067244Y-100439406D01*
X102107751Y-100154784D01*
X102107845Y-100136951D01*
X102109235Y-99871583D01*
X102109235Y-99871576D01*
X102109257Y-99867297D01*
X102071732Y-99582266D01*
X101995871Y-99304964D01*
X101959656Y-99220059D01*
X101884763Y-99044476D01*
X101884761Y-99044472D01*
X101883077Y-99040524D01*
X101761578Y-98837514D01*
X101737643Y-98797521D01*
X101737640Y-98797517D01*
X101735439Y-98793839D01*
X101555687Y-98569472D01*
X101347149Y-98371577D01*
X101157064Y-98234987D01*
X101117172Y-98206321D01*
X101117171Y-98206320D01*
X101113683Y-98203814D01*
X101091843Y-98192250D01*
X100980490Y-98133292D01*
X100859608Y-98069288D01*
X100589627Y-97970489D01*
X100308736Y-97909245D01*
X100277685Y-97906801D01*
X100085718Y-97891693D01*
X100085709Y-97891693D01*
X100083261Y-97891500D01*
X99927729Y-97891500D01*
X99925593Y-97891646D01*
X99925582Y-97891646D01*
X99717452Y-97905835D01*
X99717446Y-97905836D01*
X99713175Y-97906127D01*
X99708980Y-97906996D01*
X99708978Y-97906996D01*
X99572416Y-97935277D01*
X99431658Y-97964426D01*
X99160657Y-98060393D01*
X99156848Y-98062359D01*
X99059198Y-98112760D01*
X98905188Y-98192250D01*
X98901687Y-98194711D01*
X98901683Y-98194713D01*
X98787582Y-98274905D01*
X98669977Y-98357559D01*
X98654892Y-98371577D01*
X98561095Y-98458739D01*
X98459378Y-98553260D01*
X98277287Y-98775732D01*
X98127073Y-99020858D01*
X98125347Y-99024791D01*
X98125346Y-99024792D01*
X98041989Y-99214685D01*
X98011517Y-99284102D01*
X97932756Y-99560594D01*
X97892249Y-99845216D01*
X97892227Y-99849505D01*
X97892226Y-99849512D01*
X97890765Y-100128417D01*
X97890743Y-100132703D01*
X95508500Y-100132703D01*
X95508500Y-100053250D01*
X95510246Y-100032345D01*
X95512770Y-100017344D01*
X95512770Y-100017341D01*
X95513576Y-100012552D01*
X95513729Y-100000000D01*
X95513039Y-99995184D01*
X95513039Y-99995178D01*
X95511387Y-99983644D01*
X95510234Y-99960284D01*
X95518186Y-99778171D01*
X95525352Y-99614035D01*
X95526310Y-99603086D01*
X95533994Y-99544723D01*
X95576019Y-99225502D01*
X95577927Y-99214685D01*
X95615662Y-99044476D01*
X95660353Y-98842885D01*
X95663198Y-98832268D01*
X95750123Y-98556579D01*
X95777718Y-98469061D01*
X95781474Y-98458739D01*
X95817578Y-98371577D01*
X95927220Y-98106877D01*
X95931862Y-98096924D01*
X95946249Y-98069288D01*
X96107706Y-97759132D01*
X96113201Y-97749613D01*
X96317820Y-97428426D01*
X96324124Y-97419422D01*
X96555962Y-97117284D01*
X96563028Y-97108863D01*
X96820314Y-96828086D01*
X96828086Y-96820314D01*
X97108863Y-96563028D01*
X97117284Y-96555962D01*
X97419422Y-96324124D01*
X97428426Y-96317820D01*
X97749613Y-96113201D01*
X97759133Y-96107705D01*
X98096933Y-95931858D01*
X98106877Y-95927220D01*
X98458746Y-95781471D01*
X98469061Y-95777718D01*
X98832269Y-95663198D01*
X98842886Y-95660353D01*
X99214693Y-95577926D01*
X99225502Y-95576019D01*
X99603087Y-95526310D01*
X99614035Y-95525352D01*
X99956554Y-95510397D01*
X99981429Y-95511777D01*
X99993724Y-95513691D01*
X100002626Y-95512527D01*
X100002628Y-95512527D01*
X100021399Y-95510072D01*
X100025286Y-95509564D01*
X100041621Y-95508500D01*
X103874000Y-95508500D01*
X103942121Y-95528502D01*
G37*
%TD.AperFunction*%
%TA.AperFunction,Conductor*%
G36*
X135409532Y-115640538D02*
G01*
X135466368Y-115683085D01*
X135491179Y-115749605D01*
X135491500Y-115758594D01*
X135491500Y-119458965D01*
X135471498Y-119527086D01*
X135417842Y-119573579D01*
X135347568Y-119583683D01*
X135313651Y-119573803D01*
X135311240Y-119572714D01*
X135161356Y-119525744D01*
X135148306Y-119523131D01*
X135093414Y-119518087D01*
X135081876Y-119521475D01*
X135080671Y-119522865D01*
X135079000Y-119530548D01*
X135079000Y-121464884D01*
X135083475Y-121480123D01*
X135084865Y-121481328D01*
X135089294Y-121482291D01*
X135148315Y-121476868D01*
X135161351Y-121474257D01*
X135311240Y-121427286D01*
X135313651Y-121426197D01*
X135315565Y-121425930D01*
X135318492Y-121425013D01*
X135318645Y-121425501D01*
X135383968Y-121416396D01*
X135448421Y-121446166D01*
X135486548Y-121506057D01*
X135491500Y-121541035D01*
X135491500Y-130950633D01*
X135490000Y-130970018D01*
X135487690Y-130984851D01*
X135487690Y-130984855D01*
X135486309Y-130993724D01*
X135488984Y-131014183D01*
X135489928Y-131036007D01*
X135482750Y-131200405D01*
X135474648Y-131385964D01*
X135473690Y-131396913D01*
X135427552Y-131747376D01*
X135423982Y-131774490D01*
X135422074Y-131785307D01*
X135339647Y-132157114D01*
X135336802Y-132167731D01*
X135227151Y-132515500D01*
X135222285Y-132530932D01*
X135218529Y-132541254D01*
X135083095Y-132868222D01*
X135072784Y-132893114D01*
X135068142Y-132903067D01*
X134961301Y-133108307D01*
X134892295Y-133240867D01*
X134886799Y-133250387D01*
X134682180Y-133571574D01*
X134675876Y-133580578D01*
X134444038Y-133882716D01*
X134436972Y-133891137D01*
X134179686Y-134171914D01*
X134171914Y-134179686D01*
X133891137Y-134436972D01*
X133882716Y-134444038D01*
X133580578Y-134675876D01*
X133571574Y-134682180D01*
X133250387Y-134886799D01*
X133240868Y-134892294D01*
X132903067Y-135068142D01*
X132893123Y-135072780D01*
X132541254Y-135218529D01*
X132530939Y-135222282D01*
X132282502Y-135300615D01*
X132167732Y-135336802D01*
X132157115Y-135339647D01*
X131785307Y-135422074D01*
X131774498Y-135423981D01*
X131413564Y-135471498D01*
X131396914Y-135473690D01*
X131385965Y-135474648D01*
X131043446Y-135489603D01*
X131018571Y-135488223D01*
X131006276Y-135486309D01*
X130997374Y-135487473D01*
X130997372Y-135487473D01*
X130982323Y-135489441D01*
X130974714Y-135490436D01*
X130958379Y-135491500D01*
X124351025Y-135491500D01*
X124282904Y-135471498D01*
X124236411Y-135417842D01*
X124226307Y-135347568D01*
X124255801Y-135282988D01*
X124295592Y-135252349D01*
X124458095Y-135172739D01*
X124466945Y-135167464D01*
X124640328Y-135043792D01*
X124648200Y-135037139D01*
X124799052Y-134886812D01*
X124805730Y-134878965D01*
X124930003Y-134706020D01*
X124935313Y-134697183D01*
X125029670Y-134506267D01*
X125033469Y-134496672D01*
X125095377Y-134292910D01*
X125097555Y-134282837D01*
X125098986Y-134271962D01*
X125096775Y-134257778D01*
X125083617Y-134254000D01*
X123637000Y-134254000D01*
X123568879Y-134233998D01*
X123522386Y-134180342D01*
X123511000Y-134128000D01*
X123511000Y-133727885D01*
X124019000Y-133727885D01*
X124023475Y-133743124D01*
X124024865Y-133744329D01*
X124032548Y-133746000D01*
X125083344Y-133746000D01*
X125096875Y-133742027D01*
X125098180Y-133732947D01*
X125056214Y-133565875D01*
X125052894Y-133556124D01*
X124967972Y-133360814D01*
X124963105Y-133351739D01*
X124847426Y-133172926D01*
X124841136Y-133164757D01*
X124697806Y-133007240D01*
X124690273Y-133000215D01*
X124523139Y-132868222D01*
X124514552Y-132862517D01*
X124328117Y-132759599D01*
X124318705Y-132755369D01*
X124117959Y-132684280D01*
X124107988Y-132681646D01*
X124036837Y-132668972D01*
X124023540Y-132670432D01*
X124019000Y-132684989D01*
X124019000Y-133727885D01*
X123511000Y-133727885D01*
X123511000Y-132683102D01*
X123507082Y-132669758D01*
X123492806Y-132667771D01*
X123454324Y-132673660D01*
X123444288Y-132676051D01*
X123241868Y-132742212D01*
X123232359Y-132746209D01*
X123043463Y-132844542D01*
X123034738Y-132850036D01*
X122864433Y-132977905D01*
X122856726Y-132984748D01*
X122779478Y-133065584D01*
X122717954Y-133101014D01*
X122647042Y-133097557D01*
X122589255Y-133056311D01*
X122570402Y-133022763D01*
X122528767Y-132911703D01*
X122525615Y-132903295D01*
X122438261Y-132786739D01*
X122321705Y-132699385D01*
X122185316Y-132648255D01*
X122123134Y-132641500D01*
X121984500Y-132641500D01*
X121916379Y-132621498D01*
X121869886Y-132567842D01*
X121858500Y-132515500D01*
X121858500Y-131132703D01*
X128890743Y-131132703D01*
X128891302Y-131136947D01*
X128891302Y-131136951D01*
X128899107Y-131196233D01*
X128928268Y-131417734D01*
X129004129Y-131695036D01*
X129005813Y-131698984D01*
X129094730Y-131907445D01*
X129116923Y-131959476D01*
X129128693Y-131979142D01*
X129241562Y-132167732D01*
X129264561Y-132206161D01*
X129444313Y-132430528D01*
X129461397Y-132446740D01*
X129645554Y-132621498D01*
X129652851Y-132628423D01*
X129751605Y-132699385D01*
X129877898Y-132790136D01*
X129886317Y-132796186D01*
X129890112Y-132798195D01*
X129890113Y-132798196D01*
X129911869Y-132809715D01*
X130140392Y-132930712D01*
X130164699Y-132939607D01*
X130349515Y-133007240D01*
X130410373Y-133029511D01*
X130691264Y-133090755D01*
X130719841Y-133093004D01*
X130914282Y-133108307D01*
X130914291Y-133108307D01*
X130916739Y-133108500D01*
X131072271Y-133108500D01*
X131074407Y-133108354D01*
X131074418Y-133108354D01*
X131282548Y-133094165D01*
X131282554Y-133094164D01*
X131286825Y-133093873D01*
X131291020Y-133093004D01*
X131291022Y-133093004D01*
X131548495Y-133039684D01*
X131568342Y-133035574D01*
X131839343Y-132939607D01*
X132094812Y-132807750D01*
X132098313Y-132805289D01*
X132098317Y-132805287D01*
X132274240Y-132681646D01*
X132330023Y-132642441D01*
X132410301Y-132567842D01*
X132537479Y-132449661D01*
X132537481Y-132449658D01*
X132540622Y-132446740D01*
X132722713Y-132224268D01*
X132872927Y-131979142D01*
X132988483Y-131715898D01*
X133067244Y-131439406D01*
X133101258Y-131200405D01*
X133107146Y-131159036D01*
X133107146Y-131159034D01*
X133107751Y-131154784D01*
X133107786Y-131148255D01*
X133109235Y-130871583D01*
X133109235Y-130871576D01*
X133109257Y-130867297D01*
X133071732Y-130582266D01*
X132995871Y-130304964D01*
X132955227Y-130209675D01*
X132884763Y-130044476D01*
X132884761Y-130044472D01*
X132883077Y-130040524D01*
X132799562Y-129900980D01*
X132737643Y-129797521D01*
X132737640Y-129797517D01*
X132735439Y-129793839D01*
X132555687Y-129569472D01*
X132347149Y-129371577D01*
X132113683Y-129203814D01*
X132091843Y-129192250D01*
X132023344Y-129155982D01*
X131859608Y-129069288D01*
X131616721Y-128980404D01*
X131593658Y-128971964D01*
X131593656Y-128971963D01*
X131589627Y-128970489D01*
X131308736Y-128909245D01*
X131277685Y-128906801D01*
X131085718Y-128891693D01*
X131085709Y-128891693D01*
X131083261Y-128891500D01*
X130927729Y-128891500D01*
X130925593Y-128891646D01*
X130925582Y-128891646D01*
X130717452Y-128905835D01*
X130717446Y-128905836D01*
X130713175Y-128906127D01*
X130708980Y-128906996D01*
X130708978Y-128906996D01*
X130572417Y-128935276D01*
X130431658Y-128964426D01*
X130160657Y-129060393D01*
X129905188Y-129192250D01*
X129901687Y-129194711D01*
X129901683Y-129194713D01*
X129895131Y-129199318D01*
X129669977Y-129357559D01*
X129654892Y-129371577D01*
X129496213Y-129519031D01*
X129459378Y-129553260D01*
X129277287Y-129775732D01*
X129127073Y-130020858D01*
X129125347Y-130024791D01*
X129125346Y-130024792D01*
X129108750Y-130062598D01*
X129011517Y-130284102D01*
X128932756Y-130560594D01*
X128892249Y-130845216D01*
X128892227Y-130849505D01*
X128892226Y-130849512D01*
X128890765Y-131128417D01*
X128890743Y-131132703D01*
X121858500Y-131132703D01*
X121858500Y-130159244D01*
X121878502Y-130091123D01*
X121932158Y-130044630D01*
X122002432Y-130034526D01*
X122069300Y-130066051D01*
X122080944Y-130076646D01*
X122080948Y-130076649D01*
X122086565Y-130081760D01*
X122237268Y-130163585D01*
X122403139Y-130207101D01*
X122490586Y-130208474D01*
X122567003Y-130209675D01*
X122567006Y-130209675D01*
X122574602Y-130209794D01*
X122582006Y-130208098D01*
X122582008Y-130208098D01*
X122644846Y-130193706D01*
X122741759Y-130171510D01*
X122894958Y-130094459D01*
X122900729Y-130089530D01*
X122900732Y-130089528D01*
X123019578Y-129988023D01*
X123025355Y-129983089D01*
X123125424Y-129843830D01*
X123189385Y-129684720D01*
X123192048Y-129666007D01*
X123212966Y-129519031D01*
X123212966Y-129519027D01*
X123213547Y-129514947D01*
X123213704Y-129500000D01*
X123205013Y-129428179D01*
X123194015Y-129337299D01*
X123194014Y-129337296D01*
X123193102Y-129329758D01*
X123188924Y-129318699D01*
X123141634Y-129193551D01*
X123133500Y-129149013D01*
X123133500Y-127089294D01*
X123517709Y-127089294D01*
X123523132Y-127148315D01*
X123525743Y-127161351D01*
X123572715Y-127311243D01*
X123578921Y-127324988D01*
X123659824Y-127458574D01*
X123669131Y-127470443D01*
X123779557Y-127580869D01*
X123791426Y-127590176D01*
X123925012Y-127671079D01*
X123938757Y-127677285D01*
X124088644Y-127724256D01*
X124101694Y-127726869D01*
X124165521Y-127732734D01*
X124171309Y-127733000D01*
X124227885Y-127733000D01*
X124243124Y-127728525D01*
X124244329Y-127727135D01*
X124246000Y-127719452D01*
X124246000Y-127714884D01*
X124754000Y-127714884D01*
X124758475Y-127730123D01*
X124759865Y-127731328D01*
X124767548Y-127732999D01*
X124828705Y-127732999D01*
X124834454Y-127732736D01*
X124898315Y-127726868D01*
X124911351Y-127724257D01*
X125061243Y-127677285D01*
X125074992Y-127671077D01*
X125184729Y-127604618D01*
X125253358Y-127586439D01*
X125315271Y-127604618D01*
X125425008Y-127671077D01*
X125438757Y-127677285D01*
X125588644Y-127724256D01*
X125601694Y-127726869D01*
X125665521Y-127732734D01*
X125671309Y-127733000D01*
X125727885Y-127733000D01*
X125743124Y-127728525D01*
X125744329Y-127727135D01*
X125746000Y-127719452D01*
X125746000Y-127714884D01*
X126254000Y-127714884D01*
X126258475Y-127730123D01*
X126259865Y-127731328D01*
X126267548Y-127732999D01*
X126328705Y-127732999D01*
X126334454Y-127732736D01*
X126398315Y-127726868D01*
X126411351Y-127724257D01*
X126561243Y-127677285D01*
X126574988Y-127671079D01*
X126708574Y-127590176D01*
X126720443Y-127580869D01*
X126830869Y-127470443D01*
X126840176Y-127458574D01*
X126921079Y-127324988D01*
X126927285Y-127311243D01*
X126974256Y-127161356D01*
X126976869Y-127148306D01*
X126981913Y-127093414D01*
X126978525Y-127081876D01*
X126977135Y-127080671D01*
X126969452Y-127079000D01*
X126272115Y-127079000D01*
X126256876Y-127083475D01*
X126255671Y-127084865D01*
X126254000Y-127092548D01*
X126254000Y-127714884D01*
X125746000Y-127714884D01*
X125746000Y-127097115D01*
X125741525Y-127081876D01*
X125740135Y-127080671D01*
X125732452Y-127079000D01*
X124772115Y-127079000D01*
X124756876Y-127083475D01*
X124755671Y-127084865D01*
X124754000Y-127092548D01*
X124754000Y-127714884D01*
X124246000Y-127714884D01*
X124246000Y-127097115D01*
X124241525Y-127081876D01*
X124240135Y-127080671D01*
X124232452Y-127079000D01*
X123535116Y-127079000D01*
X123519877Y-127083475D01*
X123518672Y-127084865D01*
X123517709Y-127089294D01*
X123133500Y-127089294D01*
X123133500Y-125979614D01*
X123153502Y-125911493D01*
X123207158Y-125865000D01*
X123277432Y-125854896D01*
X123291475Y-125857739D01*
X123325441Y-125866650D01*
X123325446Y-125866651D01*
X123332796Y-125868579D01*
X123420243Y-125869952D01*
X123496660Y-125871153D01*
X123496663Y-125871153D01*
X123504259Y-125871272D01*
X123611249Y-125846768D01*
X123682115Y-125851057D01*
X123728473Y-125880493D01*
X123759239Y-125911259D01*
X123793265Y-125973571D01*
X123788200Y-126044386D01*
X123759239Y-126089449D01*
X123669131Y-126179557D01*
X123659824Y-126191426D01*
X123578921Y-126325012D01*
X123572715Y-126338757D01*
X123525744Y-126488644D01*
X123523131Y-126501694D01*
X123518087Y-126556586D01*
X123521475Y-126568124D01*
X123522865Y-126569329D01*
X123530548Y-126571000D01*
X126964884Y-126571000D01*
X126980123Y-126566525D01*
X126981328Y-126565135D01*
X126982291Y-126560706D01*
X126976868Y-126501685D01*
X126974257Y-126488649D01*
X126927285Y-126338757D01*
X126921079Y-126325012D01*
X126840176Y-126191426D01*
X126830869Y-126179557D01*
X126740761Y-126089449D01*
X126706735Y-126027137D01*
X126711800Y-125956322D01*
X126740761Y-125911259D01*
X126836639Y-125815381D01*
X126925472Y-125668699D01*
X126932583Y-125646010D01*
X126957388Y-125566854D01*
X126976753Y-125505062D01*
X126983500Y-125431635D01*
X126983499Y-124918366D01*
X126976753Y-124844938D01*
X126925472Y-124681301D01*
X126855202Y-124565270D01*
X126837023Y-124496642D01*
X126855202Y-124434729D01*
X126862565Y-124422572D01*
X126925472Y-124318699D01*
X126939090Y-124275246D01*
X126963865Y-124196186D01*
X126976753Y-124155062D01*
X126983500Y-124081635D01*
X126983499Y-123568366D01*
X126983234Y-123565474D01*
X126978006Y-123508580D01*
X126976753Y-123494938D01*
X126960696Y-123443699D01*
X126927744Y-123338550D01*
X126927743Y-123338548D01*
X126925472Y-123331301D01*
X126836639Y-123184619D01*
X126741115Y-123089095D01*
X126707089Y-123026783D01*
X126712154Y-122955968D01*
X126741115Y-122910905D01*
X126836639Y-122815381D01*
X126925472Y-122668699D01*
X126929361Y-122656291D01*
X126952592Y-122582158D01*
X126976753Y-122505062D01*
X126983500Y-122431635D01*
X126983499Y-122034729D01*
X127003501Y-121966610D01*
X127057156Y-121920117D01*
X127127430Y-121910012D01*
X127192011Y-121939505D01*
X127201476Y-121949394D01*
X127201522Y-121949348D01*
X127326697Y-122074305D01*
X127332927Y-122078145D01*
X127356618Y-122092749D01*
X127404110Y-122145522D01*
X127416500Y-122200008D01*
X127416500Y-122533733D01*
X127415973Y-122544916D01*
X127414298Y-122552409D01*
X127414547Y-122560335D01*
X127414547Y-122560336D01*
X127416438Y-122620486D01*
X127416500Y-122624445D01*
X127416500Y-122652356D01*
X127416997Y-122656290D01*
X127416997Y-122656291D01*
X127417005Y-122656356D01*
X127417938Y-122668193D01*
X127419327Y-122712389D01*
X127422583Y-122723595D01*
X127424978Y-122731839D01*
X127428987Y-122751200D01*
X127431526Y-122771297D01*
X127434445Y-122778668D01*
X127434445Y-122778670D01*
X127447804Y-122812412D01*
X127451649Y-122823642D01*
X127452078Y-122825119D01*
X127463982Y-122866093D01*
X127468015Y-122872913D01*
X127468018Y-122872919D01*
X127473953Y-122882954D01*
X127491500Y-122947093D01*
X127491500Y-123429572D01*
X127491837Y-123432818D01*
X127491837Y-123432822D01*
X127492372Y-123437980D01*
X127502022Y-123530982D01*
X127555692Y-123691849D01*
X127644929Y-123836055D01*
X127764947Y-123955864D01*
X127909308Y-124044849D01*
X127916256Y-124047154D01*
X127916257Y-124047154D01*
X128063738Y-124096072D01*
X128063740Y-124096072D01*
X128070269Y-124098238D01*
X128170428Y-124108500D01*
X128704572Y-124108500D01*
X128707818Y-124108163D01*
X128707822Y-124108163D01*
X128741603Y-124104658D01*
X128805982Y-124097978D01*
X128966849Y-124044308D01*
X129111055Y-123955071D01*
X129230864Y-123835053D01*
X129235339Y-123827794D01*
X129272551Y-123767424D01*
X129319849Y-123690692D01*
X129324886Y-123675507D01*
X129371072Y-123536262D01*
X129371072Y-123536260D01*
X129373238Y-123529731D01*
X129374712Y-123515344D01*
X129401554Y-123449617D01*
X129459669Y-123408836D01*
X129530607Y-123405948D01*
X129591845Y-123441870D01*
X129623941Y-123505198D01*
X129625383Y-123515186D01*
X129626310Y-123524124D01*
X129626311Y-123524128D01*
X129627022Y-123530982D01*
X129629204Y-123537522D01*
X129678375Y-123684905D01*
X129678376Y-123684907D01*
X129680692Y-123691849D01*
X129691395Y-123709144D01*
X129710232Y-123777594D01*
X129689071Y-123845364D01*
X129642040Y-123887412D01*
X129598839Y-123909709D01*
X129469615Y-124022439D01*
X129371010Y-124162739D01*
X129342826Y-124235027D01*
X129313030Y-124311450D01*
X129308718Y-124322509D01*
X129307726Y-124330042D01*
X129307726Y-124330043D01*
X129287697Y-124482182D01*
X129286335Y-124492526D01*
X129305153Y-124662975D01*
X129364085Y-124824015D01*
X129368322Y-124830321D01*
X129368324Y-124830324D01*
X129381545Y-124849998D01*
X129459730Y-124966349D01*
X129586565Y-125081760D01*
X129737268Y-125163585D01*
X129903139Y-125207101D01*
X129990586Y-125208474D01*
X130067003Y-125209675D01*
X130067006Y-125209675D01*
X130074602Y-125209794D01*
X130082006Y-125208098D01*
X130082008Y-125208098D01*
X130144846Y-125193706D01*
X130241759Y-125171510D01*
X130394958Y-125094459D01*
X130400729Y-125089530D01*
X130400732Y-125089528D01*
X130519578Y-124988023D01*
X130525355Y-124983089D01*
X130598470Y-124881340D01*
X130620992Y-124849998D01*
X130620993Y-124849997D01*
X130625424Y-124843830D01*
X130665127Y-124745064D01*
X130692940Y-124702964D01*
X130954758Y-124441147D01*
X130963037Y-124433613D01*
X130969518Y-124429500D01*
X131016144Y-124379848D01*
X131018898Y-124377007D01*
X131038635Y-124357270D01*
X131041115Y-124354073D01*
X131048820Y-124345051D01*
X131049732Y-124344080D01*
X131079086Y-124312821D01*
X131082905Y-124305875D01*
X131082907Y-124305872D01*
X131088848Y-124295066D01*
X131099699Y-124278547D01*
X131102259Y-124275246D01*
X131112114Y-124262541D01*
X131115259Y-124255272D01*
X131115262Y-124255268D01*
X131129674Y-124221963D01*
X131134891Y-124211313D01*
X131156195Y-124172560D01*
X131161233Y-124152937D01*
X131167637Y-124134234D01*
X131172533Y-124122920D01*
X131172533Y-124122919D01*
X131175681Y-124115645D01*
X131176920Y-124107822D01*
X131176923Y-124107812D01*
X131182599Y-124071976D01*
X131185005Y-124060356D01*
X131195703Y-124018687D01*
X131232016Y-123957680D01*
X131232474Y-123957287D01*
X131236055Y-123955071D01*
X131355864Y-123835053D01*
X131359705Y-123828822D01*
X131443190Y-123693384D01*
X131495962Y-123645891D01*
X131550450Y-123633500D01*
X131921233Y-123633500D01*
X131932416Y-123634027D01*
X131939909Y-123635702D01*
X131947835Y-123635453D01*
X131947836Y-123635453D01*
X132007986Y-123633562D01*
X132011945Y-123633500D01*
X132039856Y-123633500D01*
X132043791Y-123633003D01*
X132043856Y-123632995D01*
X132055693Y-123632062D01*
X132087951Y-123631048D01*
X132091970Y-123630922D01*
X132099889Y-123630673D01*
X132119343Y-123625021D01*
X132138700Y-123621013D01*
X132150930Y-123619468D01*
X132150931Y-123619468D01*
X132158797Y-123618474D01*
X132166168Y-123615555D01*
X132166170Y-123615555D01*
X132199912Y-123602196D01*
X132211142Y-123598351D01*
X132245983Y-123588229D01*
X132245984Y-123588229D01*
X132253593Y-123586018D01*
X132260412Y-123581985D01*
X132260417Y-123581983D01*
X132271028Y-123575707D01*
X132288776Y-123567012D01*
X132307617Y-123559552D01*
X132315909Y-123553528D01*
X132343387Y-123533564D01*
X132353307Y-123527048D01*
X132384535Y-123508580D01*
X132384538Y-123508578D01*
X132391362Y-123504542D01*
X132405683Y-123490221D01*
X132420717Y-123477380D01*
X132430694Y-123470131D01*
X132437107Y-123465472D01*
X132465298Y-123431395D01*
X132473288Y-123422616D01*
X134385129Y-121510776D01*
X134447441Y-121476750D01*
X134495021Y-121476355D01*
X134495030Y-121476257D01*
X134496004Y-121476347D01*
X134498958Y-121476322D01*
X134501691Y-121476869D01*
X134556586Y-121481913D01*
X134568124Y-121478525D01*
X134569329Y-121477135D01*
X134571000Y-121469452D01*
X134571000Y-121308693D01*
X134586584Y-121247994D01*
X134593695Y-121235060D01*
X134598733Y-121215437D01*
X134605137Y-121196734D01*
X134610033Y-121185420D01*
X134610033Y-121185419D01*
X134613181Y-121178145D01*
X134614420Y-121170322D01*
X134614423Y-121170312D01*
X134620099Y-121134476D01*
X134622505Y-121122856D01*
X134631528Y-121087711D01*
X134631528Y-121087710D01*
X134633500Y-121080030D01*
X134633500Y-121059776D01*
X134635051Y-121040065D01*
X134636980Y-121027886D01*
X134638220Y-121020057D01*
X134634059Y-120976038D01*
X134633500Y-120964181D01*
X134633500Y-119943050D01*
X134634027Y-119931867D01*
X134635702Y-119924374D01*
X134635192Y-119908131D01*
X134633562Y-119856297D01*
X134633500Y-119852338D01*
X134633500Y-119824427D01*
X134632995Y-119820427D01*
X134632062Y-119808584D01*
X134631863Y-119802233D01*
X134630673Y-119764394D01*
X134625021Y-119744940D01*
X134621013Y-119725583D01*
X134619468Y-119713353D01*
X134619468Y-119713352D01*
X134618474Y-119705486D01*
X134606878Y-119676198D01*
X134602196Y-119664371D01*
X134598351Y-119653141D01*
X134588230Y-119618304D01*
X134586018Y-119610690D01*
X134581981Y-119603864D01*
X134581363Y-119602436D01*
X134571000Y-119552395D01*
X134571000Y-119535116D01*
X134566525Y-119519877D01*
X134551796Y-119507114D01*
X134515831Y-119487475D01*
X134507684Y-119478233D01*
X134504542Y-119472921D01*
X134490221Y-119458600D01*
X134477380Y-119443566D01*
X134475006Y-119440298D01*
X134465472Y-119427176D01*
X134431395Y-119398985D01*
X134422616Y-119390995D01*
X134204715Y-119173094D01*
X134170689Y-119110782D01*
X134175754Y-119039967D01*
X134218301Y-118983131D01*
X134284821Y-118958320D01*
X134293810Y-118957999D01*
X134522095Y-118957999D01*
X134528614Y-118957662D01*
X134624206Y-118947743D01*
X134637600Y-118944851D01*
X134791784Y-118893412D01*
X134804962Y-118887239D01*
X134942807Y-118801937D01*
X134954208Y-118792901D01*
X135068739Y-118678171D01*
X135077751Y-118666760D01*
X135162816Y-118528757D01*
X135168963Y-118515576D01*
X135220138Y-118361290D01*
X135223005Y-118347914D01*
X135232672Y-118253562D01*
X135233000Y-118247146D01*
X135233000Y-118222115D01*
X135228525Y-118206876D01*
X135227135Y-118205671D01*
X135219452Y-118204000D01*
X133872000Y-118204000D01*
X133803879Y-118183998D01*
X133757386Y-118130342D01*
X133746000Y-118078000D01*
X133746000Y-117822000D01*
X133766002Y-117753879D01*
X133819658Y-117707386D01*
X133872000Y-117696000D01*
X135214884Y-117696000D01*
X135230123Y-117691525D01*
X135231328Y-117690135D01*
X135232999Y-117682452D01*
X135232999Y-117652905D01*
X135232662Y-117646386D01*
X135222743Y-117550794D01*
X135219851Y-117537400D01*
X135168412Y-117383216D01*
X135162239Y-117370038D01*
X135076937Y-117232193D01*
X135067901Y-117220792D01*
X134953172Y-117106262D01*
X134944238Y-117099206D01*
X134903177Y-117041288D01*
X134899947Y-116970365D01*
X134935574Y-116908954D01*
X134943407Y-116902154D01*
X134949348Y-116898478D01*
X135074305Y-116773303D01*
X135083739Y-116757999D01*
X135163275Y-116628968D01*
X135163276Y-116628966D01*
X135167115Y-116622738D01*
X135206965Y-116502593D01*
X135220632Y-116461389D01*
X135220632Y-116461387D01*
X135222797Y-116454861D01*
X135233500Y-116350400D01*
X135233500Y-115764594D01*
X135253502Y-115696473D01*
X135270405Y-115675499D01*
X135276405Y-115669499D01*
X135338717Y-115635473D01*
X135409532Y-115640538D01*
G37*
%TD.AperFunction*%
%TA.AperFunction,Conductor*%
G36*
X97871094Y-125485182D02*
G01*
X97871492Y-125484669D01*
X97871494Y-125484671D01*
X97874691Y-125487151D01*
X97883711Y-125494854D01*
X97915943Y-125525122D01*
X97922889Y-125528941D01*
X97922892Y-125528943D01*
X97933698Y-125534884D01*
X97950217Y-125545735D01*
X97966223Y-125558150D01*
X97973492Y-125561295D01*
X97973496Y-125561298D01*
X98006801Y-125575710D01*
X98017451Y-125580927D01*
X98056204Y-125602231D01*
X98063879Y-125604202D01*
X98063880Y-125604202D01*
X98075826Y-125607269D01*
X98094531Y-125613673D01*
X98113119Y-125621717D01*
X98120942Y-125622956D01*
X98120952Y-125622959D01*
X98156788Y-125628635D01*
X98168408Y-125631041D01*
X98203553Y-125640064D01*
X98211234Y-125642036D01*
X98231488Y-125642036D01*
X98251198Y-125643587D01*
X98271207Y-125646756D01*
X98279099Y-125646010D01*
X98315225Y-125642595D01*
X98327083Y-125642036D01*
X99198754Y-125642036D01*
X99266875Y-125662038D01*
X99313368Y-125715694D01*
X99322064Y-125773743D01*
X99324166Y-125773765D01*
X99324087Y-125781360D01*
X99323095Y-125788892D01*
X99329485Y-125846768D01*
X99339407Y-125936639D01*
X99341913Y-125959341D01*
X99344522Y-125966472D01*
X99344523Y-125966474D01*
X99383734Y-126073622D01*
X99388360Y-126144467D01*
X99353950Y-126206568D01*
X99291429Y-126240207D01*
X99265408Y-126242923D01*
X98191018Y-126242923D01*
X98122897Y-126222921D01*
X98101922Y-126206018D01*
X97701527Y-125805622D01*
X97667502Y-125743310D01*
X97664623Y-125716527D01*
X97664623Y-125581017D01*
X97684625Y-125512896D01*
X97738281Y-125466403D01*
X97808555Y-125456299D01*
X97871094Y-125485182D01*
G37*
%TD.AperFunction*%
%TA.AperFunction,Conductor*%
G36*
X131798467Y-119908131D02*
G01*
X131798471Y-119908131D01*
X131801866Y-119908500D01*
X132160145Y-119908500D01*
X132228266Y-119928502D01*
X132274759Y-119982158D01*
X132284863Y-120052432D01*
X132280381Y-120072173D01*
X132273247Y-120094938D01*
X132266500Y-120168365D01*
X132266501Y-120831634D01*
X132273247Y-120905062D01*
X132275246Y-120911440D01*
X132275246Y-120911441D01*
X132321732Y-121059776D01*
X132324528Y-121068699D01*
X132413361Y-121215381D01*
X132534619Y-121336639D01*
X132541123Y-121340578D01*
X132542184Y-121341221D01*
X132542796Y-121341890D01*
X132547096Y-121345262D01*
X132546534Y-121345979D01*
X132590089Y-121393620D01*
X132602061Y-121463600D01*
X132574298Y-121528943D01*
X132566005Y-121538090D01*
X131848595Y-122255500D01*
X131786283Y-122289526D01*
X131715468Y-122284461D01*
X131658632Y-122241914D01*
X131633821Y-122175394D01*
X131633500Y-122166405D01*
X131633500Y-120030639D01*
X131653502Y-119962518D01*
X131707158Y-119916025D01*
X131773107Y-119905376D01*
X131798467Y-119908131D01*
G37*
%TD.AperFunction*%
%TA.AperFunction,Conductor*%
G36*
X126345356Y-105077163D02*
G01*
X126394604Y-105122769D01*
X126426522Y-105174348D01*
X126551697Y-105299305D01*
X126557927Y-105303145D01*
X126557928Y-105303146D01*
X126695090Y-105387694D01*
X126702262Y-105392115D01*
X126782005Y-105418564D01*
X126863611Y-105445632D01*
X126863613Y-105445632D01*
X126870139Y-105447797D01*
X126876975Y-105448497D01*
X126876978Y-105448498D01*
X126920031Y-105452909D01*
X126974600Y-105458500D01*
X128025400Y-105458500D01*
X128028646Y-105458163D01*
X128028650Y-105458163D01*
X128124308Y-105448238D01*
X128124312Y-105448237D01*
X128131166Y-105447526D01*
X128137702Y-105445345D01*
X128137704Y-105445345D01*
X128288605Y-105395000D01*
X128298946Y-105391550D01*
X128449348Y-105298478D01*
X128574305Y-105173303D01*
X128592749Y-105143382D01*
X128645522Y-105095890D01*
X128700008Y-105083500D01*
X134135406Y-105083500D01*
X134203527Y-105103502D01*
X134224501Y-105120405D01*
X134329595Y-105225499D01*
X134363621Y-105287811D01*
X134366500Y-105314594D01*
X134366500Y-105633048D01*
X134346498Y-105701169D01*
X134292842Y-105747662D01*
X134222568Y-105757766D01*
X134174385Y-105740308D01*
X134128762Y-105712186D01*
X134115576Y-105706037D01*
X133961290Y-105654862D01*
X133947914Y-105651995D01*
X133853562Y-105642328D01*
X133847145Y-105642000D01*
X133322115Y-105642000D01*
X133306876Y-105646475D01*
X133305671Y-105647865D01*
X133304000Y-105655548D01*
X133304000Y-107128000D01*
X133283998Y-107196121D01*
X133230342Y-107242614D01*
X133178000Y-107254000D01*
X131560116Y-107254000D01*
X131544877Y-107258475D01*
X131543672Y-107259865D01*
X131542001Y-107267548D01*
X131542001Y-107647095D01*
X131542338Y-107653614D01*
X131552257Y-107749206D01*
X131555149Y-107762600D01*
X131606588Y-107916784D01*
X131612761Y-107929962D01*
X131698063Y-108067807D01*
X131707099Y-108079208D01*
X131821829Y-108193739D01*
X131833243Y-108202753D01*
X131972713Y-108288723D01*
X132020207Y-108341495D01*
X132031631Y-108411566D01*
X132003357Y-108476690D01*
X131993574Y-108487149D01*
X131878865Y-108596576D01*
X131741246Y-108781542D01*
X131738830Y-108786293D01*
X131738828Y-108786297D01*
X131703148Y-108856475D01*
X131636760Y-108987051D01*
X131568393Y-109207227D01*
X131567692Y-109212516D01*
X131540702Y-109416158D01*
X131538102Y-109435774D01*
X131538302Y-109441103D01*
X131538302Y-109441105D01*
X131540389Y-109496705D01*
X131546751Y-109666158D01*
X131594093Y-109891791D01*
X131596051Y-109896750D01*
X131596052Y-109896752D01*
X131659475Y-110057347D01*
X131678776Y-110106221D01*
X131681543Y-110110780D01*
X131681544Y-110110783D01*
X131746883Y-110218458D01*
X131798377Y-110303317D01*
X131949477Y-110477445D01*
X131949275Y-110477620D01*
X131982912Y-110537235D01*
X131978833Y-110608114D01*
X131949271Y-110654824D01*
X130557747Y-112046348D01*
X130549461Y-112053888D01*
X130542982Y-112058000D01*
X130537557Y-112063777D01*
X130496357Y-112107651D01*
X130493602Y-112110493D01*
X130473865Y-112130230D01*
X130471385Y-112133427D01*
X130463682Y-112142447D01*
X130433414Y-112174679D01*
X130429595Y-112181625D01*
X130429593Y-112181628D01*
X130423652Y-112192434D01*
X130412801Y-112208953D01*
X130400386Y-112224959D01*
X130397241Y-112232228D01*
X130397238Y-112232232D01*
X130382826Y-112265537D01*
X130377609Y-112276187D01*
X130356305Y-112314940D01*
X130354334Y-112322615D01*
X130354334Y-112322616D01*
X130351267Y-112334562D01*
X130344863Y-112353266D01*
X130336819Y-112371855D01*
X130335580Y-112379678D01*
X130335577Y-112379688D01*
X130329901Y-112415524D01*
X130327495Y-112427144D01*
X130316500Y-112469970D01*
X130316500Y-112490224D01*
X130314949Y-112509934D01*
X130311780Y-112529943D01*
X130312526Y-112537835D01*
X130315941Y-112573961D01*
X130316500Y-112585819D01*
X130316500Y-112800101D01*
X130296498Y-112868222D01*
X130256803Y-112907245D01*
X130225652Y-112926522D01*
X130100695Y-113051697D01*
X130097898Y-113056235D01*
X130040647Y-113096824D01*
X129969724Y-113100054D01*
X129908313Y-113064428D01*
X129900938Y-113055932D01*
X129892902Y-113045793D01*
X129778171Y-112931261D01*
X129766760Y-112922249D01*
X129628757Y-112837184D01*
X129615576Y-112831037D01*
X129461290Y-112779862D01*
X129447914Y-112776995D01*
X129353562Y-112767328D01*
X129347145Y-112767000D01*
X129322115Y-112767000D01*
X129306876Y-112771475D01*
X129305671Y-112772865D01*
X129304000Y-112780548D01*
X129304000Y-114128000D01*
X129283998Y-114196121D01*
X129230342Y-114242614D01*
X129178000Y-114254000D01*
X128060116Y-114254000D01*
X128044877Y-114258475D01*
X128043672Y-114259865D01*
X128042001Y-114267548D01*
X128042001Y-114290020D01*
X128021999Y-114358141D01*
X127968343Y-114404634D01*
X127918513Y-114415474D01*
X127918532Y-114415772D01*
X127916575Y-114415895D01*
X127916001Y-114416020D01*
X127910624Y-114416020D01*
X127906690Y-114416517D01*
X127906689Y-114416517D01*
X127906624Y-114416525D01*
X127894787Y-114417458D01*
X127862970Y-114418458D01*
X127858509Y-114418598D01*
X127850590Y-114418847D01*
X127832934Y-114423976D01*
X127831138Y-114424498D01*
X127811786Y-114428506D01*
X127804715Y-114429400D01*
X127791683Y-114431046D01*
X127784314Y-114433963D01*
X127784312Y-114433964D01*
X127750577Y-114447320D01*
X127739349Y-114451165D01*
X127696887Y-114463502D01*
X127690065Y-114467536D01*
X127690059Y-114467539D01*
X127679448Y-114473814D01*
X127661698Y-114482510D01*
X127650236Y-114487048D01*
X127650231Y-114487051D01*
X127642863Y-114489968D01*
X127636448Y-114494629D01*
X127607105Y-114515947D01*
X127597187Y-114522463D01*
X127586814Y-114528598D01*
X127559117Y-114544978D01*
X127544793Y-114559302D01*
X127529761Y-114572141D01*
X127513373Y-114584048D01*
X127485192Y-114618113D01*
X127477202Y-114626893D01*
X125607747Y-116496348D01*
X125599461Y-116503888D01*
X125592982Y-116508000D01*
X125587557Y-116513777D01*
X125546357Y-116557651D01*
X125543602Y-116560493D01*
X125523865Y-116580230D01*
X125521385Y-116583427D01*
X125513682Y-116592447D01*
X125483414Y-116624679D01*
X125479595Y-116631625D01*
X125479593Y-116631628D01*
X125473652Y-116642434D01*
X125462801Y-116658953D01*
X125450386Y-116674959D01*
X125447241Y-116682228D01*
X125447238Y-116682232D01*
X125432826Y-116715537D01*
X125427609Y-116726187D01*
X125406305Y-116764940D01*
X125404334Y-116772615D01*
X125404334Y-116772616D01*
X125401267Y-116784562D01*
X125394863Y-116803266D01*
X125386819Y-116821855D01*
X125385580Y-116829678D01*
X125385577Y-116829688D01*
X125379901Y-116865524D01*
X125377495Y-116877144D01*
X125370891Y-116902866D01*
X125366500Y-116919970D01*
X125366500Y-116940224D01*
X125364949Y-116959934D01*
X125361780Y-116979943D01*
X125362526Y-116987835D01*
X125365941Y-117023961D01*
X125366500Y-117035819D01*
X125366500Y-121292775D01*
X125346498Y-121360896D01*
X125305771Y-121400551D01*
X125284619Y-121413361D01*
X125193385Y-121504595D01*
X125131073Y-121538621D01*
X125104290Y-121541500D01*
X124403768Y-121541500D01*
X124392585Y-121540973D01*
X124385092Y-121539298D01*
X124377166Y-121539547D01*
X124377165Y-121539547D01*
X124317002Y-121541438D01*
X124313044Y-121541500D01*
X124285144Y-121541500D01*
X124281154Y-121542004D01*
X124269320Y-121542936D01*
X124225111Y-121544326D01*
X124217497Y-121546538D01*
X124217492Y-121546539D01*
X124205659Y-121549977D01*
X124186296Y-121553988D01*
X124166203Y-121556526D01*
X124158836Y-121559443D01*
X124158831Y-121559444D01*
X124125092Y-121572802D01*
X124113865Y-121576646D01*
X124071407Y-121588982D01*
X124064584Y-121593017D01*
X124059542Y-121595199D01*
X123989080Y-121603897D01*
X123925102Y-121573120D01*
X123887919Y-121512639D01*
X123883500Y-121479563D01*
X123883500Y-121084500D01*
X123903502Y-121016379D01*
X123957158Y-120969886D01*
X124009500Y-120958500D01*
X124048134Y-120958500D01*
X124110316Y-120951745D01*
X124246705Y-120900615D01*
X124363261Y-120813261D01*
X124450615Y-120696705D01*
X124501745Y-120560316D01*
X124508500Y-120498134D01*
X124508500Y-119501866D01*
X124501745Y-119439684D01*
X124490328Y-119409229D01*
X124485145Y-119338423D01*
X124490326Y-119320776D01*
X124501745Y-119290316D01*
X124508500Y-119228134D01*
X124508500Y-118231866D01*
X124501745Y-118169684D01*
X124490328Y-118139229D01*
X124485145Y-118068423D01*
X124490326Y-118050776D01*
X124501745Y-118020316D01*
X124508500Y-117958134D01*
X124508500Y-116961866D01*
X124501745Y-116899684D01*
X124490328Y-116869229D01*
X124485145Y-116798423D01*
X124490326Y-116780776D01*
X124501745Y-116750316D01*
X124508500Y-116688134D01*
X124508500Y-115691866D01*
X124501745Y-115629684D01*
X124490328Y-115599229D01*
X124485145Y-115528423D01*
X124490326Y-115510776D01*
X124501745Y-115480316D01*
X124508500Y-115418134D01*
X124508500Y-114421866D01*
X124501745Y-114359684D01*
X124490328Y-114329229D01*
X124485145Y-114258423D01*
X124490326Y-114240776D01*
X124501745Y-114210316D01*
X124508500Y-114148134D01*
X124508500Y-113727885D01*
X128042000Y-113727885D01*
X128046475Y-113743124D01*
X128047865Y-113744329D01*
X128055548Y-113746000D01*
X128777885Y-113746000D01*
X128793124Y-113741525D01*
X128794329Y-113740135D01*
X128796000Y-113732452D01*
X128796000Y-112785116D01*
X128791525Y-112769877D01*
X128790135Y-112768672D01*
X128782452Y-112767001D01*
X128752905Y-112767001D01*
X128746386Y-112767338D01*
X128650794Y-112777257D01*
X128637400Y-112780149D01*
X128483216Y-112831588D01*
X128470038Y-112837761D01*
X128332193Y-112923063D01*
X128320792Y-112932099D01*
X128206261Y-113046829D01*
X128197249Y-113058240D01*
X128112184Y-113196243D01*
X128106037Y-113209424D01*
X128054862Y-113363710D01*
X128051995Y-113377086D01*
X128042328Y-113471438D01*
X128042000Y-113477855D01*
X128042000Y-113727885D01*
X124508500Y-113727885D01*
X124508500Y-113151866D01*
X124501745Y-113089684D01*
X124490328Y-113059229D01*
X124485145Y-112988423D01*
X124490328Y-112970770D01*
X124490329Y-112970769D01*
X124497963Y-112950404D01*
X124540605Y-112893639D01*
X124607167Y-112868940D01*
X124676515Y-112884148D01*
X124716771Y-112919069D01*
X124781715Y-113005724D01*
X124794276Y-113018285D01*
X124896351Y-113094786D01*
X124911946Y-113103324D01*
X125032394Y-113148478D01*
X125047649Y-113152105D01*
X125098514Y-113157631D01*
X125105328Y-113158000D01*
X125727885Y-113158000D01*
X125743124Y-113153525D01*
X125744329Y-113152135D01*
X125746000Y-113144452D01*
X125746000Y-113139884D01*
X126254000Y-113139884D01*
X126258475Y-113155123D01*
X126259865Y-113156328D01*
X126267548Y-113157999D01*
X126894669Y-113157999D01*
X126901490Y-113157629D01*
X126952352Y-113152105D01*
X126967604Y-113148479D01*
X127088054Y-113103324D01*
X127103649Y-113094786D01*
X127205724Y-113018285D01*
X127218285Y-113005724D01*
X127294786Y-112903649D01*
X127303324Y-112888054D01*
X127348478Y-112767606D01*
X127352105Y-112752351D01*
X127357631Y-112701486D01*
X127358000Y-112694672D01*
X127358000Y-112472115D01*
X127353525Y-112456876D01*
X127352135Y-112455671D01*
X127344452Y-112454000D01*
X126272115Y-112454000D01*
X126256876Y-112458475D01*
X126255671Y-112459865D01*
X126254000Y-112467548D01*
X126254000Y-113139884D01*
X125746000Y-113139884D01*
X125746000Y-112072000D01*
X125766002Y-112003879D01*
X125819658Y-111957386D01*
X125872000Y-111946000D01*
X127339884Y-111946000D01*
X127355123Y-111941525D01*
X127356328Y-111940135D01*
X127357999Y-111932452D01*
X127357999Y-111705331D01*
X127357629Y-111698510D01*
X127352105Y-111647648D01*
X127348479Y-111632396D01*
X127303324Y-111511946D01*
X127294786Y-111496351D01*
X127218285Y-111394276D01*
X127205724Y-111381715D01*
X127103649Y-111305214D01*
X127088054Y-111296676D01*
X126967606Y-111251522D01*
X126952351Y-111247895D01*
X126901486Y-111242369D01*
X126894672Y-111242000D01*
X126831162Y-111242000D01*
X126763041Y-111221998D01*
X126716548Y-111168342D01*
X126706444Y-111098068D01*
X126729226Y-111041939D01*
X126787237Y-110962094D01*
X126787238Y-110962093D01*
X126791118Y-110956752D01*
X126818853Y-110894459D01*
X126866109Y-110788319D01*
X126866109Y-110788318D01*
X126868794Y-110782288D01*
X126895287Y-110657648D01*
X126907128Y-110601944D01*
X126907128Y-110601939D01*
X126908500Y-110595487D01*
X126908500Y-110404513D01*
X126906357Y-110394427D01*
X126886021Y-110298757D01*
X126868794Y-110217712D01*
X126840171Y-110153424D01*
X126793803Y-110049278D01*
X126793802Y-110049276D01*
X126791118Y-110043248D01*
X126729589Y-109958561D01*
X126705731Y-109891693D01*
X126721811Y-109822542D01*
X126772725Y-109773062D01*
X126831525Y-109758500D01*
X126898134Y-109758500D01*
X126960316Y-109751745D01*
X127096705Y-109700615D01*
X127213261Y-109613261D01*
X127300615Y-109496705D01*
X127351745Y-109360316D01*
X127358500Y-109298134D01*
X127358500Y-108301866D01*
X127351745Y-108239684D01*
X127300615Y-108103295D01*
X127213261Y-107986739D01*
X127096705Y-107899385D01*
X126960316Y-107848255D01*
X126898134Y-107841500D01*
X125789595Y-107841500D01*
X125721474Y-107821498D01*
X125700499Y-107804595D01*
X125370884Y-107474979D01*
X125336859Y-107412667D01*
X125333980Y-107385884D01*
X125333980Y-106727885D01*
X131542000Y-106727885D01*
X131546475Y-106743124D01*
X131547865Y-106744329D01*
X131555548Y-106746000D01*
X132777885Y-106746000D01*
X132793124Y-106741525D01*
X132794329Y-106740135D01*
X132796000Y-106732452D01*
X132796000Y-105660116D01*
X132791525Y-105644877D01*
X132790135Y-105643672D01*
X132782452Y-105642001D01*
X132252905Y-105642001D01*
X132246386Y-105642338D01*
X132150794Y-105652257D01*
X132137400Y-105655149D01*
X131983216Y-105706588D01*
X131970038Y-105712761D01*
X131832193Y-105798063D01*
X131820792Y-105807099D01*
X131706261Y-105921829D01*
X131697249Y-105933240D01*
X131612184Y-106071243D01*
X131606037Y-106084424D01*
X131554862Y-106238710D01*
X131551995Y-106252086D01*
X131542328Y-106346438D01*
X131542000Y-106352855D01*
X131542000Y-106727885D01*
X125333980Y-106727885D01*
X125333980Y-106334009D01*
X125353982Y-106265888D01*
X125407638Y-106219395D01*
X125461959Y-106208025D01*
X125567003Y-106209675D01*
X125567006Y-106209675D01*
X125574602Y-106209794D01*
X125582006Y-106208098D01*
X125582008Y-106208098D01*
X125644846Y-106193706D01*
X125741759Y-106171510D01*
X125894958Y-106094459D01*
X125900729Y-106089530D01*
X125900732Y-106089528D01*
X126019578Y-105988023D01*
X126025355Y-105983089D01*
X126125424Y-105843830D01*
X126189385Y-105684720D01*
X126194828Y-105646475D01*
X126212966Y-105519031D01*
X126212966Y-105519027D01*
X126213547Y-105514947D01*
X126213704Y-105500000D01*
X126201174Y-105396462D01*
X126194015Y-105337299D01*
X126194014Y-105337296D01*
X126193102Y-105329758D01*
X126190417Y-105322651D01*
X126159534Y-105240921D01*
X126154166Y-105170128D01*
X126187924Y-105107671D01*
X126203200Y-105095641D01*
X126202903Y-105095263D01*
X126208881Y-105090576D01*
X126210430Y-105089637D01*
X126211229Y-105089319D01*
X126212136Y-105088604D01*
X126215381Y-105086639D01*
X126215382Y-105086638D01*
X126215392Y-105086632D01*
X126215893Y-105087459D01*
X126275661Y-105063629D01*
X126345356Y-105077163D01*
G37*
%TD.AperFunction*%
%TA.AperFunction,Conductor*%
G36*
X129284121Y-115703022D02*
G01*
X129330614Y-115756678D01*
X129342000Y-115809020D01*
X129342000Y-115831885D01*
X129346475Y-115847124D01*
X129347865Y-115848329D01*
X129355548Y-115850000D01*
X129715500Y-115850000D01*
X129783621Y-115870002D01*
X129830114Y-115923658D01*
X129841500Y-115976000D01*
X129841500Y-116024000D01*
X129821498Y-116092121D01*
X129767842Y-116138614D01*
X129715500Y-116150000D01*
X129360116Y-116150000D01*
X129344877Y-116154475D01*
X129343672Y-116155865D01*
X129342001Y-116163548D01*
X129342001Y-116293634D01*
X129321999Y-116361755D01*
X129316828Y-116369198D01*
X129315214Y-116371352D01*
X129306676Y-116386946D01*
X129261522Y-116507394D01*
X129257895Y-116522649D01*
X129252369Y-116573514D01*
X129252000Y-116580328D01*
X129252000Y-117227885D01*
X129256475Y-117243124D01*
X129257865Y-117244329D01*
X129265548Y-117246000D01*
X131128000Y-117246000D01*
X131196121Y-117266002D01*
X131242614Y-117319658D01*
X131254000Y-117372000D01*
X131254000Y-117628000D01*
X131233998Y-117696121D01*
X131180342Y-117742614D01*
X131128000Y-117754000D01*
X129270116Y-117754000D01*
X129254877Y-117758475D01*
X129253672Y-117759865D01*
X129252001Y-117767548D01*
X129252001Y-118240500D01*
X129231999Y-118308621D01*
X129178343Y-118355114D01*
X129126001Y-118366500D01*
X129078767Y-118366500D01*
X129067584Y-118365973D01*
X129060091Y-118364298D01*
X129052165Y-118364547D01*
X129052164Y-118364547D01*
X128992001Y-118366438D01*
X128988043Y-118366500D01*
X128960144Y-118366500D01*
X128956154Y-118367004D01*
X128944320Y-118367936D01*
X128900111Y-118369326D01*
X128892497Y-118371538D01*
X128892492Y-118371539D01*
X128880659Y-118374977D01*
X128861296Y-118378988D01*
X128841203Y-118381526D01*
X128833836Y-118384443D01*
X128833831Y-118384444D01*
X128800092Y-118397802D01*
X128788865Y-118401646D01*
X128746407Y-118413982D01*
X128739581Y-118418019D01*
X128728972Y-118424293D01*
X128711224Y-118432988D01*
X128692383Y-118440448D01*
X128685967Y-118445110D01*
X128685966Y-118445110D01*
X128656613Y-118466436D01*
X128646693Y-118472952D01*
X128615465Y-118491420D01*
X128615462Y-118491422D01*
X128608638Y-118495458D01*
X128594317Y-118509779D01*
X128579284Y-118522619D01*
X128562893Y-118534528D01*
X128557842Y-118540633D01*
X128557837Y-118540638D01*
X128534701Y-118568604D01*
X128526713Y-118577382D01*
X127657747Y-119446348D01*
X127649461Y-119453888D01*
X127642982Y-119458000D01*
X127637557Y-119463777D01*
X127596357Y-119507651D01*
X127593602Y-119510493D01*
X127573865Y-119530230D01*
X127571385Y-119533427D01*
X127563682Y-119542447D01*
X127533414Y-119574679D01*
X127529595Y-119581625D01*
X127529593Y-119581628D01*
X127523652Y-119592434D01*
X127512801Y-119608953D01*
X127500386Y-119624959D01*
X127497241Y-119632228D01*
X127497238Y-119632232D01*
X127482826Y-119665537D01*
X127477609Y-119676187D01*
X127456305Y-119714940D01*
X127454334Y-119722615D01*
X127454334Y-119722616D01*
X127451267Y-119734562D01*
X127444863Y-119753266D01*
X127440048Y-119764394D01*
X127436819Y-119771855D01*
X127435580Y-119779678D01*
X127435579Y-119779681D01*
X127430774Y-119810020D01*
X127400361Y-119874172D01*
X127372631Y-119897450D01*
X127325652Y-119926522D01*
X127200695Y-120051697D01*
X127196855Y-120057927D01*
X127196854Y-120057928D01*
X127128780Y-120168365D01*
X127107885Y-120202262D01*
X127105581Y-120209209D01*
X127056892Y-120356003D01*
X127052203Y-120370139D01*
X127041500Y-120474600D01*
X127041500Y-121435290D01*
X127021498Y-121503411D01*
X126967842Y-121549904D01*
X126897568Y-121560008D01*
X126832988Y-121530514D01*
X126826405Y-121524385D01*
X126715381Y-121413361D01*
X126694229Y-121400551D01*
X126646322Y-121348154D01*
X126633500Y-121292775D01*
X126633500Y-117314594D01*
X126653502Y-117246473D01*
X126670405Y-117225499D01*
X128175979Y-115719925D01*
X128238291Y-115685899D01*
X128265074Y-115683020D01*
X129216000Y-115683020D01*
X129284121Y-115703022D01*
G37*
%TD.AperFunction*%
%TA.AperFunction,Conductor*%
G36*
X121941021Y-103153502D02*
G01*
X121987514Y-103207158D01*
X121993796Y-103224001D01*
X121996475Y-103233124D01*
X121997865Y-103234329D01*
X122005548Y-103236000D01*
X123378000Y-103236000D01*
X123446121Y-103256002D01*
X123492614Y-103309658D01*
X123504000Y-103362000D01*
X123504000Y-103618000D01*
X123483998Y-103686121D01*
X123430342Y-103732614D01*
X123378000Y-103744000D01*
X122010116Y-103744000D01*
X121994877Y-103748475D01*
X121993672Y-103749865D01*
X121992001Y-103757548D01*
X121992001Y-103984669D01*
X121992371Y-103991490D01*
X121997895Y-104042352D01*
X122001520Y-104057600D01*
X122009939Y-104080057D01*
X122015122Y-104150864D01*
X122009942Y-104168510D01*
X121998255Y-104199684D01*
X121991500Y-104261866D01*
X121991500Y-105258134D01*
X121998255Y-105320316D01*
X122009672Y-105350771D01*
X122014855Y-105421577D01*
X122009674Y-105439224D01*
X121998255Y-105469684D01*
X121991500Y-105531866D01*
X121991500Y-106528134D01*
X121998255Y-106590316D01*
X122009672Y-106620771D01*
X122014855Y-106691577D01*
X122009674Y-106709224D01*
X121998255Y-106739684D01*
X121991500Y-106801866D01*
X121991500Y-107798134D01*
X121998255Y-107860316D01*
X122009672Y-107890771D01*
X122014855Y-107961577D01*
X122009674Y-107979224D01*
X121998255Y-108009684D01*
X121991500Y-108071866D01*
X121991500Y-109068134D01*
X121998255Y-109130316D01*
X122009672Y-109160771D01*
X122014855Y-109231577D01*
X122009674Y-109249224D01*
X121998255Y-109279684D01*
X121991500Y-109341866D01*
X121991500Y-110338134D01*
X121998255Y-110400316D01*
X122009672Y-110430771D01*
X122014855Y-110501577D01*
X122009674Y-110519224D01*
X121998255Y-110549684D01*
X121991500Y-110611866D01*
X121991500Y-111608134D01*
X121998255Y-111670316D01*
X122009672Y-111700771D01*
X122014855Y-111771577D01*
X122009674Y-111789224D01*
X121998255Y-111819684D01*
X121991500Y-111881866D01*
X121991500Y-112878134D01*
X121998255Y-112940316D01*
X122009672Y-112970770D01*
X122014855Y-113041577D01*
X122009674Y-113059224D01*
X121998255Y-113089684D01*
X121991500Y-113151866D01*
X121991500Y-114148134D01*
X121998255Y-114210316D01*
X122009672Y-114240771D01*
X122014855Y-114311577D01*
X122009674Y-114329224D01*
X121998255Y-114359684D01*
X121991500Y-114421866D01*
X121991500Y-115418134D01*
X121998255Y-115480316D01*
X122009672Y-115510771D01*
X122014855Y-115581577D01*
X122009674Y-115599224D01*
X121998255Y-115629684D01*
X121991500Y-115691866D01*
X121991500Y-116688134D01*
X121998255Y-116750316D01*
X122009672Y-116780771D01*
X122014855Y-116851577D01*
X122009674Y-116869224D01*
X121998255Y-116899684D01*
X121991500Y-116961866D01*
X121991500Y-117958134D01*
X121998255Y-118020316D01*
X122009672Y-118050771D01*
X122014855Y-118121577D01*
X122009674Y-118139224D01*
X121998255Y-118169684D01*
X121991500Y-118231866D01*
X121991500Y-119228134D01*
X121998255Y-119290316D01*
X122009672Y-119320771D01*
X122014855Y-119391577D01*
X122009674Y-119409224D01*
X121998255Y-119439684D01*
X121991500Y-119501866D01*
X121991500Y-119865500D01*
X121971498Y-119933621D01*
X121917842Y-119980114D01*
X121865500Y-119991500D01*
X120986866Y-119991500D01*
X120924684Y-119998255D01*
X120894229Y-120009672D01*
X120823423Y-120014855D01*
X120805776Y-120009674D01*
X120775316Y-119998255D01*
X120713134Y-119991500D01*
X119716866Y-119991500D01*
X119654684Y-119998255D01*
X119624229Y-120009672D01*
X119553423Y-120014855D01*
X119535776Y-120009674D01*
X119505316Y-119998255D01*
X119443134Y-119991500D01*
X118446866Y-119991500D01*
X118384684Y-119998255D01*
X118354229Y-120009672D01*
X118283423Y-120014855D01*
X118265776Y-120009674D01*
X118235316Y-119998255D01*
X118173134Y-119991500D01*
X117176866Y-119991500D01*
X117114684Y-119998255D01*
X117084229Y-120009672D01*
X117013423Y-120014855D01*
X116995776Y-120009674D01*
X116965316Y-119998255D01*
X116903134Y-119991500D01*
X115906866Y-119991500D01*
X115844684Y-119998255D01*
X115814229Y-120009672D01*
X115743423Y-120014855D01*
X115725776Y-120009674D01*
X115695316Y-119998255D01*
X115633134Y-119991500D01*
X114636866Y-119991500D01*
X114574684Y-119998255D01*
X114544229Y-120009672D01*
X114473423Y-120014855D01*
X114455776Y-120009674D01*
X114425316Y-119998255D01*
X114363134Y-119991500D01*
X113366866Y-119991500D01*
X113304684Y-119998255D01*
X113274229Y-120009672D01*
X113203423Y-120014855D01*
X113185776Y-120009674D01*
X113155316Y-119998255D01*
X113093134Y-119991500D01*
X112096866Y-119991500D01*
X112034684Y-119998255D01*
X112004229Y-120009672D01*
X111933423Y-120014855D01*
X111915776Y-120009674D01*
X111885316Y-119998255D01*
X111823134Y-119991500D01*
X110826866Y-119991500D01*
X110764684Y-119998255D01*
X110734229Y-120009672D01*
X110663423Y-120014855D01*
X110645776Y-120009674D01*
X110615316Y-119998255D01*
X110553134Y-119991500D01*
X109556866Y-119991500D01*
X109494684Y-119998255D01*
X109464229Y-120009672D01*
X109393423Y-120014855D01*
X109375776Y-120009674D01*
X109345316Y-119998255D01*
X109283134Y-119991500D01*
X108286866Y-119991500D01*
X108224684Y-119998255D01*
X108194229Y-120009672D01*
X108123423Y-120014855D01*
X108105776Y-120009674D01*
X108075316Y-119998255D01*
X108013134Y-119991500D01*
X107134500Y-119991500D01*
X107066379Y-119971498D01*
X107019886Y-119917842D01*
X107008500Y-119865500D01*
X107008500Y-119501866D01*
X107001745Y-119439684D01*
X106990328Y-119409229D01*
X106985145Y-119338423D01*
X106990326Y-119320776D01*
X107001745Y-119290316D01*
X107008500Y-119228134D01*
X107008500Y-118231866D01*
X107001745Y-118169684D01*
X106990328Y-118139229D01*
X106985145Y-118068423D01*
X106990326Y-118050776D01*
X107001745Y-118020316D01*
X107008500Y-117958134D01*
X107008500Y-116961866D01*
X107001745Y-116899684D01*
X106990328Y-116869229D01*
X106985145Y-116798423D01*
X106990326Y-116780776D01*
X107001745Y-116750316D01*
X107008500Y-116688134D01*
X107008500Y-115691866D01*
X107001745Y-115629684D01*
X106990328Y-115599229D01*
X106985145Y-115528423D01*
X106990326Y-115510776D01*
X107001745Y-115480316D01*
X107008500Y-115418134D01*
X107008500Y-114421866D01*
X107001745Y-114359684D01*
X106990328Y-114329229D01*
X106985145Y-114258423D01*
X106990326Y-114240776D01*
X107001745Y-114210316D01*
X107008500Y-114148134D01*
X107008500Y-113151866D01*
X107001745Y-113089684D01*
X106990328Y-113059229D01*
X106985145Y-112988423D01*
X106990328Y-112970770D01*
X107001745Y-112940316D01*
X107008500Y-112878134D01*
X107008500Y-112708594D01*
X107028502Y-112640473D01*
X107082158Y-112593980D01*
X107152432Y-112583876D01*
X107217012Y-112613370D01*
X107223595Y-112619499D01*
X108307460Y-113703364D01*
X108336691Y-113749158D01*
X108361473Y-113816879D01*
X108361475Y-113816883D01*
X108364085Y-113824015D01*
X108459730Y-113966349D01*
X108499562Y-114002593D01*
X108560070Y-114057651D01*
X108586565Y-114081760D01*
X108737268Y-114163585D01*
X108903139Y-114207101D01*
X108990586Y-114208474D01*
X109067003Y-114209675D01*
X109067006Y-114209675D01*
X109074602Y-114209794D01*
X109082006Y-114208098D01*
X109082008Y-114208098D01*
X109194944Y-114182232D01*
X109241759Y-114171510D01*
X109394958Y-114094459D01*
X109400729Y-114089530D01*
X109400732Y-114089528D01*
X109519578Y-113988023D01*
X109525355Y-113983089D01*
X109625424Y-113843830D01*
X109689385Y-113684720D01*
X109700824Y-113604342D01*
X109712966Y-113519031D01*
X109712966Y-113519027D01*
X109713547Y-113514947D01*
X109713704Y-113500000D01*
X109702743Y-113409424D01*
X109694015Y-113337299D01*
X109694014Y-113337296D01*
X109693102Y-113329758D01*
X109690268Y-113322256D01*
X109635171Y-113176447D01*
X109632487Y-113169344D01*
X109627681Y-113162351D01*
X109588037Y-113104669D01*
X110642001Y-113104669D01*
X110642371Y-113111490D01*
X110647895Y-113162352D01*
X110651521Y-113177604D01*
X110696676Y-113298054D01*
X110705214Y-113313649D01*
X110781715Y-113415724D01*
X110794276Y-113428285D01*
X110896351Y-113504786D01*
X110911946Y-113513324D01*
X111032394Y-113558478D01*
X111047649Y-113562105D01*
X111098514Y-113567631D01*
X111105328Y-113568000D01*
X111327885Y-113568000D01*
X111343124Y-113563525D01*
X111344329Y-113562135D01*
X111346000Y-113554452D01*
X111346000Y-113549884D01*
X111854000Y-113549884D01*
X111858475Y-113565123D01*
X111859865Y-113566328D01*
X111867548Y-113567999D01*
X112094669Y-113567999D01*
X112101490Y-113567629D01*
X112152352Y-113562105D01*
X112167604Y-113558479D01*
X112255770Y-113525427D01*
X112326578Y-113520244D01*
X112344230Y-113525427D01*
X112432394Y-113558478D01*
X112447649Y-113562105D01*
X112498514Y-113567631D01*
X112505328Y-113568000D01*
X112727885Y-113568000D01*
X112743124Y-113563525D01*
X112744329Y-113562135D01*
X112746000Y-113554452D01*
X112746000Y-113549884D01*
X113254000Y-113549884D01*
X113258475Y-113565123D01*
X113259865Y-113566328D01*
X113267548Y-113567999D01*
X113494669Y-113567999D01*
X113501490Y-113567629D01*
X113552352Y-113562105D01*
X113567604Y-113558479D01*
X113655770Y-113525427D01*
X113726578Y-113520244D01*
X113744230Y-113525427D01*
X113832394Y-113558478D01*
X113847649Y-113562105D01*
X113898514Y-113567631D01*
X113905328Y-113568000D01*
X114127885Y-113568000D01*
X114143124Y-113563525D01*
X114144329Y-113562135D01*
X114146000Y-113554452D01*
X114146000Y-113549884D01*
X114654000Y-113549884D01*
X114658475Y-113565123D01*
X114659865Y-113566328D01*
X114667548Y-113567999D01*
X114894669Y-113567999D01*
X114901490Y-113567629D01*
X114952352Y-113562105D01*
X114967604Y-113558479D01*
X115088054Y-113513324D01*
X115103649Y-113504786D01*
X115205724Y-113428285D01*
X115218285Y-113415724D01*
X115294786Y-113313649D01*
X115303324Y-113298054D01*
X115348478Y-113177606D01*
X115352105Y-113162351D01*
X115357631Y-113111486D01*
X115358000Y-113104672D01*
X115358000Y-112882115D01*
X115353525Y-112866876D01*
X115352135Y-112865671D01*
X115344452Y-112864000D01*
X114672115Y-112864000D01*
X114656876Y-112868475D01*
X114655671Y-112869865D01*
X114654000Y-112877548D01*
X114654000Y-113549884D01*
X114146000Y-113549884D01*
X114146000Y-112882115D01*
X114141525Y-112866876D01*
X114140135Y-112865671D01*
X114132452Y-112864000D01*
X113272115Y-112864000D01*
X113256876Y-112868475D01*
X113255671Y-112869865D01*
X113254000Y-112877548D01*
X113254000Y-113549884D01*
X112746000Y-113549884D01*
X112746000Y-112882115D01*
X112741525Y-112866876D01*
X112740135Y-112865671D01*
X112732452Y-112864000D01*
X111872115Y-112864000D01*
X111856876Y-112868475D01*
X111855671Y-112869865D01*
X111854000Y-112877548D01*
X111854000Y-113549884D01*
X111346000Y-113549884D01*
X111346000Y-112882115D01*
X111341525Y-112866876D01*
X111340135Y-112865671D01*
X111332452Y-112864000D01*
X110660116Y-112864000D01*
X110644877Y-112868475D01*
X110643672Y-112869865D01*
X110642001Y-112877548D01*
X110642001Y-113104669D01*
X109588037Y-113104669D01*
X109539659Y-113034278D01*
X109539658Y-113034276D01*
X109535357Y-113028019D01*
X109510334Y-113005724D01*
X109412993Y-112918996D01*
X109412990Y-112918994D01*
X109407321Y-112913943D01*
X109255769Y-112833700D01*
X109248397Y-112831848D01*
X109241308Y-112829127D01*
X109242338Y-112826444D01*
X109196204Y-112800299D01*
X108733790Y-112337885D01*
X110642000Y-112337885D01*
X110646475Y-112353124D01*
X110647865Y-112354329D01*
X110655548Y-112356000D01*
X111327885Y-112356000D01*
X111343124Y-112351525D01*
X111344329Y-112350135D01*
X111346000Y-112342452D01*
X111346000Y-112337885D01*
X111854000Y-112337885D01*
X111858475Y-112353124D01*
X111859865Y-112354329D01*
X111867548Y-112356000D01*
X112727885Y-112356000D01*
X112743124Y-112351525D01*
X112744329Y-112350135D01*
X112746000Y-112342452D01*
X112746000Y-112337885D01*
X113254000Y-112337885D01*
X113258475Y-112353124D01*
X113259865Y-112354329D01*
X113267548Y-112356000D01*
X114127885Y-112356000D01*
X114143124Y-112351525D01*
X114144329Y-112350135D01*
X114146000Y-112342452D01*
X114146000Y-112337885D01*
X114654000Y-112337885D01*
X114658475Y-112353124D01*
X114659865Y-112354329D01*
X114667548Y-112356000D01*
X115339884Y-112356000D01*
X115355123Y-112351525D01*
X115356328Y-112350135D01*
X115357999Y-112342452D01*
X115357999Y-112115331D01*
X115357629Y-112108510D01*
X115352105Y-112057648D01*
X115348479Y-112042396D01*
X115315427Y-111954230D01*
X115310244Y-111883422D01*
X115315427Y-111865770D01*
X115348478Y-111777606D01*
X115352105Y-111762351D01*
X115357631Y-111711486D01*
X115358000Y-111704672D01*
X115358000Y-111482115D01*
X115353525Y-111466876D01*
X115352135Y-111465671D01*
X115344452Y-111464000D01*
X114672115Y-111464000D01*
X114656876Y-111468475D01*
X114655671Y-111469865D01*
X114654000Y-111477548D01*
X114654000Y-112337885D01*
X114146000Y-112337885D01*
X114146000Y-111482115D01*
X114141525Y-111466876D01*
X114140135Y-111465671D01*
X114132452Y-111464000D01*
X113272115Y-111464000D01*
X113256876Y-111468475D01*
X113255671Y-111469865D01*
X113254000Y-111477548D01*
X113254000Y-112337885D01*
X112746000Y-112337885D01*
X112746000Y-111482115D01*
X112741525Y-111466876D01*
X112740135Y-111465671D01*
X112732452Y-111464000D01*
X111872115Y-111464000D01*
X111856876Y-111468475D01*
X111855671Y-111469865D01*
X111854000Y-111477548D01*
X111854000Y-112337885D01*
X111346000Y-112337885D01*
X111346000Y-111482115D01*
X111341525Y-111466876D01*
X111340135Y-111465671D01*
X111332452Y-111464000D01*
X110660116Y-111464000D01*
X110644877Y-111468475D01*
X110643672Y-111469865D01*
X110642001Y-111477548D01*
X110642001Y-111704669D01*
X110642371Y-111711490D01*
X110647895Y-111762352D01*
X110651521Y-111777604D01*
X110684573Y-111865770D01*
X110689756Y-111936578D01*
X110684573Y-111954230D01*
X110651522Y-112042394D01*
X110647895Y-112057649D01*
X110642369Y-112108514D01*
X110642000Y-112115328D01*
X110642000Y-112337885D01*
X108733790Y-112337885D01*
X108249064Y-111853159D01*
X108215038Y-111790847D01*
X108220103Y-111720032D01*
X108262650Y-111663196D01*
X108281539Y-111651503D01*
X108361014Y-111611531D01*
X108388175Y-111597871D01*
X108388178Y-111597869D01*
X108394958Y-111594459D01*
X108400729Y-111589530D01*
X108400732Y-111589528D01*
X108519578Y-111488023D01*
X108525355Y-111483089D01*
X108625424Y-111343830D01*
X108689385Y-111184720D01*
X108701717Y-111098068D01*
X108712966Y-111019031D01*
X108712966Y-111019027D01*
X108713547Y-111014947D01*
X108713704Y-111000000D01*
X108706187Y-110937885D01*
X110642000Y-110937885D01*
X110646475Y-110953124D01*
X110647865Y-110954329D01*
X110655548Y-110956000D01*
X111327885Y-110956000D01*
X111343124Y-110951525D01*
X111344329Y-110950135D01*
X111346000Y-110942452D01*
X111346000Y-110937885D01*
X111854000Y-110937885D01*
X111858475Y-110953124D01*
X111859865Y-110954329D01*
X111867548Y-110956000D01*
X112727885Y-110956000D01*
X112743124Y-110951525D01*
X112744329Y-110950135D01*
X112746000Y-110942452D01*
X112746000Y-110937885D01*
X113254000Y-110937885D01*
X113258475Y-110953124D01*
X113259865Y-110954329D01*
X113267548Y-110956000D01*
X114127885Y-110956000D01*
X114143124Y-110951525D01*
X114144329Y-110950135D01*
X114146000Y-110942452D01*
X114146000Y-110937885D01*
X114654000Y-110937885D01*
X114658475Y-110953124D01*
X114659865Y-110954329D01*
X114667548Y-110956000D01*
X115339884Y-110956000D01*
X115355123Y-110951525D01*
X115356328Y-110950135D01*
X115357999Y-110942452D01*
X115357999Y-110715331D01*
X115357629Y-110708510D01*
X115352105Y-110657648D01*
X115348479Y-110642396D01*
X115315427Y-110554230D01*
X115310244Y-110483422D01*
X115315427Y-110465770D01*
X115348478Y-110377606D01*
X115352105Y-110362351D01*
X115357631Y-110311486D01*
X115358000Y-110304672D01*
X115358000Y-110082115D01*
X115353525Y-110066876D01*
X115352135Y-110065671D01*
X115344452Y-110064000D01*
X114672115Y-110064000D01*
X114656876Y-110068475D01*
X114655671Y-110069865D01*
X114654000Y-110077548D01*
X114654000Y-110937885D01*
X114146000Y-110937885D01*
X114146000Y-110082115D01*
X114141525Y-110066876D01*
X114140135Y-110065671D01*
X114132452Y-110064000D01*
X113272115Y-110064000D01*
X113256876Y-110068475D01*
X113255671Y-110069865D01*
X113254000Y-110077548D01*
X113254000Y-110937885D01*
X112746000Y-110937885D01*
X112746000Y-110082115D01*
X112741525Y-110066876D01*
X112740135Y-110065671D01*
X112732452Y-110064000D01*
X111872115Y-110064000D01*
X111856876Y-110068475D01*
X111855671Y-110069865D01*
X111854000Y-110077548D01*
X111854000Y-110937885D01*
X111346000Y-110937885D01*
X111346000Y-110082115D01*
X111341525Y-110066876D01*
X111340135Y-110065671D01*
X111332452Y-110064000D01*
X110660116Y-110064000D01*
X110644877Y-110068475D01*
X110643672Y-110069865D01*
X110642001Y-110077548D01*
X110642001Y-110304669D01*
X110642371Y-110311490D01*
X110647895Y-110362352D01*
X110651521Y-110377604D01*
X110684573Y-110465770D01*
X110689756Y-110536578D01*
X110684573Y-110554230D01*
X110651522Y-110642394D01*
X110647895Y-110657649D01*
X110642369Y-110708514D01*
X110642000Y-110715328D01*
X110642000Y-110937885D01*
X108706187Y-110937885D01*
X108704501Y-110923953D01*
X108694015Y-110837299D01*
X108694014Y-110837296D01*
X108693102Y-110829758D01*
X108681569Y-110799235D01*
X108635171Y-110676447D01*
X108632487Y-110669344D01*
X108595332Y-110615283D01*
X108539659Y-110534278D01*
X108539658Y-110534276D01*
X108535357Y-110528019D01*
X108525494Y-110519231D01*
X108412993Y-110418996D01*
X108412990Y-110418994D01*
X108407321Y-110413943D01*
X108255769Y-110333700D01*
X108248406Y-110331851D01*
X108241307Y-110329125D01*
X108242331Y-110326458D01*
X108196202Y-110300297D01*
X107433790Y-109537885D01*
X110642000Y-109537885D01*
X110646475Y-109553124D01*
X110647865Y-109554329D01*
X110655548Y-109556000D01*
X111327885Y-109556000D01*
X111343124Y-109551525D01*
X111344329Y-109550135D01*
X111346000Y-109542452D01*
X111346000Y-109537885D01*
X111854000Y-109537885D01*
X111858475Y-109553124D01*
X111859865Y-109554329D01*
X111867548Y-109556000D01*
X112727885Y-109556000D01*
X112743124Y-109551525D01*
X112744329Y-109550135D01*
X112746000Y-109542452D01*
X112746000Y-109537885D01*
X113254000Y-109537885D01*
X113258475Y-109553124D01*
X113259865Y-109554329D01*
X113267548Y-109556000D01*
X114127885Y-109556000D01*
X114143124Y-109551525D01*
X114144329Y-109550135D01*
X114146000Y-109542452D01*
X114146000Y-109537885D01*
X114654000Y-109537885D01*
X114658475Y-109553124D01*
X114659865Y-109554329D01*
X114667548Y-109556000D01*
X115339884Y-109556000D01*
X115355123Y-109551525D01*
X115356328Y-109550135D01*
X115357999Y-109542452D01*
X115357999Y-109315331D01*
X115357629Y-109308510D01*
X115352105Y-109257648D01*
X115348479Y-109242396D01*
X115303324Y-109121946D01*
X115294786Y-109106351D01*
X115218285Y-109004276D01*
X115205724Y-108991715D01*
X115103649Y-108915214D01*
X115088054Y-108906676D01*
X114967606Y-108861522D01*
X114952351Y-108857895D01*
X114901486Y-108852369D01*
X114894672Y-108852000D01*
X114672115Y-108852000D01*
X114656876Y-108856475D01*
X114655671Y-108857865D01*
X114654000Y-108865548D01*
X114654000Y-109537885D01*
X114146000Y-109537885D01*
X114146000Y-108870116D01*
X114141525Y-108854877D01*
X114140135Y-108853672D01*
X114132452Y-108852001D01*
X113905331Y-108852001D01*
X113898510Y-108852371D01*
X113847648Y-108857895D01*
X113832396Y-108861521D01*
X113744230Y-108894573D01*
X113673422Y-108899756D01*
X113655770Y-108894573D01*
X113567606Y-108861522D01*
X113552351Y-108857895D01*
X113501486Y-108852369D01*
X113494672Y-108852000D01*
X113272115Y-108852000D01*
X113256876Y-108856475D01*
X113255671Y-108857865D01*
X113254000Y-108865548D01*
X113254000Y-109537885D01*
X112746000Y-109537885D01*
X112746000Y-108870116D01*
X112741525Y-108854877D01*
X112740135Y-108853672D01*
X112732452Y-108852001D01*
X112505331Y-108852001D01*
X112498510Y-108852371D01*
X112447648Y-108857895D01*
X112432396Y-108861521D01*
X112344230Y-108894573D01*
X112273422Y-108899756D01*
X112255770Y-108894573D01*
X112167606Y-108861522D01*
X112152351Y-108857895D01*
X112101486Y-108852369D01*
X112094672Y-108852000D01*
X111872115Y-108852000D01*
X111856876Y-108856475D01*
X111855671Y-108857865D01*
X111854000Y-108865548D01*
X111854000Y-109537885D01*
X111346000Y-109537885D01*
X111346000Y-108870116D01*
X111341525Y-108854877D01*
X111340135Y-108853672D01*
X111332452Y-108852001D01*
X111105331Y-108852001D01*
X111098510Y-108852371D01*
X111047648Y-108857895D01*
X111032396Y-108861521D01*
X110911946Y-108906676D01*
X110896351Y-108915214D01*
X110794276Y-108991715D01*
X110781715Y-109004276D01*
X110705214Y-109106351D01*
X110696676Y-109121946D01*
X110651522Y-109242394D01*
X110647895Y-109257649D01*
X110642369Y-109308514D01*
X110642000Y-109315328D01*
X110642000Y-109537885D01*
X107433790Y-109537885D01*
X107343652Y-109447747D01*
X107336112Y-109439461D01*
X107332000Y-109432982D01*
X107282348Y-109386356D01*
X107279507Y-109383602D01*
X107259770Y-109363865D01*
X107256573Y-109361385D01*
X107247551Y-109353680D01*
X107221100Y-109328841D01*
X107215321Y-109323414D01*
X107208375Y-109319595D01*
X107208372Y-109319593D01*
X107197566Y-109313652D01*
X107181047Y-109302801D01*
X107175030Y-109298134D01*
X107165041Y-109290386D01*
X107157772Y-109287241D01*
X107157768Y-109287238D01*
X107124463Y-109272826D01*
X107113813Y-109267609D01*
X107075060Y-109246305D01*
X107075059Y-109246305D01*
X107075648Y-109245234D01*
X107025847Y-109206375D01*
X107002372Y-109139371D01*
X107002943Y-109119292D01*
X107008131Y-109071533D01*
X107008131Y-109071529D01*
X107008500Y-109068134D01*
X107008500Y-108325338D01*
X107028502Y-108257217D01*
X107082158Y-108210724D01*
X107106368Y-108202519D01*
X107168929Y-108188190D01*
X107234359Y-108173205D01*
X107234360Y-108173205D01*
X107241759Y-108171510D01*
X107394958Y-108094459D01*
X107400729Y-108089530D01*
X107400732Y-108089528D01*
X107519578Y-107988023D01*
X107525355Y-107983089D01*
X107608611Y-107867228D01*
X107620992Y-107849998D01*
X107620993Y-107849997D01*
X107625424Y-107843830D01*
X107689385Y-107684720D01*
X107697628Y-107626802D01*
X107712966Y-107519031D01*
X107712966Y-107519027D01*
X107713547Y-107514947D01*
X107713704Y-107500000D01*
X107696857Y-107360783D01*
X107694015Y-107337299D01*
X107694014Y-107337296D01*
X107693102Y-107329758D01*
X107632487Y-107169344D01*
X107535357Y-107028019D01*
X107415665Y-106921377D01*
X107412993Y-106918996D01*
X107412990Y-106918994D01*
X107407321Y-106913943D01*
X107255769Y-106833700D01*
X107248397Y-106831848D01*
X107241308Y-106829127D01*
X107241895Y-106827597D01*
X107195209Y-106802090D01*
X107181100Y-106788841D01*
X107175321Y-106783414D01*
X107168375Y-106779595D01*
X107168372Y-106779593D01*
X107157566Y-106773652D01*
X107141047Y-106762801D01*
X107140583Y-106762441D01*
X107125041Y-106750386D01*
X107117772Y-106747241D01*
X107117768Y-106747238D01*
X107084463Y-106732826D01*
X107073812Y-106727609D01*
X107064379Y-106722423D01*
X107014323Y-106672077D01*
X106999433Y-106602659D01*
X107001066Y-106592126D01*
X107001745Y-106590316D01*
X107008500Y-106528134D01*
X107008500Y-105531866D01*
X107001745Y-105469684D01*
X106998971Y-105462284D01*
X106997144Y-105454600D01*
X106999867Y-105453953D01*
X106995666Y-105396462D01*
X107029595Y-105334097D01*
X107048084Y-105320194D01*
X107047617Y-105319552D01*
X107083387Y-105293564D01*
X107093307Y-105287048D01*
X107124535Y-105268580D01*
X107124538Y-105268578D01*
X107131362Y-105264542D01*
X107145683Y-105250221D01*
X107160717Y-105237380D01*
X107170694Y-105230131D01*
X107177107Y-105225472D01*
X107182161Y-105219363D01*
X107182164Y-105219360D01*
X107192434Y-105206947D01*
X107242045Y-105172078D01*
X107241759Y-105171510D01*
X107245605Y-105169576D01*
X107245607Y-105169575D01*
X107248537Y-105168101D01*
X107248540Y-105168100D01*
X107388174Y-105097871D01*
X107394958Y-105094459D01*
X107400729Y-105089530D01*
X107400732Y-105089528D01*
X107519578Y-104988023D01*
X107525355Y-104983089D01*
X107625424Y-104843830D01*
X107689385Y-104684720D01*
X107703250Y-104587299D01*
X107712966Y-104519031D01*
X107712966Y-104519027D01*
X107713547Y-104514947D01*
X107713704Y-104500000D01*
X107702331Y-104406019D01*
X107694015Y-104337299D01*
X107694014Y-104337296D01*
X107693102Y-104329758D01*
X107666165Y-104258469D01*
X107635171Y-104176447D01*
X107632487Y-104169344D01*
X107559602Y-104063295D01*
X107539659Y-104034278D01*
X107539658Y-104034276D01*
X107535357Y-104028019D01*
X107529686Y-104022966D01*
X107412993Y-103918996D01*
X107412990Y-103918994D01*
X107407321Y-103913943D01*
X107381717Y-103900386D01*
X107298462Y-103856305D01*
X107255769Y-103833700D01*
X107245251Y-103831058D01*
X107096821Y-103793775D01*
X107096819Y-103793775D01*
X107089451Y-103791924D01*
X107086921Y-103791911D01*
X107022116Y-103762984D01*
X107002136Y-103745672D01*
X106994452Y-103744000D01*
X105622000Y-103744000D01*
X105553879Y-103723998D01*
X105507386Y-103670342D01*
X105496000Y-103618000D01*
X105496000Y-103362000D01*
X105516002Y-103293879D01*
X105569658Y-103247386D01*
X105622000Y-103236000D01*
X106989884Y-103236000D01*
X107005123Y-103231525D01*
X107008623Y-103227487D01*
X107039791Y-103170405D01*
X107102103Y-103136380D01*
X107128887Y-103133500D01*
X121872900Y-103133500D01*
X121941021Y-103153502D01*
G37*
%TD.AperFunction*%
%TA.AperFunction,Conductor*%
G36*
X134287301Y-110442102D02*
G01*
X134343119Y-110485976D01*
X134366500Y-110559088D01*
X134366500Y-114735406D01*
X134346498Y-114803527D01*
X134329595Y-114824501D01*
X134149501Y-115004595D01*
X134087189Y-115038621D01*
X134060406Y-115041500D01*
X133474600Y-115041500D01*
X133471354Y-115041837D01*
X133471350Y-115041837D01*
X133375692Y-115051762D01*
X133375688Y-115051763D01*
X133368834Y-115052474D01*
X133362298Y-115054655D01*
X133362296Y-115054655D01*
X133251859Y-115091500D01*
X133201054Y-115108450D01*
X133050652Y-115201522D01*
X132925695Y-115326697D01*
X132924055Y-115325059D01*
X132875256Y-115359656D01*
X132834294Y-115366500D01*
X132673539Y-115366500D01*
X132605418Y-115346498D01*
X132572713Y-115316065D01*
X132518643Y-115243920D01*
X132518642Y-115243919D01*
X132513261Y-115236739D01*
X132396705Y-115149385D01*
X132260316Y-115098255D01*
X132198134Y-115091500D01*
X131936719Y-115091500D01*
X131868598Y-115071498D01*
X131822105Y-115017842D01*
X131812001Y-114947568D01*
X131829459Y-114899384D01*
X131888275Y-114803968D01*
X131888276Y-114803966D01*
X131892115Y-114797738D01*
X131947797Y-114629861D01*
X131958500Y-114525400D01*
X131958500Y-113474600D01*
X131958163Y-113471350D01*
X131948238Y-113375692D01*
X131948237Y-113375688D01*
X131947526Y-113368834D01*
X131933657Y-113327262D01*
X131893868Y-113208002D01*
X131891550Y-113201054D01*
X131798478Y-113050652D01*
X131673303Y-112925695D01*
X131669674Y-112923458D01*
X131629338Y-112866564D01*
X131626107Y-112795641D01*
X131659398Y-112736506D01*
X133442247Y-110953657D01*
X133450537Y-110946113D01*
X133457018Y-110942000D01*
X133503659Y-110892332D01*
X133506413Y-110889491D01*
X133526134Y-110869770D01*
X133528612Y-110866575D01*
X133536319Y-110857552D01*
X133562666Y-110829496D01*
X133622859Y-110793791D01*
X133652872Y-110786001D01*
X133863075Y-110691312D01*
X134054319Y-110562559D01*
X134059581Y-110557540D01*
X134153528Y-110467918D01*
X134216625Y-110435371D01*
X134287301Y-110442102D01*
G37*
%TD.AperFunction*%
%TA.AperFunction,Conductor*%
G36*
X130970018Y-95510000D02*
G01*
X130984851Y-95512310D01*
X130984855Y-95512310D01*
X130993724Y-95513691D01*
X131014183Y-95511016D01*
X131036007Y-95510072D01*
X131385965Y-95525352D01*
X131396913Y-95526310D01*
X131774498Y-95576019D01*
X131785307Y-95577926D01*
X132157114Y-95660353D01*
X132167731Y-95663198D01*
X132530939Y-95777718D01*
X132541254Y-95781471D01*
X132893123Y-95927220D01*
X132903067Y-95931858D01*
X133240867Y-96107705D01*
X133250387Y-96113201D01*
X133571574Y-96317820D01*
X133580578Y-96324124D01*
X133882716Y-96555962D01*
X133891137Y-96563028D01*
X134171914Y-96820314D01*
X134179686Y-96828086D01*
X134436972Y-97108863D01*
X134444038Y-97117284D01*
X134675876Y-97419422D01*
X134682180Y-97428426D01*
X134886799Y-97749613D01*
X134892294Y-97759132D01*
X135053752Y-98069288D01*
X135068138Y-98096924D01*
X135072780Y-98106877D01*
X135182422Y-98371577D01*
X135218526Y-98458739D01*
X135222282Y-98469061D01*
X135249877Y-98556579D01*
X135336802Y-98832268D01*
X135339647Y-98842885D01*
X135384339Y-99044476D01*
X135422073Y-99214685D01*
X135423981Y-99225502D01*
X135466006Y-99544723D01*
X135473690Y-99603086D01*
X135474648Y-99614036D01*
X135489603Y-99956552D01*
X135488223Y-99981429D01*
X135486309Y-99993724D01*
X135487473Y-100002626D01*
X135487473Y-100002628D01*
X135490436Y-100025283D01*
X135491500Y-100041621D01*
X135491500Y-104291405D01*
X135471498Y-104359526D01*
X135417842Y-104406019D01*
X135347568Y-104416123D01*
X135282988Y-104386629D01*
X135276405Y-104380500D01*
X134953652Y-104057747D01*
X134946112Y-104049461D01*
X134942000Y-104042982D01*
X134892348Y-103996356D01*
X134889507Y-103993602D01*
X134869770Y-103973865D01*
X134866573Y-103971385D01*
X134857551Y-103963680D01*
X134831100Y-103938841D01*
X134825321Y-103933414D01*
X134818375Y-103929595D01*
X134818372Y-103929593D01*
X134807566Y-103923652D01*
X134791047Y-103912801D01*
X134787936Y-103910388D01*
X134775041Y-103900386D01*
X134767772Y-103897241D01*
X134767768Y-103897238D01*
X134734463Y-103882826D01*
X134723813Y-103877609D01*
X134685060Y-103856305D01*
X134665437Y-103851267D01*
X134646734Y-103844863D01*
X134635420Y-103839967D01*
X134635419Y-103839967D01*
X134628145Y-103836819D01*
X134620322Y-103835580D01*
X134620312Y-103835577D01*
X134584476Y-103829901D01*
X134572856Y-103827495D01*
X134537711Y-103818472D01*
X134537710Y-103818472D01*
X134530030Y-103816500D01*
X134509776Y-103816500D01*
X134490065Y-103814949D01*
X134477886Y-103813020D01*
X134470057Y-103811780D01*
X134462165Y-103812526D01*
X134426039Y-103815941D01*
X134414181Y-103816500D01*
X128699899Y-103816500D01*
X128631778Y-103796498D01*
X128592755Y-103756803D01*
X128577332Y-103731880D01*
X128573478Y-103725652D01*
X128448303Y-103600695D01*
X128444084Y-103598094D01*
X128403583Y-103540970D01*
X128400351Y-103470047D01*
X128435976Y-103408635D01*
X128443530Y-103402078D01*
X128449348Y-103398478D01*
X128574305Y-103273303D01*
X128599072Y-103233124D01*
X128663275Y-103128968D01*
X128663276Y-103128966D01*
X128667115Y-103122738D01*
X128722797Y-102954861D01*
X128725673Y-102926797D01*
X128731397Y-102870921D01*
X128733500Y-102850400D01*
X128733500Y-102249600D01*
X128722526Y-102143834D01*
X128704930Y-102091091D01*
X128668868Y-101983002D01*
X128666550Y-101976054D01*
X128573478Y-101825652D01*
X128448303Y-101700695D01*
X128353798Y-101642441D01*
X128303968Y-101611725D01*
X128303966Y-101611724D01*
X128297738Y-101607885D01*
X128217995Y-101581436D01*
X128136389Y-101554368D01*
X128136387Y-101554368D01*
X128129861Y-101552203D01*
X128123025Y-101551503D01*
X128123022Y-101551502D01*
X128079969Y-101547091D01*
X128025400Y-101541500D01*
X127335434Y-101541500D01*
X127267313Y-101521498D01*
X127220820Y-101467842D01*
X127210716Y-101397568D01*
X127215841Y-101375833D01*
X127220632Y-101361389D01*
X127220632Y-101361387D01*
X127222797Y-101354861D01*
X127233500Y-101250400D01*
X127233500Y-100649600D01*
X127222526Y-100543834D01*
X127181838Y-100421876D01*
X127168868Y-100383002D01*
X127166550Y-100376054D01*
X127073478Y-100225652D01*
X126980367Y-100132703D01*
X128890743Y-100132703D01*
X128928268Y-100417734D01*
X129004129Y-100695036D01*
X129116923Y-100959476D01*
X129264561Y-101206161D01*
X129444313Y-101430528D01*
X129541482Y-101522738D01*
X129628781Y-101605581D01*
X129652851Y-101628423D01*
X129886317Y-101796186D01*
X129890112Y-101798195D01*
X129890113Y-101798196D01*
X129911869Y-101809715D01*
X130140392Y-101930712D01*
X130410373Y-102029511D01*
X130691264Y-102090755D01*
X130719841Y-102093004D01*
X130914282Y-102108307D01*
X130914291Y-102108307D01*
X130916739Y-102108500D01*
X131072271Y-102108500D01*
X131074407Y-102108354D01*
X131074418Y-102108354D01*
X131282548Y-102094165D01*
X131282554Y-102094164D01*
X131286825Y-102093873D01*
X131291020Y-102093004D01*
X131291022Y-102093004D01*
X131427584Y-102064723D01*
X131568342Y-102035574D01*
X131839343Y-101939607D01*
X132048061Y-101831880D01*
X132091005Y-101809715D01*
X132091006Y-101809715D01*
X132094812Y-101807750D01*
X132098313Y-101805289D01*
X132098317Y-101805287D01*
X132252601Y-101696854D01*
X132330023Y-101642441D01*
X132424801Y-101554368D01*
X132537479Y-101449661D01*
X132537481Y-101449658D01*
X132540622Y-101446740D01*
X132722713Y-101224268D01*
X132872927Y-100979142D01*
X132988483Y-100715898D01*
X133067244Y-100439406D01*
X133107751Y-100154784D01*
X133107845Y-100136951D01*
X133109235Y-99871583D01*
X133109235Y-99871576D01*
X133109257Y-99867297D01*
X133071732Y-99582266D01*
X132995871Y-99304964D01*
X132959656Y-99220059D01*
X132884763Y-99044476D01*
X132884761Y-99044472D01*
X132883077Y-99040524D01*
X132761578Y-98837514D01*
X132737643Y-98797521D01*
X132737640Y-98797517D01*
X132735439Y-98793839D01*
X132555687Y-98569472D01*
X132347149Y-98371577D01*
X132157064Y-98234987D01*
X132117172Y-98206321D01*
X132117171Y-98206320D01*
X132113683Y-98203814D01*
X132091843Y-98192250D01*
X131980490Y-98133292D01*
X131859608Y-98069288D01*
X131589627Y-97970489D01*
X131308736Y-97909245D01*
X131277685Y-97906801D01*
X131085718Y-97891693D01*
X131085709Y-97891693D01*
X131083261Y-97891500D01*
X130927729Y-97891500D01*
X130925593Y-97891646D01*
X130925582Y-97891646D01*
X130717452Y-97905835D01*
X130717446Y-97905836D01*
X130713175Y-97906127D01*
X130708980Y-97906996D01*
X130708978Y-97906996D01*
X130572416Y-97935277D01*
X130431658Y-97964426D01*
X130160657Y-98060393D01*
X130156848Y-98062359D01*
X130059198Y-98112760D01*
X129905188Y-98192250D01*
X129901687Y-98194711D01*
X129901683Y-98194713D01*
X129787583Y-98274904D01*
X129669977Y-98357559D01*
X129654892Y-98371577D01*
X129561095Y-98458739D01*
X129459378Y-98553260D01*
X129277287Y-98775732D01*
X129127073Y-99020858D01*
X129125347Y-99024791D01*
X129125346Y-99024792D01*
X129041989Y-99214685D01*
X129011517Y-99284102D01*
X128932756Y-99560594D01*
X128892249Y-99845216D01*
X128892227Y-99849505D01*
X128892226Y-99849512D01*
X128890765Y-100128417D01*
X128890743Y-100132703D01*
X126980367Y-100132703D01*
X126948303Y-100100695D01*
X126943765Y-100097898D01*
X126903176Y-100040647D01*
X126899946Y-99969724D01*
X126935572Y-99908313D01*
X126944068Y-99900938D01*
X126954207Y-99892902D01*
X127068739Y-99778171D01*
X127077751Y-99766760D01*
X127162816Y-99628757D01*
X127168963Y-99615576D01*
X127220138Y-99461290D01*
X127223005Y-99447914D01*
X127232672Y-99353562D01*
X127233000Y-99347146D01*
X127233000Y-99322115D01*
X127228525Y-99306876D01*
X127227135Y-99305671D01*
X127219452Y-99304000D01*
X125872000Y-99304000D01*
X125803879Y-99283998D01*
X125757386Y-99230342D01*
X125746000Y-99178000D01*
X125746000Y-98777885D01*
X126254000Y-98777885D01*
X126258475Y-98793124D01*
X126259865Y-98794329D01*
X126267548Y-98796000D01*
X127214884Y-98796000D01*
X127230123Y-98791525D01*
X127231328Y-98790135D01*
X127232999Y-98782452D01*
X127232999Y-98752905D01*
X127232662Y-98746386D01*
X127222743Y-98650794D01*
X127219851Y-98637400D01*
X127168412Y-98483216D01*
X127162239Y-98470038D01*
X127076937Y-98332193D01*
X127067901Y-98320792D01*
X126953171Y-98206261D01*
X126941760Y-98197249D01*
X126803757Y-98112184D01*
X126790576Y-98106037D01*
X126636290Y-98054862D01*
X126622914Y-98051995D01*
X126528562Y-98042328D01*
X126522145Y-98042000D01*
X126272115Y-98042000D01*
X126256876Y-98046475D01*
X126255671Y-98047865D01*
X126254000Y-98055548D01*
X126254000Y-98777885D01*
X125746000Y-98777885D01*
X125746000Y-98060116D01*
X125741525Y-98044877D01*
X125740135Y-98043672D01*
X125732452Y-98042001D01*
X125477905Y-98042001D01*
X125471386Y-98042338D01*
X125375794Y-98052257D01*
X125362400Y-98055149D01*
X125208216Y-98106588D01*
X125195040Y-98112760D01*
X125192305Y-98114453D01*
X125190176Y-98115039D01*
X125188417Y-98115863D01*
X125188276Y-98115562D01*
X125123854Y-98133292D01*
X125056084Y-98112132D01*
X125010511Y-98057693D01*
X125000000Y-98007310D01*
X125000000Y-95634500D01*
X125020002Y-95566379D01*
X125073658Y-95519886D01*
X125126000Y-95508500D01*
X130950633Y-95508500D01*
X130970018Y-95510000D01*
G37*
%TD.AperFunction*%
%TD*%
M02*
