%TF.GenerationSoftware,KiCad,Pcbnew,(6.0.5)*%
%TF.CreationDate,2022-06-02T01:51:08+02:00*%
%TF.ProjectId,Hardware,48617264-7761-4726-952e-6b696361645f,rev?*%
%TF.SameCoordinates,Original*%
%TF.FileFunction,Paste,Bot*%
%TF.FilePolarity,Positive*%
%FSLAX46Y46*%
G04 Gerber Fmt 4.6, Leading zero omitted, Abs format (unit mm)*
G04 Created by KiCad (PCBNEW (6.0.5)) date 2022-06-02 01:51:08*
%MOMM*%
%LPD*%
G01*
G04 APERTURE LIST*
G04 Aperture macros list*
%AMRoundRect*
0 Rectangle with rounded corners*
0 $1 Rounding radius*
0 $2 $3 $4 $5 $6 $7 $8 $9 X,Y pos of 4 corners*
0 Add a 4 corners polygon primitive as box body*
4,1,4,$2,$3,$4,$5,$6,$7,$8,$9,$2,$3,0*
0 Add four circle primitives for the rounded corners*
1,1,$1+$1,$2,$3*
1,1,$1+$1,$4,$5*
1,1,$1+$1,$6,$7*
1,1,$1+$1,$8,$9*
0 Add four rect primitives between the rounded corners*
20,1,$1+$1,$2,$3,$4,$5,0*
20,1,$1+$1,$4,$5,$6,$7,0*
20,1,$1+$1,$6,$7,$8,$9,0*
20,1,$1+$1,$8,$9,$2,$3,0*%
G04 Aperture macros list end*
%ADD10RoundRect,0.250000X0.475000X-0.250000X0.475000X0.250000X-0.475000X0.250000X-0.475000X-0.250000X0*%
%ADD11RoundRect,0.250000X-0.475000X0.250000X-0.475000X-0.250000X0.475000X-0.250000X0.475000X0.250000X0*%
%ADD12RoundRect,0.250000X-0.250000X-0.475000X0.250000X-0.475000X0.250000X0.475000X-0.250000X0.475000X0*%
%ADD13R,0.800000X0.300000*%
%ADD14R,0.300000X0.800000*%
%ADD15R,3.800000X3.800000*%
%ADD16RoundRect,0.200000X-0.275000X0.200000X-0.275000X-0.200000X0.275000X-0.200000X0.275000X0.200000X0*%
%ADD17RoundRect,0.200000X-0.200000X-0.275000X0.200000X-0.275000X0.200000X0.275000X-0.200000X0.275000X0*%
%ADD18RoundRect,0.250000X1.075000X-0.362500X1.075000X0.362500X-1.075000X0.362500X-1.075000X-0.362500X0*%
%ADD19R,2.000000X2.500000*%
G04 APERTURE END LIST*
D10*
%TO.C,C15*%
X108000000Y-106450000D03*
X108000000Y-104550000D03*
%TD*%
D11*
%TO.C,C14*%
X110000000Y-104550000D03*
X110000000Y-106450000D03*
%TD*%
D10*
%TO.C,C5*%
X111000000Y-122950000D03*
X111000000Y-121050000D03*
%TD*%
D11*
%TO.C,C1*%
X106500000Y-118550000D03*
X106500000Y-120450000D03*
%TD*%
%TO.C,C3*%
X109000000Y-121050000D03*
X109000000Y-122950000D03*
%TD*%
D12*
%TO.C,C8*%
X105215009Y-122723880D03*
X107115009Y-122723880D03*
%TD*%
D13*
%TO.C,IC3*%
X103000000Y-120500000D03*
X103000000Y-121000000D03*
X103000000Y-121500000D03*
X103000000Y-122000000D03*
X103000000Y-122500000D03*
X103000000Y-123000000D03*
X103000000Y-123500000D03*
D14*
X102000000Y-124500000D03*
X101500000Y-124500000D03*
X101000000Y-124500000D03*
X100500000Y-124500000D03*
X100000000Y-124500000D03*
X99500000Y-124500000D03*
X99000000Y-124500000D03*
D13*
X98000000Y-123500000D03*
X98000000Y-123000000D03*
X98000000Y-122500000D03*
X98000000Y-122000000D03*
X98000000Y-121500000D03*
X98000000Y-121000000D03*
X98000000Y-120500000D03*
D14*
X99000000Y-119500000D03*
X99500000Y-119500000D03*
X100000000Y-119500000D03*
X100500000Y-119500000D03*
X101000000Y-119500000D03*
X101500000Y-119500000D03*
X102000000Y-119500000D03*
D15*
X100500000Y-122000000D03*
%TD*%
D16*
%TO.C,R4*%
X96000000Y-121175000D03*
X96000000Y-122825000D03*
%TD*%
D17*
%TO.C,R5*%
X101675000Y-126000000D03*
X103325000Y-126000000D03*
%TD*%
D12*
%TO.C,C11*%
X97950000Y-126500000D03*
X96050000Y-126500000D03*
%TD*%
D18*
%TO.C,R2*%
X101000000Y-116812500D03*
X101000000Y-112187500D03*
%TD*%
D12*
%TO.C,C6*%
X96550000Y-117000000D03*
X98450000Y-117000000D03*
%TD*%
D19*
%TO.C,RV1*%
X109650000Y-125450000D03*
X107500000Y-134100000D03*
X105350000Y-125450000D03*
%TD*%
D11*
%TO.C,C4*%
X112000000Y-132400000D03*
X112000000Y-130500000D03*
%TD*%
D18*
%TO.C,R1*%
X104500000Y-116812500D03*
X104500000Y-112187500D03*
%TD*%
M02*
