%TF.GenerationSoftware,KiCad,Pcbnew,(6.0.5)*%
%TF.CreationDate,2022-06-02T01:51:08+02:00*%
%TF.ProjectId,Hardware,48617264-7761-4726-952e-6b696361645f,rev?*%
%TF.SameCoordinates,Original*%
%TF.FileFunction,Legend,Bot*%
%TF.FilePolarity,Positive*%
%FSLAX46Y46*%
G04 Gerber Fmt 4.6, Leading zero omitted, Abs format (unit mm)*
G04 Created by KiCad (PCBNEW (6.0.5)) date 2022-06-02 01:51:08*
%MOMM*%
%LPD*%
G01*
G04 APERTURE LIST*
%ADD10C,0.150000*%
%ADD11C,0.254000*%
%ADD12C,0.120000*%
%ADD13C,0.250000*%
G04 APERTURE END LIST*
D10*
%TO.C,C15*%
X108357142Y-101357142D02*
X108404761Y-101309523D01*
X108452380Y-101166666D01*
X108452380Y-101071428D01*
X108404761Y-100928571D01*
X108309523Y-100833333D01*
X108214285Y-100785714D01*
X108023809Y-100738095D01*
X107880952Y-100738095D01*
X107690476Y-100785714D01*
X107595238Y-100833333D01*
X107500000Y-100928571D01*
X107452380Y-101071428D01*
X107452380Y-101166666D01*
X107500000Y-101309523D01*
X107547619Y-101357142D01*
X108452380Y-102309523D02*
X108452380Y-101738095D01*
X108452380Y-102023809D02*
X107452380Y-102023809D01*
X107595238Y-101928571D01*
X107690476Y-101833333D01*
X107738095Y-101738095D01*
X107452380Y-103214285D02*
X107452380Y-102738095D01*
X107928571Y-102690476D01*
X107880952Y-102738095D01*
X107833333Y-102833333D01*
X107833333Y-103071428D01*
X107880952Y-103166666D01*
X107928571Y-103214285D01*
X108023809Y-103261904D01*
X108261904Y-103261904D01*
X108357142Y-103214285D01*
X108404761Y-103166666D01*
X108452380Y-103071428D01*
X108452380Y-102833333D01*
X108404761Y-102738095D01*
X108357142Y-102690476D01*
%TO.C,C14*%
X110357142Y-101357142D02*
X110404761Y-101309523D01*
X110452380Y-101166666D01*
X110452380Y-101071428D01*
X110404761Y-100928571D01*
X110309523Y-100833333D01*
X110214285Y-100785714D01*
X110023809Y-100738095D01*
X109880952Y-100738095D01*
X109690476Y-100785714D01*
X109595238Y-100833333D01*
X109500000Y-100928571D01*
X109452380Y-101071428D01*
X109452380Y-101166666D01*
X109500000Y-101309523D01*
X109547619Y-101357142D01*
X110452380Y-102309523D02*
X110452380Y-101738095D01*
X110452380Y-102023809D02*
X109452380Y-102023809D01*
X109595238Y-101928571D01*
X109690476Y-101833333D01*
X109738095Y-101738095D01*
X109785714Y-103166666D02*
X110452380Y-103166666D01*
X109404761Y-102928571D02*
X110119047Y-102690476D01*
X110119047Y-103309523D01*
%TO.C,C5*%
X111857142Y-119333333D02*
X111904761Y-119285714D01*
X111952380Y-119142857D01*
X111952380Y-119047619D01*
X111904761Y-118904761D01*
X111809523Y-118809523D01*
X111714285Y-118761904D01*
X111523809Y-118714285D01*
X111380952Y-118714285D01*
X111190476Y-118761904D01*
X111095238Y-118809523D01*
X111000000Y-118904761D01*
X110952380Y-119047619D01*
X110952380Y-119142857D01*
X111000000Y-119285714D01*
X111047619Y-119333333D01*
X110952380Y-120238095D02*
X110952380Y-119761904D01*
X111428571Y-119714285D01*
X111380952Y-119761904D01*
X111333333Y-119857142D01*
X111333333Y-120095238D01*
X111380952Y-120190476D01*
X111428571Y-120238095D01*
X111523809Y-120285714D01*
X111761904Y-120285714D01*
X111857142Y-120238095D01*
X111904761Y-120190476D01*
X111952380Y-120095238D01*
X111952380Y-119857142D01*
X111904761Y-119761904D01*
X111857142Y-119714285D01*
%TO.C,C1*%
X108357142Y-118333333D02*
X108404761Y-118285714D01*
X108452380Y-118142857D01*
X108452380Y-118047619D01*
X108404761Y-117904761D01*
X108309523Y-117809523D01*
X108214285Y-117761904D01*
X108023809Y-117714285D01*
X107880952Y-117714285D01*
X107690476Y-117761904D01*
X107595238Y-117809523D01*
X107500000Y-117904761D01*
X107452380Y-118047619D01*
X107452380Y-118142857D01*
X107500000Y-118285714D01*
X107547619Y-118333333D01*
X108452380Y-119285714D02*
X108452380Y-118714285D01*
X108452380Y-119000000D02*
X107452380Y-119000000D01*
X107595238Y-118904761D01*
X107690476Y-118809523D01*
X107738095Y-118714285D01*
%TO.C,C3*%
X110357142Y-119333333D02*
X110404761Y-119285714D01*
X110452380Y-119142857D01*
X110452380Y-119047619D01*
X110404761Y-118904761D01*
X110309523Y-118809523D01*
X110214285Y-118761904D01*
X110023809Y-118714285D01*
X109880952Y-118714285D01*
X109690476Y-118761904D01*
X109595238Y-118809523D01*
X109500000Y-118904761D01*
X109452380Y-119047619D01*
X109452380Y-119142857D01*
X109500000Y-119285714D01*
X109547619Y-119333333D01*
X109452380Y-119666666D02*
X109452380Y-120285714D01*
X109833333Y-119952380D01*
X109833333Y-120095238D01*
X109880952Y-120190476D01*
X109928571Y-120238095D01*
X110023809Y-120285714D01*
X110261904Y-120285714D01*
X110357142Y-120238095D01*
X110404761Y-120190476D01*
X110452380Y-120095238D01*
X110452380Y-119809523D01*
X110404761Y-119714285D01*
X110357142Y-119666666D01*
%TO.C,C8*%
X104857142Y-120833333D02*
X104904761Y-120785714D01*
X104952380Y-120642857D01*
X104952380Y-120547619D01*
X104904761Y-120404761D01*
X104809523Y-120309523D01*
X104714285Y-120261904D01*
X104523809Y-120214285D01*
X104380952Y-120214285D01*
X104190476Y-120261904D01*
X104095238Y-120309523D01*
X104000000Y-120404761D01*
X103952380Y-120547619D01*
X103952380Y-120642857D01*
X104000000Y-120785714D01*
X104047619Y-120833333D01*
X104380952Y-121404761D02*
X104333333Y-121309523D01*
X104285714Y-121261904D01*
X104190476Y-121214285D01*
X104142857Y-121214285D01*
X104047619Y-121261904D01*
X104000000Y-121309523D01*
X103952380Y-121404761D01*
X103952380Y-121595238D01*
X104000000Y-121690476D01*
X104047619Y-121738095D01*
X104142857Y-121785714D01*
X104190476Y-121785714D01*
X104285714Y-121738095D01*
X104333333Y-121690476D01*
X104380952Y-121595238D01*
X104380952Y-121404761D01*
X104428571Y-121309523D01*
X104476190Y-121261904D01*
X104571428Y-121214285D01*
X104761904Y-121214285D01*
X104857142Y-121261904D01*
X104904761Y-121309523D01*
X104952380Y-121404761D01*
X104952380Y-121595238D01*
X104904761Y-121690476D01*
X104857142Y-121738095D01*
X104761904Y-121785714D01*
X104571428Y-121785714D01*
X104476190Y-121738095D01*
X104428571Y-121690476D01*
X104380952Y-121595238D01*
D11*
%TO.C,IC3*%
X101739761Y-122574523D02*
X101739761Y-121304523D01*
X100409285Y-122453571D02*
X100469761Y-122514047D01*
X100651190Y-122574523D01*
X100772142Y-122574523D01*
X100953571Y-122514047D01*
X101074523Y-122393095D01*
X101135000Y-122272142D01*
X101195476Y-122030238D01*
X101195476Y-121848809D01*
X101135000Y-121606904D01*
X101074523Y-121485952D01*
X100953571Y-121365000D01*
X100772142Y-121304523D01*
X100651190Y-121304523D01*
X100469761Y-121365000D01*
X100409285Y-121425476D01*
X99985952Y-121304523D02*
X99199761Y-121304523D01*
X99623095Y-121788333D01*
X99441666Y-121788333D01*
X99320714Y-121848809D01*
X99260238Y-121909285D01*
X99199761Y-122030238D01*
X99199761Y-122332619D01*
X99260238Y-122453571D01*
X99320714Y-122514047D01*
X99441666Y-122574523D01*
X99804523Y-122574523D01*
X99925476Y-122514047D01*
X99985952Y-122453571D01*
D10*
%TO.C,R4*%
X96452380Y-119333333D02*
X95976190Y-119000000D01*
X96452380Y-118761904D02*
X95452380Y-118761904D01*
X95452380Y-119142857D01*
X95500000Y-119238095D01*
X95547619Y-119285714D01*
X95642857Y-119333333D01*
X95785714Y-119333333D01*
X95880952Y-119285714D01*
X95928571Y-119238095D01*
X95976190Y-119142857D01*
X95976190Y-118761904D01*
X95785714Y-120190476D02*
X96452380Y-120190476D01*
X95404761Y-119952380D02*
X96119047Y-119714285D01*
X96119047Y-120333333D01*
%TO.C,R5*%
X103452380Y-127263333D02*
X102976190Y-126930000D01*
X103452380Y-126691904D02*
X102452380Y-126691904D01*
X102452380Y-127072857D01*
X102500000Y-127168095D01*
X102547619Y-127215714D01*
X102642857Y-127263333D01*
X102785714Y-127263333D01*
X102880952Y-127215714D01*
X102928571Y-127168095D01*
X102976190Y-127072857D01*
X102976190Y-126691904D01*
X102452380Y-128168095D02*
X102452380Y-127691904D01*
X102928571Y-127644285D01*
X102880952Y-127691904D01*
X102833333Y-127787142D01*
X102833333Y-128025238D01*
X102880952Y-128120476D01*
X102928571Y-128168095D01*
X103023809Y-128215714D01*
X103261904Y-128215714D01*
X103357142Y-128168095D01*
X103404761Y-128120476D01*
X103452380Y-128025238D01*
X103452380Y-127787142D01*
X103404761Y-127691904D01*
X103357142Y-127644285D01*
%TO.C,C11*%
X96357142Y-128357142D02*
X96404761Y-128309523D01*
X96452380Y-128166666D01*
X96452380Y-128071428D01*
X96404761Y-127928571D01*
X96309523Y-127833333D01*
X96214285Y-127785714D01*
X96023809Y-127738095D01*
X95880952Y-127738095D01*
X95690476Y-127785714D01*
X95595238Y-127833333D01*
X95500000Y-127928571D01*
X95452380Y-128071428D01*
X95452380Y-128166666D01*
X95500000Y-128309523D01*
X95547619Y-128357142D01*
X96452380Y-129309523D02*
X96452380Y-128738095D01*
X96452380Y-129023809D02*
X95452380Y-129023809D01*
X95595238Y-128928571D01*
X95690476Y-128833333D01*
X95738095Y-128738095D01*
X96452380Y-130261904D02*
X96452380Y-129690476D01*
X96452380Y-129976190D02*
X95452380Y-129976190D01*
X95595238Y-129880952D01*
X95690476Y-129785714D01*
X95738095Y-129690476D01*
%TO.C,R2*%
X101452380Y-114333333D02*
X100976190Y-114000000D01*
X101452380Y-113761904D02*
X100452380Y-113761904D01*
X100452380Y-114142857D01*
X100500000Y-114238095D01*
X100547619Y-114285714D01*
X100642857Y-114333333D01*
X100785714Y-114333333D01*
X100880952Y-114285714D01*
X100928571Y-114238095D01*
X100976190Y-114142857D01*
X100976190Y-113761904D01*
X100547619Y-114714285D02*
X100500000Y-114761904D01*
X100452380Y-114857142D01*
X100452380Y-115095238D01*
X100500000Y-115190476D01*
X100547619Y-115238095D01*
X100642857Y-115285714D01*
X100738095Y-115285714D01*
X100880952Y-115238095D01*
X101452380Y-114666666D01*
X101452380Y-115285714D01*
%TO.C,C6*%
X96357142Y-114833333D02*
X96404761Y-114785714D01*
X96452380Y-114642857D01*
X96452380Y-114547619D01*
X96404761Y-114404761D01*
X96309523Y-114309523D01*
X96214285Y-114261904D01*
X96023809Y-114214285D01*
X95880952Y-114214285D01*
X95690476Y-114261904D01*
X95595238Y-114309523D01*
X95500000Y-114404761D01*
X95452380Y-114547619D01*
X95452380Y-114642857D01*
X95500000Y-114785714D01*
X95547619Y-114833333D01*
X95452380Y-115690476D02*
X95452380Y-115500000D01*
X95500000Y-115404761D01*
X95547619Y-115357142D01*
X95690476Y-115261904D01*
X95880952Y-115214285D01*
X96261904Y-115214285D01*
X96357142Y-115261904D01*
X96404761Y-115309523D01*
X96452380Y-115404761D01*
X96452380Y-115595238D01*
X96404761Y-115690476D01*
X96357142Y-115738095D01*
X96261904Y-115785714D01*
X96023809Y-115785714D01*
X95928571Y-115738095D01*
X95880952Y-115690476D01*
X95833333Y-115595238D01*
X95833333Y-115404761D01*
X95880952Y-115309523D01*
X95928571Y-115261904D01*
X96023809Y-115214285D01*
%TO.C,RV1*%
X105699341Y-127771243D02*
X105223151Y-127437910D01*
X105699341Y-127199815D02*
X104699341Y-127199815D01*
X104699341Y-127580767D01*
X104746961Y-127676005D01*
X104794580Y-127723624D01*
X104889818Y-127771243D01*
X105032675Y-127771243D01*
X105127913Y-127723624D01*
X105175532Y-127676005D01*
X105223151Y-127580767D01*
X105223151Y-127199815D01*
X104699341Y-128056958D02*
X105699341Y-128390291D01*
X104699341Y-128723624D01*
X105699341Y-129580767D02*
X105699341Y-129009339D01*
X105699341Y-129295053D02*
X104699341Y-129295053D01*
X104842199Y-129199815D01*
X104937437Y-129104577D01*
X104985056Y-129009339D01*
%TO.C,C4*%
X112357142Y-128833333D02*
X112404761Y-128785714D01*
X112452380Y-128642857D01*
X112452380Y-128547619D01*
X112404761Y-128404761D01*
X112309523Y-128309523D01*
X112214285Y-128261904D01*
X112023809Y-128214285D01*
X111880952Y-128214285D01*
X111690476Y-128261904D01*
X111595238Y-128309523D01*
X111500000Y-128404761D01*
X111452380Y-128547619D01*
X111452380Y-128642857D01*
X111500000Y-128785714D01*
X111547619Y-128833333D01*
X111785714Y-129690476D02*
X112452380Y-129690476D01*
X111404761Y-129452380D02*
X112119047Y-129214285D01*
X112119047Y-129833333D01*
%TO.C,R1*%
X104952380Y-114333333D02*
X104476190Y-114000000D01*
X104952380Y-113761904D02*
X103952380Y-113761904D01*
X103952380Y-114142857D01*
X104000000Y-114238095D01*
X104047619Y-114285714D01*
X104142857Y-114333333D01*
X104285714Y-114333333D01*
X104380952Y-114285714D01*
X104428571Y-114238095D01*
X104476190Y-114142857D01*
X104476190Y-113761904D01*
X104952380Y-115285714D02*
X104952380Y-114714285D01*
X104952380Y-115000000D02*
X103952380Y-115000000D01*
X104095238Y-114904761D01*
X104190476Y-114809523D01*
X104238095Y-114714285D01*
D12*
%TO.C,C15*%
X107265000Y-105761252D02*
X107265000Y-105238748D01*
X108735000Y-105761252D02*
X108735000Y-105238748D01*
%TO.C,C14*%
X109265000Y-105238748D02*
X109265000Y-105761252D01*
X110735000Y-105238748D02*
X110735000Y-105761252D01*
%TO.C,C5*%
X111735000Y-122261252D02*
X111735000Y-121738748D01*
X110265000Y-122261252D02*
X110265000Y-121738748D01*
%TO.C,C1*%
X107235000Y-119238748D02*
X107235000Y-119761252D01*
X105765000Y-119238748D02*
X105765000Y-119761252D01*
%TO.C,C3*%
X109735000Y-121738748D02*
X109735000Y-122261252D01*
X108265000Y-121738748D02*
X108265000Y-122261252D01*
%TO.C,C8*%
X105903757Y-121988880D02*
X106426261Y-121988880D01*
X105903757Y-123458880D02*
X106426261Y-123458880D01*
D13*
%TO.C,IC3*%
X103525000Y-119750000D02*
G75*
G03*
X103525000Y-119750000I-125000J0D01*
G01*
D12*
%TO.C,R4*%
X96522500Y-121762742D02*
X96522500Y-122237258D01*
X95477500Y-121762742D02*
X95477500Y-122237258D01*
%TO.C,R5*%
X102262742Y-126522500D02*
X102737258Y-126522500D01*
X102262742Y-125477500D02*
X102737258Y-125477500D01*
%TO.C,C11*%
X96738748Y-127235000D02*
X97261252Y-127235000D01*
X96738748Y-125765000D02*
X97261252Y-125765000D01*
%TO.C,R2*%
X102360000Y-116027064D02*
X102360000Y-112972936D01*
X99640000Y-116027064D02*
X99640000Y-112972936D01*
%TO.C,C6*%
X97238748Y-117735000D02*
X97761252Y-117735000D01*
X97238748Y-116265000D02*
X97761252Y-116265000D01*
%TO.C,RV1*%
X110870000Y-126941000D02*
X110870000Y-133145000D01*
X108740000Y-133145000D02*
X110870000Y-133145000D01*
X104129000Y-126941000D02*
X104129000Y-133145000D01*
X106591000Y-126405000D02*
X108410000Y-126405000D01*
X104129000Y-133145000D02*
X106260000Y-133145000D01*
%TO.C,C4*%
X112735000Y-131188748D02*
X112735000Y-131711252D01*
X111265000Y-131188748D02*
X111265000Y-131711252D01*
%TO.C,R1*%
X103140000Y-116027064D02*
X103140000Y-112972936D01*
X105860000Y-116027064D02*
X105860000Y-112972936D01*
%TD*%
M02*
