M48
; DRILL file {KiCad (6.0.5)} date Thu Jun  2 01:50:44 2022
; FORMAT={-:-/ absolute / inch / decimal}
; #@! TF.CreationDate,2022-06-02T01:50:44+02:00
; #@! TF.GenerationSoftware,Kicad,Pcbnew,(6.0.5)
; #@! TF.FileFunction,Plated,1,2,PTH
FMAT,2
INCH
; #@! TA.AperFunction,Plated,PTH,ViaDrill
T1C0.0079
; #@! TA.AperFunction,Plated,PTH,ViaDrill
T2C0.0098
; #@! TA.AperFunction,Plated,PTH,ComponentDrill
T3C0.0374
; #@! TA.AperFunction,Plated,PTH,ComponentDrill
T4C0.0394
%
G90
G05
T1
X3.7668Y-4.8771
X3.7795Y-3.9567
X3.7795Y-5.1772
X3.7995Y-4.8847
X3.8039Y-4.677
X3.8201Y-4.8227
X3.8268Y-4.8001
X3.878Y-4.9006
X3.8917Y-4.9547
X3.938Y-4.6457
X3.9385Y-4.9526
X3.9715Y-4.9601
X3.9754Y-4.6774
X4.0006Y-4.9951
X4.0354Y-4.1732
X4.0551Y-5.2953
X4.0553Y-4.7157
X4.0748Y-5.0403
X4.1151Y-4.7274
X4.2126Y-4.1142
X4.2126Y-4.2323
X4.252Y-4.3701
X4.2913Y-4.4685
X4.3307Y-5.0984
X4.3307Y-5.2953
X4.3834Y-4.9824
X4.3837Y-4.876
X4.5276Y-4.5669
X4.5669Y-4.8228
X4.6502Y-5.0061
X4.6759Y-4.8826
X4.7047Y-4.2126
X4.7047Y-4.3898
X4.7244Y-4.6654
X4.8228Y-5.0984
X4.8594Y-4.9276
X4.9213Y-5.1575
X4.9409Y-4.1535
X5.0197Y-3.7992
X5.0197Y-4.6654
X5.0591Y-4.5866
X5.1181Y-4.9016
X5.1867Y-4.8153
X5.2033Y-4.7276
X5.2559Y-4.4882
X5.2559Y-4.9606
X5.2805Y-4.6907
T2
X3.8976Y-4.7441
X3.8976Y-4.8031
X3.8976Y-4.8622
X3.9272Y-4.7736
X3.9272Y-4.8327
X3.9567Y-4.7441
X3.9567Y-4.8031
X3.9567Y-4.8622
X3.9862Y-4.7736
X3.9862Y-4.8327
X4.0157Y-4.7441
X4.0157Y-4.8031
X4.0157Y-4.8622
T3
X3.8573Y-4.2028
X3.8573Y-4.3012
X3.8573Y-4.3996
X3.8573Y-4.498
T4
X4.7726Y-5.2756
X4.8726Y-5.2756
X5.2382Y-4.2126
X5.2382Y-4.311
T0
M30
