%TF.GenerationSoftware,KiCad,Pcbnew,(6.0.5)*%
%TF.CreationDate,2022-06-02T01:51:08+02:00*%
%TF.ProjectId,Hardware,48617264-7761-4726-952e-6b696361645f,rev?*%
%TF.SameCoordinates,Original*%
%TF.FileFunction,Paste,Top*%
%TF.FilePolarity,Positive*%
%FSLAX46Y46*%
G04 Gerber Fmt 4.6, Leading zero omitted, Abs format (unit mm)*
G04 Created by KiCad (PCBNEW (6.0.5)) date 2022-06-02 01:51:08*
%MOMM*%
%LPD*%
G01*
G04 APERTURE LIST*
G04 Aperture macros list*
%AMRoundRect*
0 Rectangle with rounded corners*
0 $1 Rounding radius*
0 $2 $3 $4 $5 $6 $7 $8 $9 X,Y pos of 4 corners*
0 Add a 4 corners polygon primitive as box body*
4,1,4,$2,$3,$4,$5,$6,$7,$8,$9,$2,$3,0*
0 Add four circle primitives for the rounded corners*
1,1,$1+$1,$2,$3*
1,1,$1+$1,$4,$5*
1,1,$1+$1,$6,$7*
1,1,$1+$1,$8,$9*
0 Add four rect primitives between the rounded corners*
20,1,$1+$1,$2,$3,$4,$5,0*
20,1,$1+$1,$4,$5,$6,$7,0*
20,1,$1+$1,$6,$7,$8,$9,0*
20,1,$1+$1,$8,$9,$2,$3,0*%
G04 Aperture macros list end*
%ADD10R,1.500000X0.900000*%
%ADD11R,0.900000X1.500000*%
%ADD12R,0.900000X0.900000*%
%ADD13RoundRect,0.250000X0.475000X-0.250000X0.475000X0.250000X-0.475000X0.250000X-0.475000X-0.250000X0*%
%ADD14R,1.700000X0.900000*%
%ADD15R,0.300000X0.800000*%
%ADD16R,2.480000X1.750000*%
%ADD17RoundRect,0.200000X-0.275000X0.200000X-0.275000X-0.200000X0.275000X-0.200000X0.275000X0.200000X0*%
%ADD18RoundRect,0.218750X-0.256250X0.218750X-0.256250X-0.218750X0.256250X-0.218750X0.256250X0.218750X0*%
%ADD19RoundRect,0.250000X0.250000X0.475000X-0.250000X0.475000X-0.250000X-0.475000X0.250000X-0.475000X0*%
%ADD20RoundRect,0.200000X-0.200000X-0.275000X0.200000X-0.275000X0.200000X0.275000X-0.200000X0.275000X0*%
%ADD21RoundRect,0.218750X-0.218750X-0.381250X0.218750X-0.381250X0.218750X0.381250X-0.218750X0.381250X0*%
%ADD22R,0.900000X1.700000*%
%ADD23RoundRect,0.200000X0.275000X-0.200000X0.275000X0.200000X-0.275000X0.200000X-0.275000X-0.200000X0*%
%ADD24RoundRect,0.250000X-0.250000X-0.475000X0.250000X-0.475000X0.250000X0.475000X-0.250000X0.475000X0*%
G04 APERTURE END LIST*
D10*
%TO.C,IC1*%
X105750000Y-103490000D03*
X105750000Y-104760000D03*
X105750000Y-106030000D03*
X105750000Y-107300000D03*
X105750000Y-108570000D03*
X105750000Y-109840000D03*
X105750000Y-111110000D03*
X105750000Y-112380000D03*
X105750000Y-113650000D03*
X105750000Y-114920000D03*
X105750000Y-116190000D03*
X105750000Y-117460000D03*
X105750000Y-118730000D03*
X105750000Y-120000000D03*
D11*
X107515000Y-121250000D03*
X108785000Y-121250000D03*
X110055000Y-121250000D03*
X111325000Y-121250000D03*
X112595000Y-121250000D03*
X113865000Y-121250000D03*
X115135000Y-121250000D03*
X116405000Y-121250000D03*
X117675000Y-121250000D03*
X118945000Y-121250000D03*
X120215000Y-121250000D03*
X121485000Y-121250000D03*
D10*
X123250000Y-120000000D03*
X123250000Y-118730000D03*
X123250000Y-117460000D03*
X123250000Y-116190000D03*
X123250000Y-114920000D03*
X123250000Y-113650000D03*
X123250000Y-112380000D03*
X123250000Y-111110000D03*
X123250000Y-109840000D03*
X123250000Y-108570000D03*
X123250000Y-107300000D03*
X123250000Y-106030000D03*
X123250000Y-104760000D03*
X123250000Y-103490000D03*
D12*
X113000000Y-111210000D03*
X113000000Y-109810000D03*
X111600000Y-109810000D03*
X111600000Y-111210000D03*
X111600000Y-112610000D03*
X113000000Y-112610000D03*
X114400000Y-112610000D03*
X114400000Y-111210000D03*
X114400000Y-109810000D03*
%TD*%
D13*
%TO.C,C12*%
X127500000Y-104450000D03*
X127500000Y-102550000D03*
%TD*%
D14*
%TO.C,SW1*%
X126000000Y-108800000D03*
X126000000Y-112200000D03*
%TD*%
D15*
%TO.C,IC2*%
X132000000Y-116000000D03*
X131500000Y-116000000D03*
X131000000Y-116000000D03*
X130500000Y-116000000D03*
X130000000Y-116000000D03*
X130000000Y-119000000D03*
X130500000Y-119000000D03*
X131000000Y-119000000D03*
X131500000Y-119000000D03*
X132000000Y-119000000D03*
D16*
X131000000Y-117500000D03*
%TD*%
D17*
%TO.C,R10*%
X126000000Y-125175000D03*
X126000000Y-126825000D03*
%TD*%
D18*
%TO.C,D1*%
X115000000Y-127212500D03*
X115000000Y-128787500D03*
%TD*%
D17*
%TO.C,R9*%
X126000000Y-122175000D03*
X126000000Y-123825000D03*
%TD*%
D19*
%TO.C,C9*%
X129950000Y-121000000D03*
X128050000Y-121000000D03*
%TD*%
D20*
%TO.C,R3*%
X134825000Y-120500000D03*
X133175000Y-120500000D03*
%TD*%
D21*
%TO.C,L1*%
X128437500Y-123000000D03*
X130562500Y-123000000D03*
%TD*%
D13*
%TO.C,C13*%
X126000000Y-100950000D03*
X126000000Y-99050000D03*
%TD*%
D22*
%TO.C,SW2*%
X117700000Y-132500000D03*
X114300000Y-132500000D03*
%TD*%
D23*
%TO.C,R8*%
X104000000Y-115825000D03*
X104000000Y-114175000D03*
%TD*%
%TO.C,R6*%
X125500000Y-104325000D03*
X125500000Y-102675000D03*
%TD*%
D24*
%TO.C,C2*%
X129050000Y-114000000D03*
X130950000Y-114000000D03*
%TD*%
D23*
%TO.C,R7*%
X117000000Y-127175000D03*
X117000000Y-128825000D03*
%TD*%
D17*
%TO.C,R11*%
X124500000Y-125175000D03*
X124500000Y-126825000D03*
%TD*%
D13*
%TO.C,C10*%
X134000000Y-117950000D03*
X134000000Y-116050000D03*
%TD*%
M02*
