%TF.GenerationSoftware,KiCad,Pcbnew,(6.0.5)*%
%TF.CreationDate,2022-06-02T01:51:08+02:00*%
%TF.ProjectId,Hardware,48617264-7761-4726-952e-6b696361645f,rev?*%
%TF.SameCoordinates,Original*%
%TF.FileFunction,Copper,L2,Bot*%
%TF.FilePolarity,Positive*%
%FSLAX46Y46*%
G04 Gerber Fmt 4.6, Leading zero omitted, Abs format (unit mm)*
G04 Created by KiCad (PCBNEW (6.0.5)) date 2022-06-02 01:51:08*
%MOMM*%
%LPD*%
G01*
G04 APERTURE LIST*
G04 Aperture macros list*
%AMRoundRect*
0 Rectangle with rounded corners*
0 $1 Rounding radius*
0 $2 $3 $4 $5 $6 $7 $8 $9 X,Y pos of 4 corners*
0 Add a 4 corners polygon primitive as box body*
4,1,4,$2,$3,$4,$5,$6,$7,$8,$9,$2,$3,0*
0 Add four circle primitives for the rounded corners*
1,1,$1+$1,$2,$3*
1,1,$1+$1,$4,$5*
1,1,$1+$1,$6,$7*
1,1,$1+$1,$8,$9*
0 Add four rect primitives between the rounded corners*
20,1,$1+$1,$2,$3,$4,$5,0*
20,1,$1+$1,$4,$5,$6,$7,0*
20,1,$1+$1,$6,$7,$8,$9,0*
20,1,$1+$1,$8,$9,$2,$3,0*%
G04 Aperture macros list end*
%TA.AperFunction,ComponentPad*%
%ADD10RoundRect,0.250000X0.725000X-0.600000X0.725000X0.600000X-0.725000X0.600000X-0.725000X-0.600000X0*%
%TD*%
%TA.AperFunction,ComponentPad*%
%ADD11O,1.950000X1.700000*%
%TD*%
%TA.AperFunction,ComponentPad*%
%ADD12O,2.000000X1.700000*%
%TD*%
%TA.AperFunction,ComponentPad*%
%ADD13RoundRect,0.250000X-0.750000X0.600000X-0.750000X-0.600000X0.750000X-0.600000X0.750000X0.600000X0*%
%TD*%
%TA.AperFunction,SMDPad,CuDef*%
%ADD14RoundRect,0.250000X0.475000X-0.250000X0.475000X0.250000X-0.475000X0.250000X-0.475000X-0.250000X0*%
%TD*%
%TA.AperFunction,ComponentPad*%
%ADD15O,1.700000X1.700000*%
%TD*%
%TA.AperFunction,ComponentPad*%
%ADD16R,1.700000X1.700000*%
%TD*%
%TA.AperFunction,SMDPad,CuDef*%
%ADD17RoundRect,0.250000X-0.475000X0.250000X-0.475000X-0.250000X0.475000X-0.250000X0.475000X0.250000X0*%
%TD*%
%TA.AperFunction,SMDPad,CuDef*%
%ADD18RoundRect,0.250000X-0.250000X-0.475000X0.250000X-0.475000X0.250000X0.475000X-0.250000X0.475000X0*%
%TD*%
%TA.AperFunction,SMDPad,CuDef*%
%ADD19R,0.800000X0.300000*%
%TD*%
%TA.AperFunction,SMDPad,CuDef*%
%ADD20R,0.300000X0.800000*%
%TD*%
%TA.AperFunction,SMDPad,CuDef*%
%ADD21R,3.800000X3.800000*%
%TD*%
%TA.AperFunction,SMDPad,CuDef*%
%ADD22RoundRect,0.200000X-0.275000X0.200000X-0.275000X-0.200000X0.275000X-0.200000X0.275000X0.200000X0*%
%TD*%
%TA.AperFunction,SMDPad,CuDef*%
%ADD23RoundRect,0.200000X-0.200000X-0.275000X0.200000X-0.275000X0.200000X0.275000X-0.200000X0.275000X0*%
%TD*%
%TA.AperFunction,SMDPad,CuDef*%
%ADD24RoundRect,0.250000X1.075000X-0.362500X1.075000X0.362500X-1.075000X0.362500X-1.075000X-0.362500X0*%
%TD*%
%TA.AperFunction,SMDPad,CuDef*%
%ADD25R,2.000000X2.500000*%
%TD*%
%TA.AperFunction,ViaPad*%
%ADD26C,0.400000*%
%TD*%
%TA.AperFunction,ViaPad*%
%ADD27C,0.500000*%
%TD*%
%TA.AperFunction,Conductor*%
%ADD28C,0.250000*%
%TD*%
G04 APERTURE END LIST*
D10*
%TO.P,J2,1,Pin_1*%
%TO.N,/B2*%
X97975000Y-114250000D03*
D11*
%TO.P,J2,2,Pin_2*%
%TO.N,/B1*%
X97975000Y-111750000D03*
%TO.P,J2,3,Pin_3*%
%TO.N,/A2*%
X97975000Y-109250000D03*
%TO.P,J2,4,Pin_4*%
%TO.N,/A1*%
X97975000Y-106750000D03*
%TD*%
D12*
%TO.P,J1,2,Pin_2*%
%TO.N,/VS_input*%
X133050000Y-109500000D03*
D13*
%TO.P,J1,1,Pin_1*%
%TO.N,GND*%
X133050000Y-107000000D03*
%TD*%
D14*
%TO.P,C15,1*%
%TO.N,GND*%
X108000000Y-106450000D03*
%TO.P,C15,2*%
%TO.N,+3V3*%
X108000000Y-104550000D03*
%TD*%
D15*
%TO.P,J3,2,Pin_2*%
%TO.N,GND*%
X123765000Y-134000000D03*
D16*
%TO.P,J3,1,Pin_1*%
%TO.N,Net-(IC1-Pad27)*%
X121225000Y-134000000D03*
%TD*%
D17*
%TO.P,C14,1*%
%TO.N,+3V3*%
X110000000Y-104550000D03*
%TO.P,C14,2*%
%TO.N,GND*%
X110000000Y-106450000D03*
%TD*%
D14*
%TO.P,C5,1*%
%TO.N,GND*%
X111000000Y-122950000D03*
%TO.P,C5,2*%
%TO.N,/VS_input*%
X111000000Y-121050000D03*
%TD*%
D17*
%TO.P,C1,1*%
%TO.N,Net-(C1-Pad1)*%
X106500000Y-118550000D03*
%TO.P,C1,2*%
%TO.N,Net-(C1-Pad2)*%
X106500000Y-120450000D03*
%TD*%
%TO.P,C3,1*%
%TO.N,/VS_input*%
X109000000Y-121050000D03*
%TO.P,C3,2*%
%TO.N,GND*%
X109000000Y-122950000D03*
%TD*%
D18*
%TO.P,C8,1*%
%TO.N,Net-(C8-Pad1)*%
X105215009Y-122723880D03*
%TO.P,C8,2*%
%TO.N,/VS_input*%
X107115009Y-122723880D03*
%TD*%
D19*
%TO.P,IC3,1,OB2*%
%TO.N,/B2*%
X103000000Y-120500000D03*
%TO.P,IC3,2,ENN*%
%TO.N,/TMC_en*%
X103000000Y-121000000D03*
%TO.P,IC3,3,GND_1*%
%TO.N,GND*%
X103000000Y-121500000D03*
%TO.P,IC3,4,CPO*%
%TO.N,Net-(C1-Pad1)*%
X103000000Y-122000000D03*
%TO.P,IC3,5,CPI*%
%TO.N,Net-(C1-Pad2)*%
X103000000Y-122500000D03*
%TO.P,IC3,6,VCP*%
%TO.N,Net-(C8-Pad1)*%
X103000000Y-123000000D03*
%TO.P,IC3,7,SPREAD*%
%TO.N,unconnected-(IC3-Pad7)*%
X103000000Y-123500000D03*
D20*
%TO.P,IC3,8,5VOUT*%
%TO.N,unconnected-(IC3-Pad8)*%
X102000000Y-124500000D03*
%TO.P,IC3,9,MS1_AD0*%
%TO.N,unconnected-(IC3-Pad9)*%
X101500000Y-124500000D03*
%TO.P,IC3,10,MS2_AD1*%
%TO.N,unconnected-(IC3-Pad10)*%
X101000000Y-124500000D03*
%TO.P,IC3,11,DIAG*%
%TO.N,/TMC_diag*%
X100500000Y-124500000D03*
%TO.P,IC3,12,INDEX*%
%TO.N,/TMC_index*%
X100000000Y-124500000D03*
%TO.P,IC3,13,CLK*%
%TO.N,GND*%
X99500000Y-124500000D03*
%TO.P,IC3,14,PDN_UART*%
%TO.N,/TMC_uart*%
X99000000Y-124500000D03*
D19*
%TO.P,IC3,15,VCC_IO*%
%TO.N,+3V3*%
X98000000Y-123500000D03*
%TO.P,IC3,16,STEP*%
%TO.N,/TMC_step*%
X98000000Y-123000000D03*
%TO.P,IC3,17,VREF*%
%TO.N,Net-(IC3-Pad17)*%
X98000000Y-122500000D03*
%TO.P,IC3,18,GND_2*%
%TO.N,GND*%
X98000000Y-122000000D03*
%TO.P,IC3,19,DIR*%
%TO.N,/TMC_dir*%
X98000000Y-121500000D03*
%TO.P,IC3,20,STDBY*%
%TO.N,Net-(IC3-Pad20)*%
X98000000Y-121000000D03*
%TO.P,IC3,21,OA2*%
%TO.N,/A2*%
X98000000Y-120500000D03*
D20*
%TO.P,IC3,22,VS_1*%
%TO.N,/VS_input*%
X99000000Y-119500000D03*
%TO.P,IC3,23,BRA*%
%TO.N,Net-(IC3-Pad23)*%
X99500000Y-119500000D03*
%TO.P,IC3,24,OA1*%
%TO.N,/A1*%
X100000000Y-119500000D03*
%TO.P,IC3,25,NC*%
%TO.N,unconnected-(IC3-Pad25)*%
X100500000Y-119500000D03*
%TO.P,IC3,26,OB1*%
%TO.N,/B1*%
X101000000Y-119500000D03*
%TO.P,IC3,27,BRB*%
%TO.N,Net-(IC3-Pad27)*%
X101500000Y-119500000D03*
%TO.P,IC3,28,VS_2*%
%TO.N,/VS_input*%
X102000000Y-119500000D03*
D21*
%TO.P,IC3,29,EP*%
%TO.N,GND*%
X100500000Y-122000000D03*
%TD*%
D22*
%TO.P,R4,1*%
%TO.N,Net-(IC3-Pad20)*%
X96000000Y-121175000D03*
%TO.P,R4,2*%
%TO.N,GND*%
X96000000Y-122825000D03*
%TD*%
D23*
%TO.P,R5,1*%
%TO.N,+3V3*%
X101675000Y-126000000D03*
%TO.P,R5,2*%
%TO.N,Net-(R5-Pad2)*%
X103325000Y-126000000D03*
%TD*%
D18*
%TO.P,C11,2*%
%TO.N,GND*%
X97950000Y-126500000D03*
%TO.P,C11,1*%
%TO.N,+3V3*%
X96050000Y-126500000D03*
%TD*%
D24*
%TO.P,R2,1*%
%TO.N,Net-(IC3-Pad23)*%
X101000000Y-116812500D03*
%TO.P,R2,2*%
%TO.N,GND*%
X101000000Y-112187500D03*
%TD*%
D18*
%TO.P,C6,1*%
%TO.N,GND*%
X96550000Y-117000000D03*
%TO.P,C6,2*%
%TO.N,/VS_input*%
X98450000Y-117000000D03*
%TD*%
D25*
%TO.P,RV1,1,1*%
%TO.N,GND*%
X109650000Y-125450000D03*
%TO.P,RV1,2,2*%
%TO.N,Net-(IC3-Pad17)*%
X107500000Y-134100000D03*
%TO.P,RV1,3,3*%
%TO.N,Net-(R5-Pad2)*%
X105350000Y-125450000D03*
%TD*%
D17*
%TO.P,C4,2*%
%TO.N,GND*%
X112000000Y-132400000D03*
%TO.P,C4,1*%
%TO.N,/VS_input*%
X112000000Y-130500000D03*
%TD*%
D24*
%TO.P,R1,1*%
%TO.N,Net-(IC3-Pad27)*%
X104500000Y-116812500D03*
%TO.P,R1,2*%
%TO.N,GND*%
X104500000Y-112187500D03*
%TD*%
D26*
%TO.N,GND*%
X133500000Y-114000000D03*
X134125474Y-119144247D03*
X132164686Y-120080677D03*
X131742633Y-122309644D03*
X127500000Y-118500000D03*
X128500000Y-116500000D03*
X95677521Y-123877556D03*
X98849511Y-125849511D03*
X96618702Y-118795568D03*
X110000000Y-129500000D03*
X110000000Y-134500000D03*
X96000000Y-131500000D03*
X103000000Y-134500000D03*
X96000000Y-100500000D03*
X127500000Y-96500000D03*
X102500000Y-106000000D03*
X119500000Y-107000000D03*
X119500000Y-111500000D03*
X120000000Y-118500000D03*
X115000000Y-116000000D03*
X133500000Y-126000000D03*
X125000000Y-131000000D03*
%TO.N,+3V3*%
X130000000Y-124500000D03*
X118115692Y-127154706D03*
X103499999Y-128024500D03*
%TO.N,/VS_input*%
X122500000Y-129500000D03*
%TO.N,/HK-button*%
X109000000Y-113500000D03*
X118768555Y-124018984D03*
%TO.N,/HK_led*%
X116000000Y-122500000D03*
X108000000Y-111000000D03*
%TO.N,+3V3*%
X125500000Y-105500000D03*
X107000000Y-104500000D03*
%TO.N,/ADC_battery*%
X123429657Y-125161478D03*
X107000000Y-107500000D03*
%TO.N,/TMC_dir*%
X97200498Y-121922433D03*
%TO.N,/TMC_step*%
X111345826Y-123849500D03*
X96506623Y-124072052D03*
X111339231Y-126553289D03*
%TO.N,/TMC_en*%
X104524500Y-120075062D03*
%TO.N,/TMC_index*%
X100036760Y-125796366D03*
%TO.N,/TMC_diag*%
X100875500Y-125985622D03*
%TO.N,/TMC_uart*%
X98500000Y-124475500D03*
%TO.N,Net-(IC3-Pad17)*%
X101615654Y-126874500D03*
X97031123Y-122497510D03*
D27*
%TO.N,GND*%
X99750000Y-122750000D03*
X101250000Y-122750000D03*
X101250000Y-121250000D03*
X99750000Y-121250000D03*
X100500000Y-123500000D03*
X100500000Y-120500000D03*
X100500000Y-122000000D03*
X102000000Y-122000000D03*
X99000000Y-122000000D03*
X99000000Y-123500000D03*
X102000000Y-123500000D03*
X102000000Y-120500000D03*
X99000000Y-120500000D03*
D26*
%TO.N,/A1*%
X100024500Y-118000000D03*
%TO.N,/B1*%
X100975500Y-118806718D03*
%TO.N,/B2*%
X103004215Y-119779353D03*
%TD*%
D28*
%TO.N,/TMC_diag*%
X100875500Y-125893334D02*
X100500000Y-125517834D01*
X100875500Y-125985622D02*
X100875500Y-125893334D01*
X100500000Y-125517834D02*
X100500000Y-124500000D01*
%TO.N,GND*%
X102000000Y-121800978D02*
X102000000Y-122000000D01*
X102300978Y-121500000D02*
X102000000Y-121800978D01*
X103000000Y-121500000D02*
X102300978Y-121500000D01*
X98000000Y-122000000D02*
X99000000Y-122000000D01*
X99199022Y-123500000D02*
X99000000Y-123500000D01*
X99500000Y-123800978D02*
X99199022Y-123500000D01*
X99500000Y-124500000D02*
X99500000Y-123800978D01*
X110350000Y-123600000D02*
X111000000Y-122950000D01*
X109650000Y-123600000D02*
X110350000Y-123600000D01*
X109650000Y-123600000D02*
X109000000Y-122950000D01*
X109650000Y-125450000D02*
X109650000Y-123600000D01*
X96000000Y-123555077D02*
X95677521Y-123877556D01*
X96000000Y-122825000D02*
X96000000Y-123555077D01*
%TO.N,Net-(IC3-Pad20)*%
X96175000Y-121000000D02*
X96000000Y-121175000D01*
X98000000Y-121000000D02*
X96175000Y-121000000D01*
%TO.N,/TMC_step*%
X97300978Y-123000000D02*
X98000000Y-123000000D01*
X97275489Y-123025489D02*
X97300978Y-123000000D01*
X96520691Y-124072052D02*
X97275489Y-123317254D01*
X97275489Y-123317254D02*
X97275489Y-123025489D01*
X96506623Y-124072052D02*
X96520691Y-124072052D01*
%TO.N,GND*%
X98849511Y-125849511D02*
X99500000Y-125199022D01*
X99500000Y-125199022D02*
X99500000Y-124500000D01*
X98199022Y-126500000D02*
X98849511Y-125849511D01*
X97950000Y-126500000D02*
X98199022Y-126500000D01*
%TO.N,/TMC_index*%
X100000000Y-125150000D02*
X100000000Y-124500000D01*
X100036760Y-125796366D02*
X100036760Y-125186760D01*
X100036760Y-125186760D02*
X100000000Y-125150000D01*
%TO.N,+3V3*%
X122345294Y-127154706D02*
X123500000Y-126000000D01*
X118115692Y-127154706D02*
X122345294Y-127154706D01*
X128500000Y-126000000D02*
X130000000Y-124500000D01*
X123500000Y-126000000D02*
X127000000Y-126000000D01*
X127000000Y-126000000D02*
X128500000Y-126000000D01*
%TO.N,/HK-button*%
X118768555Y-123268555D02*
X109000000Y-113500000D01*
X118768555Y-124018984D02*
X118768555Y-123268555D01*
%TO.N,+3V3*%
X101000000Y-127000618D02*
X101000000Y-127000000D01*
X101499382Y-127500000D02*
X101000000Y-127000618D01*
X102975499Y-127500000D02*
X101499382Y-127500000D01*
X103499999Y-128024500D02*
X102975499Y-127500000D01*
%TO.N,/VS_input*%
X121500000Y-130500000D02*
X112000000Y-130500000D01*
X122500000Y-129500000D02*
X121500000Y-130500000D01*
%TO.N,/HK_led*%
X108000000Y-113500000D02*
X108000000Y-111000000D01*
X108000000Y-114500000D02*
X108000000Y-113500000D01*
X116000000Y-122500000D02*
X108000000Y-114500000D01*
%TO.N,+3V3*%
X125000000Y-106000000D02*
X125500000Y-105500000D01*
X124500000Y-106000000D02*
X125000000Y-106000000D01*
X123050000Y-104550000D02*
X124500000Y-106000000D01*
X110000000Y-104550000D02*
X123050000Y-104550000D01*
X108000000Y-104550000D02*
X110000000Y-104550000D01*
X107950000Y-104500000D02*
X108000000Y-104550000D01*
X107000000Y-104500000D02*
X107950000Y-104500000D01*
%TO.N,/ADC_battery*%
X117161478Y-125161478D02*
X123429657Y-125161478D01*
X116000000Y-124000000D02*
X117161478Y-125161478D01*
X107000000Y-115000000D02*
X116000000Y-124000000D01*
X107000000Y-107500000D02*
X107000000Y-115000000D01*
%TO.N,/TMC_dir*%
X97436696Y-121500000D02*
X98000000Y-121500000D01*
X97200498Y-121736198D02*
X97436696Y-121500000D01*
X97200498Y-121922433D02*
X97200498Y-121736198D01*
%TO.N,+3V3*%
X101000000Y-126675000D02*
X101675000Y-126000000D01*
X99000000Y-127000000D02*
X101000000Y-127000000D01*
X98450480Y-127549520D02*
X99000000Y-127000000D01*
X97049520Y-127549520D02*
X98450480Y-127549520D01*
X96050000Y-126550000D02*
X97049520Y-127549520D01*
X96050000Y-126500000D02*
X96050000Y-126550000D01*
X101000000Y-127000000D02*
X101000000Y-126675000D01*
%TO.N,/TMC_step*%
X111326042Y-126540100D02*
X111339231Y-126553289D01*
X111326042Y-123869284D02*
X111326042Y-126540100D01*
X111345826Y-123849500D02*
X111326042Y-123869284D01*
%TO.N,+3V3*%
X97853321Y-123500000D02*
X98000000Y-123500000D01*
X97319160Y-124034161D02*
X97853321Y-123500000D01*
X97319160Y-125230840D02*
X97319160Y-124034161D01*
X96050000Y-126500000D02*
X97319160Y-125230840D01*
%TO.N,Net-(IC3-Pad17)*%
X104500000Y-131100000D02*
X107500000Y-134100000D01*
X103483167Y-126874500D02*
X104500000Y-127891333D01*
X104500000Y-127891333D02*
X104500000Y-131100000D01*
X101615654Y-126874500D02*
X103483167Y-126874500D01*
%TO.N,/TMC_en*%
X103599562Y-121000000D02*
X103000000Y-121000000D01*
X104524500Y-120075062D02*
X103599562Y-121000000D01*
%TO.N,/TMC_uart*%
X98975500Y-124475500D02*
X99000000Y-124500000D01*
X98500000Y-124475500D02*
X98975500Y-124475500D01*
%TO.N,Net-(IC3-Pad17)*%
X97997510Y-122497510D02*
X98000000Y-122500000D01*
X97031123Y-122497510D02*
X97997510Y-122497510D01*
%TO.N,/A1*%
X100024500Y-119475500D02*
X100000000Y-119500000D01*
X100024500Y-118000000D02*
X100024500Y-119475500D01*
%TO.N,/B1*%
X100975500Y-118806718D02*
X100975500Y-119475500D01*
X100975500Y-119475500D02*
X101000000Y-119500000D01*
%TO.N,Net-(IC3-Pad23)*%
X100187500Y-116812500D02*
X101000000Y-116812500D01*
X99500000Y-117500000D02*
X100187500Y-116812500D01*
X99500000Y-119500000D02*
X99500000Y-117500000D01*
%TO.N,/B2*%
X103000000Y-119783568D02*
X103004215Y-119779353D01*
X103000000Y-120500000D02*
X103000000Y-119783568D01*
%TO.N,/VS_input*%
X107950000Y-121050000D02*
X109000000Y-121050000D01*
X107115009Y-121884991D02*
X107950000Y-121050000D01*
X107115009Y-122723880D02*
X107115009Y-121884991D01*
%TO.N,Net-(C8-Pad1)*%
X104938889Y-123000000D02*
X105215009Y-122723880D01*
X103000000Y-123000000D02*
X104938889Y-123000000D01*
%TO.N,/A2*%
X96750000Y-109250000D02*
X97975000Y-109250000D01*
X95500000Y-110500000D02*
X96750000Y-109250000D01*
X95500000Y-120000000D02*
X95500000Y-110500000D01*
X96000000Y-120500000D02*
X95500000Y-120000000D01*
X98000000Y-120500000D02*
X96000000Y-120500000D01*
%TO.N,Net-(C1-Pad2)*%
X105884740Y-120450000D02*
X106500000Y-120450000D01*
X103834740Y-122500000D02*
X105884740Y-120450000D01*
X103000000Y-122500000D02*
X103834740Y-122500000D01*
%TO.N,Net-(C1-Pad1)*%
X105342541Y-118857336D02*
X105649877Y-118550000D01*
X105649877Y-118550000D02*
X106500000Y-118550000D01*
X105342541Y-120356481D02*
X105342541Y-118857336D01*
X103699022Y-122000000D02*
X105342541Y-120356481D01*
X103000000Y-122000000D02*
X103699022Y-122000000D01*
%TO.N,/VS_input*%
X110550000Y-121000000D02*
X110500000Y-121050000D01*
X112000000Y-121000000D02*
X110550000Y-121000000D01*
X112500000Y-121500000D02*
X112000000Y-121000000D01*
X112500000Y-124500000D02*
X112500000Y-121500000D01*
X112000000Y-125000000D02*
X112500000Y-124500000D01*
X112000000Y-130500000D02*
X112000000Y-125000000D01*
X110500000Y-121050000D02*
X108500000Y-121050000D01*
X108500000Y-118500000D02*
X107725480Y-117725480D01*
X108500000Y-121050000D02*
X108500000Y-118500000D01*
X107725480Y-117725480D02*
X106774520Y-117725480D01*
X98450000Y-116050000D02*
X98450000Y-117000000D01*
X99000000Y-115500000D02*
X98450000Y-116050000D01*
X106000000Y-115500000D02*
X99000000Y-115500000D01*
X106500000Y-116000000D02*
X106000000Y-115500000D01*
X106500000Y-117450960D02*
X106500000Y-116000000D01*
X106774520Y-117725480D02*
X106500000Y-117450960D01*
X106774520Y-117725480D02*
X105774520Y-117725480D01*
X102000000Y-119000000D02*
X102000000Y-119500000D01*
X102500000Y-118500000D02*
X102000000Y-119000000D01*
X103500000Y-118500000D02*
X102500000Y-118500000D01*
X105449520Y-118050480D02*
X103949520Y-118050480D01*
X105774520Y-117725480D02*
X105449520Y-118050480D01*
X103949520Y-118050480D02*
X103500000Y-118500000D01*
%TO.N,Net-(IC3-Pad27)*%
X101500000Y-118500000D02*
X101500000Y-119500000D01*
X102000000Y-118000000D02*
X101500000Y-118500000D01*
X103312500Y-118000000D02*
X102000000Y-118000000D01*
X104500000Y-116812500D02*
X103312500Y-118000000D01*
%TO.N,/VS_input*%
X99000000Y-117550000D02*
X99000000Y-119500000D01*
X98450000Y-117000000D02*
X99000000Y-117550000D01*
%TO.N,Net-(R5-Pad2)*%
X103325000Y-126000000D02*
X104800000Y-126000000D01*
X104800000Y-126000000D02*
X105350000Y-125450000D01*
%TD*%
%TA.AperFunction,Conductor*%
%TO.N,GND*%
G36*
X103942121Y-95528502D02*
G01*
X103988614Y-95582158D01*
X104000000Y-95634500D01*
X104000000Y-103000000D01*
X125000000Y-103000000D01*
X125000000Y-100132703D01*
X128890743Y-100132703D01*
X128928268Y-100417734D01*
X129004129Y-100695036D01*
X129116923Y-100959476D01*
X129264561Y-101206161D01*
X129444313Y-101430528D01*
X129652851Y-101628423D01*
X129886317Y-101796186D01*
X129890112Y-101798195D01*
X129890113Y-101798196D01*
X129911869Y-101809715D01*
X130140392Y-101930712D01*
X130410373Y-102029511D01*
X130691264Y-102090755D01*
X130719841Y-102093004D01*
X130914282Y-102108307D01*
X130914291Y-102108307D01*
X130916739Y-102108500D01*
X131072271Y-102108500D01*
X131074407Y-102108354D01*
X131074418Y-102108354D01*
X131282548Y-102094165D01*
X131282554Y-102094164D01*
X131286825Y-102093873D01*
X131291020Y-102093004D01*
X131291022Y-102093004D01*
X131427584Y-102064723D01*
X131568342Y-102035574D01*
X131839343Y-101939607D01*
X132094812Y-101807750D01*
X132098313Y-101805289D01*
X132098317Y-101805287D01*
X132212417Y-101725096D01*
X132330023Y-101642441D01*
X132540622Y-101446740D01*
X132722713Y-101224268D01*
X132872927Y-100979142D01*
X132988483Y-100715898D01*
X133067244Y-100439406D01*
X133107751Y-100154784D01*
X133107845Y-100136951D01*
X133109235Y-99871583D01*
X133109235Y-99871576D01*
X133109257Y-99867297D01*
X133071732Y-99582266D01*
X132995871Y-99304964D01*
X132959656Y-99220059D01*
X132884763Y-99044476D01*
X132884761Y-99044472D01*
X132883077Y-99040524D01*
X132761578Y-98837514D01*
X132737643Y-98797521D01*
X132737640Y-98797517D01*
X132735439Y-98793839D01*
X132555687Y-98569472D01*
X132347149Y-98371577D01*
X132157064Y-98234987D01*
X132117172Y-98206321D01*
X132117171Y-98206320D01*
X132113683Y-98203814D01*
X132091843Y-98192250D01*
X132068654Y-98179972D01*
X131859608Y-98069288D01*
X131589627Y-97970489D01*
X131308736Y-97909245D01*
X131277685Y-97906801D01*
X131085718Y-97891693D01*
X131085709Y-97891693D01*
X131083261Y-97891500D01*
X130927729Y-97891500D01*
X130925593Y-97891646D01*
X130925582Y-97891646D01*
X130717452Y-97905835D01*
X130717446Y-97905836D01*
X130713175Y-97906127D01*
X130708980Y-97906996D01*
X130708978Y-97906996D01*
X130572416Y-97935277D01*
X130431658Y-97964426D01*
X130160657Y-98060393D01*
X129905188Y-98192250D01*
X129901687Y-98194711D01*
X129901683Y-98194713D01*
X129787583Y-98274904D01*
X129669977Y-98357559D01*
X129654892Y-98371577D01*
X129561095Y-98458739D01*
X129459378Y-98553260D01*
X129277287Y-98775732D01*
X129127073Y-99020858D01*
X129011517Y-99284102D01*
X128932756Y-99560594D01*
X128892249Y-99845216D01*
X128892227Y-99849505D01*
X128892226Y-99849512D01*
X128891263Y-100033420D01*
X128890743Y-100132703D01*
X125000000Y-100132703D01*
X125000000Y-95634500D01*
X125020002Y-95566379D01*
X125073658Y-95519886D01*
X125126000Y-95508500D01*
X130950633Y-95508500D01*
X130970018Y-95510000D01*
X130984851Y-95512310D01*
X130984855Y-95512310D01*
X130993724Y-95513691D01*
X131014183Y-95511016D01*
X131036007Y-95510072D01*
X131385965Y-95525352D01*
X131396913Y-95526310D01*
X131774498Y-95576019D01*
X131785307Y-95577926D01*
X132157114Y-95660353D01*
X132167731Y-95663198D01*
X132530939Y-95777718D01*
X132541254Y-95781471D01*
X132893123Y-95927220D01*
X132903067Y-95931858D01*
X133240867Y-96107705D01*
X133250387Y-96113201D01*
X133571574Y-96317820D01*
X133580578Y-96324124D01*
X133882716Y-96555962D01*
X133891137Y-96563028D01*
X134171914Y-96820314D01*
X134179686Y-96828086D01*
X134436972Y-97108863D01*
X134444038Y-97117284D01*
X134675876Y-97419422D01*
X134682180Y-97428426D01*
X134886799Y-97749613D01*
X134892294Y-97759132D01*
X135053752Y-98069288D01*
X135068138Y-98096924D01*
X135072780Y-98106877D01*
X135182422Y-98371577D01*
X135218526Y-98458739D01*
X135222282Y-98469061D01*
X135249877Y-98556579D01*
X135336802Y-98832268D01*
X135339647Y-98842885D01*
X135384339Y-99044476D01*
X135422073Y-99214685D01*
X135423981Y-99225502D01*
X135432239Y-99288230D01*
X135473690Y-99603086D01*
X135474648Y-99614036D01*
X135489603Y-99956552D01*
X135488223Y-99981429D01*
X135486309Y-99993724D01*
X135487473Y-100002626D01*
X135487473Y-100002628D01*
X135490436Y-100025283D01*
X135491500Y-100041621D01*
X135491500Y-130950633D01*
X135490000Y-130970018D01*
X135487690Y-130984851D01*
X135487690Y-130984855D01*
X135486309Y-130993724D01*
X135488984Y-131014183D01*
X135489928Y-131036007D01*
X135476394Y-131345983D01*
X135474648Y-131385964D01*
X135473690Y-131396913D01*
X135426198Y-131757659D01*
X135423982Y-131774490D01*
X135422074Y-131785307D01*
X135342481Y-132144329D01*
X135339647Y-132157114D01*
X135336802Y-132167731D01*
X135237916Y-132481358D01*
X135222285Y-132530932D01*
X135218529Y-132541254D01*
X135083095Y-132868222D01*
X135072784Y-132893114D01*
X135068142Y-132903067D01*
X134962550Y-133105908D01*
X134892295Y-133240867D01*
X134886800Y-133250385D01*
X134885293Y-133252751D01*
X134682180Y-133571574D01*
X134675876Y-133580578D01*
X134444038Y-133882716D01*
X134436972Y-133891137D01*
X134179686Y-134171914D01*
X134171914Y-134179686D01*
X133891137Y-134436972D01*
X133882716Y-134444038D01*
X133580578Y-134675876D01*
X133571574Y-134682180D01*
X133250387Y-134886799D01*
X133240868Y-134892294D01*
X132903067Y-135068142D01*
X132893123Y-135072780D01*
X132541254Y-135218529D01*
X132530939Y-135222282D01*
X132282502Y-135300615D01*
X132167732Y-135336802D01*
X132157115Y-135339647D01*
X131785307Y-135422074D01*
X131774498Y-135423981D01*
X131413564Y-135471498D01*
X131396914Y-135473690D01*
X131385965Y-135474648D01*
X131043446Y-135489603D01*
X131018571Y-135488223D01*
X131006276Y-135486309D01*
X130997374Y-135487473D01*
X130997372Y-135487473D01*
X130982323Y-135489441D01*
X130974714Y-135490436D01*
X130958379Y-135491500D01*
X124351025Y-135491500D01*
X124282904Y-135471498D01*
X124236411Y-135417842D01*
X124226307Y-135347568D01*
X124255801Y-135282988D01*
X124295592Y-135252349D01*
X124458095Y-135172739D01*
X124466945Y-135167464D01*
X124640328Y-135043792D01*
X124648200Y-135037139D01*
X124799052Y-134886812D01*
X124805730Y-134878965D01*
X124930003Y-134706020D01*
X124935313Y-134697183D01*
X125029670Y-134506267D01*
X125033469Y-134496672D01*
X125095377Y-134292910D01*
X125097555Y-134282837D01*
X125098986Y-134271962D01*
X125096775Y-134257778D01*
X125083617Y-134254000D01*
X123637000Y-134254000D01*
X123568879Y-134233998D01*
X123522386Y-134180342D01*
X123511000Y-134128000D01*
X123511000Y-133727885D01*
X124019000Y-133727885D01*
X124023475Y-133743124D01*
X124024865Y-133744329D01*
X124032548Y-133746000D01*
X125083344Y-133746000D01*
X125096875Y-133742027D01*
X125098180Y-133732947D01*
X125056214Y-133565875D01*
X125052894Y-133556124D01*
X124967972Y-133360814D01*
X124963105Y-133351739D01*
X124847426Y-133172926D01*
X124841136Y-133164757D01*
X124697806Y-133007240D01*
X124690273Y-133000215D01*
X124523139Y-132868222D01*
X124514552Y-132862517D01*
X124328117Y-132759599D01*
X124318705Y-132755369D01*
X124117959Y-132684280D01*
X124107988Y-132681646D01*
X124036837Y-132668972D01*
X124023540Y-132670432D01*
X124019000Y-132684989D01*
X124019000Y-133727885D01*
X123511000Y-133727885D01*
X123511000Y-132683102D01*
X123507082Y-132669758D01*
X123492806Y-132667771D01*
X123454324Y-132673660D01*
X123444288Y-132676051D01*
X123241868Y-132742212D01*
X123232359Y-132746209D01*
X123043463Y-132844542D01*
X123034738Y-132850036D01*
X122864433Y-132977905D01*
X122856726Y-132984748D01*
X122779478Y-133065584D01*
X122717954Y-133101014D01*
X122647042Y-133097557D01*
X122589255Y-133056311D01*
X122570402Y-133022763D01*
X122528767Y-132911703D01*
X122525615Y-132903295D01*
X122438261Y-132786739D01*
X122321705Y-132699385D01*
X122185316Y-132648255D01*
X122123134Y-132641500D01*
X120326866Y-132641500D01*
X120264684Y-132648255D01*
X120128295Y-132699385D01*
X120011739Y-132786739D01*
X119924385Y-132903295D01*
X119873255Y-133039684D01*
X119866500Y-133101866D01*
X119866500Y-134898134D01*
X119873255Y-134960316D01*
X119924385Y-135096705D01*
X120011739Y-135213261D01*
X120018919Y-135218642D01*
X120018920Y-135218643D01*
X120080339Y-135264674D01*
X120122854Y-135321533D01*
X120127880Y-135392352D01*
X120093820Y-135454645D01*
X120031489Y-135488635D01*
X120004774Y-135491500D01*
X109134500Y-135491500D01*
X109066379Y-135471498D01*
X109019886Y-135417842D01*
X109008500Y-135365500D01*
X109008500Y-132801866D01*
X109001745Y-132739684D01*
X108985779Y-132697095D01*
X110767001Y-132697095D01*
X110767338Y-132703614D01*
X110777257Y-132799206D01*
X110780149Y-132812600D01*
X110831588Y-132966784D01*
X110837761Y-132979962D01*
X110923063Y-133117807D01*
X110932099Y-133129208D01*
X111046829Y-133243739D01*
X111058240Y-133252751D01*
X111196243Y-133337816D01*
X111209424Y-133343963D01*
X111363710Y-133395138D01*
X111377086Y-133398005D01*
X111471438Y-133407672D01*
X111477854Y-133408000D01*
X111727885Y-133408000D01*
X111743124Y-133403525D01*
X111744329Y-133402135D01*
X111746000Y-133394452D01*
X111746000Y-133389884D01*
X112254000Y-133389884D01*
X112258475Y-133405123D01*
X112259865Y-133406328D01*
X112267548Y-133407999D01*
X112522095Y-133407999D01*
X112528614Y-133407662D01*
X112624206Y-133397743D01*
X112637600Y-133394851D01*
X112791784Y-133343412D01*
X112804962Y-133337239D01*
X112942807Y-133251937D01*
X112954208Y-133242901D01*
X113068739Y-133128171D01*
X113077751Y-133116760D01*
X113162816Y-132978757D01*
X113168963Y-132965576D01*
X113220138Y-132811290D01*
X113223005Y-132797914D01*
X113232672Y-132703562D01*
X113233000Y-132697146D01*
X113233000Y-132672115D01*
X113228525Y-132656876D01*
X113227135Y-132655671D01*
X113219452Y-132654000D01*
X112272115Y-132654000D01*
X112256876Y-132658475D01*
X112255671Y-132659865D01*
X112254000Y-132667548D01*
X112254000Y-133389884D01*
X111746000Y-133389884D01*
X111746000Y-132672115D01*
X111741525Y-132656876D01*
X111740135Y-132655671D01*
X111732452Y-132654000D01*
X110785116Y-132654000D01*
X110769877Y-132658475D01*
X110768672Y-132659865D01*
X110767001Y-132667548D01*
X110767001Y-132697095D01*
X108985779Y-132697095D01*
X108950615Y-132603295D01*
X108944763Y-132595487D01*
X115091500Y-132595487D01*
X115092872Y-132601939D01*
X115092872Y-132601944D01*
X115109814Y-132681646D01*
X115131206Y-132782288D01*
X115133891Y-132788318D01*
X115133891Y-132788319D01*
X115201886Y-132941038D01*
X115208882Y-132956752D01*
X115212762Y-132962093D01*
X115212763Y-132962094D01*
X115225745Y-132979962D01*
X115321134Y-133111253D01*
X115463056Y-133239040D01*
X115628444Y-133334527D01*
X115810072Y-133393542D01*
X115816633Y-133394232D01*
X115816635Y-133394232D01*
X115850042Y-133397743D01*
X115952390Y-133408500D01*
X116047610Y-133408500D01*
X116149958Y-133397743D01*
X116183365Y-133394232D01*
X116183367Y-133394232D01*
X116189928Y-133393542D01*
X116371556Y-133334527D01*
X116536944Y-133239040D01*
X116678866Y-133111253D01*
X116774255Y-132979962D01*
X116787237Y-132962094D01*
X116787238Y-132962093D01*
X116791118Y-132956752D01*
X116798115Y-132941038D01*
X116866109Y-132788319D01*
X116866109Y-132788318D01*
X116868794Y-132782288D01*
X116890186Y-132681646D01*
X116907128Y-132601944D01*
X116907128Y-132601939D01*
X116908500Y-132595487D01*
X116908500Y-132404513D01*
X116897639Y-132353413D01*
X116887262Y-132304595D01*
X116868794Y-132217712D01*
X116866109Y-132211681D01*
X116793803Y-132049278D01*
X116793802Y-132049276D01*
X116791118Y-132043248D01*
X116678866Y-131888747D01*
X116589743Y-131808500D01*
X116541852Y-131765379D01*
X116541851Y-131765378D01*
X116536944Y-131760960D01*
X116371556Y-131665473D01*
X116189928Y-131606458D01*
X116183367Y-131605768D01*
X116183365Y-131605768D01*
X116130111Y-131600171D01*
X116047610Y-131591500D01*
X115952390Y-131591500D01*
X115869889Y-131600171D01*
X115816635Y-131605768D01*
X115816633Y-131605768D01*
X115810072Y-131606458D01*
X115628444Y-131665473D01*
X115463056Y-131760960D01*
X115458149Y-131765378D01*
X115458148Y-131765379D01*
X115410257Y-131808500D01*
X115321134Y-131888747D01*
X115208882Y-132043248D01*
X115206198Y-132049276D01*
X115206197Y-132049278D01*
X115133891Y-132211681D01*
X115131206Y-132217712D01*
X115112738Y-132304595D01*
X115102362Y-132353413D01*
X115091500Y-132404513D01*
X115091500Y-132595487D01*
X108944763Y-132595487D01*
X108863261Y-132486739D01*
X108746705Y-132399385D01*
X108610316Y-132348255D01*
X108548134Y-132341500D01*
X106689594Y-132341500D01*
X106621473Y-132321498D01*
X106600499Y-132304595D01*
X105170405Y-130874500D01*
X105136379Y-130812188D01*
X105133500Y-130785405D01*
X105133500Y-130157655D01*
X105739858Y-130157655D01*
X105775104Y-130416638D01*
X105776412Y-130421124D01*
X105776412Y-130421126D01*
X105796098Y-130488664D01*
X105848243Y-130667567D01*
X105957668Y-130904928D01*
X105960231Y-130908837D01*
X106098410Y-131119596D01*
X106098414Y-131119601D01*
X106100976Y-131123509D01*
X106275018Y-131318506D01*
X106475970Y-131485637D01*
X106496009Y-131497797D01*
X106695422Y-131618804D01*
X106695426Y-131618806D01*
X106699419Y-131621229D01*
X106940455Y-131722303D01*
X107193783Y-131786641D01*
X107198434Y-131787109D01*
X107198438Y-131787110D01*
X107391308Y-131806531D01*
X107410867Y-131808500D01*
X107566354Y-131808500D01*
X107568679Y-131808327D01*
X107568685Y-131808327D01*
X107756000Y-131794407D01*
X107756004Y-131794406D01*
X107760652Y-131794061D01*
X107765200Y-131793032D01*
X107765206Y-131793031D01*
X107951601Y-131750853D01*
X108015577Y-131736377D01*
X108051769Y-131722303D01*
X108254824Y-131643340D01*
X108254827Y-131643339D01*
X108259177Y-131641647D01*
X108486098Y-131511951D01*
X108691357Y-131350138D01*
X108870443Y-131159763D01*
X108988059Y-130990221D01*
X109016759Y-130948851D01*
X109016761Y-130948848D01*
X109019424Y-130945009D01*
X109026138Y-130931395D01*
X109132960Y-130714781D01*
X109132961Y-130714778D01*
X109135025Y-130710593D01*
X109214707Y-130461665D01*
X109256721Y-130203693D01*
X109259609Y-129983089D01*
X109260081Y-129947022D01*
X109260081Y-129947019D01*
X109260142Y-129942345D01*
X109224896Y-129683362D01*
X109215375Y-129650695D01*
X109189442Y-129561725D01*
X109151757Y-129432433D01*
X109148815Y-129426050D01*
X109116104Y-129355096D01*
X109042332Y-129195072D01*
X108961183Y-129071299D01*
X108901590Y-128980404D01*
X108901586Y-128980399D01*
X108899024Y-128976491D01*
X108724982Y-128781494D01*
X108524030Y-128614363D01*
X108476844Y-128585730D01*
X108304578Y-128481196D01*
X108304574Y-128481194D01*
X108300581Y-128478771D01*
X108059545Y-128377697D01*
X107806217Y-128313359D01*
X107801566Y-128312891D01*
X107801562Y-128312890D01*
X107592271Y-128291816D01*
X107589133Y-128291500D01*
X107433646Y-128291500D01*
X107431321Y-128291673D01*
X107431315Y-128291673D01*
X107244000Y-128305593D01*
X107243996Y-128305594D01*
X107239348Y-128305939D01*
X107234800Y-128306968D01*
X107234794Y-128306969D01*
X107051190Y-128348515D01*
X106984423Y-128363623D01*
X106980071Y-128365315D01*
X106980069Y-128365316D01*
X106745176Y-128456660D01*
X106745173Y-128456661D01*
X106740823Y-128458353D01*
X106513902Y-128588049D01*
X106308643Y-128749862D01*
X106129557Y-128940237D01*
X105980576Y-129154991D01*
X105978510Y-129159181D01*
X105978508Y-129159184D01*
X105873768Y-129371577D01*
X105864975Y-129389407D01*
X105863553Y-129393850D01*
X105863552Y-129393852D01*
X105823482Y-129519031D01*
X105785293Y-129638335D01*
X105743279Y-129896307D01*
X105743218Y-129900980D01*
X105740641Y-130097871D01*
X105739858Y-130157655D01*
X105133500Y-130157655D01*
X105133500Y-127970100D01*
X105134027Y-127958917D01*
X105135702Y-127951424D01*
X105133562Y-127883347D01*
X105133500Y-127879388D01*
X105133500Y-127851477D01*
X105132995Y-127847477D01*
X105132062Y-127835634D01*
X105131578Y-127820217D01*
X105130673Y-127791444D01*
X105125021Y-127771990D01*
X105121013Y-127752633D01*
X105119468Y-127740403D01*
X105119468Y-127740402D01*
X105118474Y-127732536D01*
X105115555Y-127725163D01*
X105102196Y-127691421D01*
X105098351Y-127680191D01*
X105088229Y-127645350D01*
X105088229Y-127645349D01*
X105086018Y-127637740D01*
X105081985Y-127630921D01*
X105081983Y-127630916D01*
X105075707Y-127620305D01*
X105067012Y-127602557D01*
X105059552Y-127583716D01*
X105033564Y-127547946D01*
X105027048Y-127538026D01*
X105008580Y-127506798D01*
X105008578Y-127506795D01*
X105004542Y-127499971D01*
X104990221Y-127485650D01*
X104977380Y-127470616D01*
X104970131Y-127460639D01*
X104965472Y-127454226D01*
X104959368Y-127449176D01*
X104959362Y-127449170D01*
X104938104Y-127431584D01*
X104898366Y-127372750D01*
X104896745Y-127301772D01*
X104933754Y-127241185D01*
X104997644Y-127210225D01*
X105018420Y-127208500D01*
X106398134Y-127208500D01*
X106460316Y-127201745D01*
X106596705Y-127150615D01*
X106713261Y-127063261D01*
X106800615Y-126946705D01*
X106851745Y-126810316D01*
X106858500Y-126748134D01*
X106858500Y-126744669D01*
X108142001Y-126744669D01*
X108142371Y-126751490D01*
X108147895Y-126802352D01*
X108151521Y-126817604D01*
X108196676Y-126938054D01*
X108205214Y-126953649D01*
X108281715Y-127055724D01*
X108294276Y-127068285D01*
X108396351Y-127144786D01*
X108411946Y-127153324D01*
X108532394Y-127198478D01*
X108547649Y-127202105D01*
X108598514Y-127207631D01*
X108605328Y-127208000D01*
X109377885Y-127208000D01*
X109393124Y-127203525D01*
X109394329Y-127202135D01*
X109396000Y-127194452D01*
X109396000Y-125722115D01*
X109391525Y-125706876D01*
X109390135Y-125705671D01*
X109382452Y-125704000D01*
X108160116Y-125704000D01*
X108144877Y-125708475D01*
X108143672Y-125709865D01*
X108142001Y-125717548D01*
X108142001Y-126744669D01*
X106858500Y-126744669D01*
X106858500Y-124151866D01*
X106852538Y-124096987D01*
X106865066Y-124027106D01*
X106913386Y-123975090D01*
X106977801Y-123957380D01*
X107415409Y-123957380D01*
X107418655Y-123957043D01*
X107418659Y-123957043D01*
X107514317Y-123947118D01*
X107514321Y-123947117D01*
X107521175Y-123946406D01*
X107527711Y-123944225D01*
X107527713Y-123944225D01*
X107682007Y-123892748D01*
X107688955Y-123890430D01*
X107839357Y-123797358D01*
X107844529Y-123792177D01*
X107844534Y-123792173D01*
X107855703Y-123780984D01*
X107917985Y-123746903D01*
X107988805Y-123751905D01*
X108033896Y-123780828D01*
X108046829Y-123793739D01*
X108058240Y-123802751D01*
X108130907Y-123847543D01*
X108178400Y-123900315D01*
X108189824Y-123970386D01*
X108182773Y-123999033D01*
X108151522Y-124082395D01*
X108147895Y-124097649D01*
X108142369Y-124148514D01*
X108142000Y-124155328D01*
X108142000Y-125177885D01*
X108146475Y-125193124D01*
X108147865Y-125194329D01*
X108155548Y-125196000D01*
X109778000Y-125196000D01*
X109846121Y-125216002D01*
X109892614Y-125269658D01*
X109904000Y-125322000D01*
X109904000Y-127189884D01*
X109908475Y-127205123D01*
X109909865Y-127206328D01*
X109917548Y-127207999D01*
X110694669Y-127207999D01*
X110701490Y-127207629D01*
X110752352Y-127202105D01*
X110767604Y-127198479D01*
X110876461Y-127157670D01*
X110947268Y-127152487D01*
X110980813Y-127164921D01*
X111060153Y-127207999D01*
X111076499Y-127216874D01*
X111242370Y-127260390D01*
X111249970Y-127260509D01*
X111257488Y-127261539D01*
X111257033Y-127264858D01*
X111310554Y-127281646D01*
X111356055Y-127336145D01*
X111366500Y-127386376D01*
X111366500Y-129412462D01*
X111346498Y-129480583D01*
X111292842Y-129527076D01*
X111280376Y-129531986D01*
X111225366Y-129550339D01*
X111201054Y-129558450D01*
X111050652Y-129651522D01*
X110925695Y-129776697D01*
X110921855Y-129782927D01*
X110921854Y-129782928D01*
X110849086Y-129900980D01*
X110832885Y-129927262D01*
X110777203Y-130095139D01*
X110766500Y-130199600D01*
X110766500Y-130800400D01*
X110766837Y-130803646D01*
X110766837Y-130803650D01*
X110773886Y-130871583D01*
X110777474Y-130906166D01*
X110779655Y-130912702D01*
X110779655Y-130912704D01*
X110817139Y-131025055D01*
X110833450Y-131073946D01*
X110926522Y-131224348D01*
X111051697Y-131349305D01*
X111056235Y-131352102D01*
X111096824Y-131409353D01*
X111100054Y-131480276D01*
X111064428Y-131541687D01*
X111055932Y-131549062D01*
X111045793Y-131557098D01*
X110931261Y-131671829D01*
X110922249Y-131683240D01*
X110837184Y-131821243D01*
X110831037Y-131834424D01*
X110779862Y-131988710D01*
X110776995Y-132002086D01*
X110767328Y-132096438D01*
X110767000Y-132102855D01*
X110767000Y-132127885D01*
X110771475Y-132143124D01*
X110772865Y-132144329D01*
X110780548Y-132146000D01*
X113214884Y-132146000D01*
X113230123Y-132141525D01*
X113231328Y-132140135D01*
X113232999Y-132132452D01*
X113232999Y-132102905D01*
X113232662Y-132096386D01*
X113222743Y-132000794D01*
X113219851Y-131987400D01*
X113168412Y-131833216D01*
X113162239Y-131820038D01*
X113076937Y-131682193D01*
X113067901Y-131670792D01*
X112953172Y-131556262D01*
X112944238Y-131549206D01*
X112903177Y-131491288D01*
X112899947Y-131420365D01*
X112935574Y-131358954D01*
X112943407Y-131352154D01*
X112949348Y-131348478D01*
X113074305Y-131223303D01*
X113092749Y-131193382D01*
X113145522Y-131145890D01*
X113200008Y-131133500D01*
X121421233Y-131133500D01*
X121432416Y-131134027D01*
X121439909Y-131135702D01*
X121447835Y-131135453D01*
X121447836Y-131135453D01*
X121507986Y-131133562D01*
X121511945Y-131133500D01*
X121539856Y-131133500D01*
X121543791Y-131133003D01*
X121543856Y-131132995D01*
X121547561Y-131132703D01*
X128890743Y-131132703D01*
X128891302Y-131136947D01*
X128891302Y-131136951D01*
X128901988Y-131218120D01*
X128928268Y-131417734D01*
X128929401Y-131421874D01*
X128929401Y-131421876D01*
X128946026Y-131482645D01*
X129004129Y-131695036D01*
X129005813Y-131698984D01*
X129094730Y-131907445D01*
X129116923Y-131959476D01*
X129191473Y-132084040D01*
X129241562Y-132167732D01*
X129264561Y-132206161D01*
X129444313Y-132430528D01*
X129461397Y-132446740D01*
X129635232Y-132611703D01*
X129652851Y-132628423D01*
X129811205Y-132742212D01*
X129877898Y-132790136D01*
X129886317Y-132796186D01*
X129890112Y-132798195D01*
X129890113Y-132798196D01*
X129911869Y-132809715D01*
X130140392Y-132930712D01*
X130164699Y-132939607D01*
X130349515Y-133007240D01*
X130410373Y-133029511D01*
X130691264Y-133090755D01*
X130719841Y-133093004D01*
X130914282Y-133108307D01*
X130914291Y-133108307D01*
X130916739Y-133108500D01*
X131072271Y-133108500D01*
X131074407Y-133108354D01*
X131074418Y-133108354D01*
X131282548Y-133094165D01*
X131282554Y-133094164D01*
X131286825Y-133093873D01*
X131291020Y-133093004D01*
X131291022Y-133093004D01*
X131548495Y-133039684D01*
X131568342Y-133035574D01*
X131839343Y-132939607D01*
X132094812Y-132807750D01*
X132098313Y-132805289D01*
X132098317Y-132805287D01*
X132241336Y-132704771D01*
X132330023Y-132642441D01*
X132408403Y-132569606D01*
X132537479Y-132449661D01*
X132537481Y-132449658D01*
X132540622Y-132446740D01*
X132722713Y-132224268D01*
X132872927Y-131979142D01*
X132988483Y-131715898D01*
X133067244Y-131439406D01*
X133102459Y-131191970D01*
X133107146Y-131159036D01*
X133107146Y-131159034D01*
X133107751Y-131154784D01*
X133107778Y-131149760D01*
X133109235Y-130871583D01*
X133109235Y-130871576D01*
X133109257Y-130867297D01*
X133071732Y-130582266D01*
X132995871Y-130304964D01*
X132985295Y-130280170D01*
X132884763Y-130044476D01*
X132884761Y-130044472D01*
X132883077Y-130040524D01*
X132777203Y-129863621D01*
X132737643Y-129797521D01*
X132737640Y-129797517D01*
X132735439Y-129793839D01*
X132555687Y-129569472D01*
X132347149Y-129371577D01*
X132113683Y-129203814D01*
X132091843Y-129192250D01*
X132049478Y-129169819D01*
X131859608Y-129069288D01*
X131616721Y-128980404D01*
X131593658Y-128971964D01*
X131593656Y-128971963D01*
X131589627Y-128970489D01*
X131308736Y-128909245D01*
X131270401Y-128906228D01*
X131085718Y-128891693D01*
X131085709Y-128891693D01*
X131083261Y-128891500D01*
X130927729Y-128891500D01*
X130925593Y-128891646D01*
X130925582Y-128891646D01*
X130717452Y-128905835D01*
X130717446Y-128905836D01*
X130713175Y-128906127D01*
X130708980Y-128906996D01*
X130708978Y-128906996D01*
X130572417Y-128935276D01*
X130431658Y-128964426D01*
X130160657Y-129060393D01*
X129905188Y-129192250D01*
X129901687Y-129194711D01*
X129901683Y-129194713D01*
X129787582Y-129274905D01*
X129669977Y-129357559D01*
X129654892Y-129371577D01*
X129482272Y-129531986D01*
X129459378Y-129553260D01*
X129277287Y-129775732D01*
X129127073Y-130020858D01*
X129125347Y-130024791D01*
X129125346Y-130024792D01*
X129096929Y-130089528D01*
X129011517Y-130284102D01*
X128932756Y-130560594D01*
X128912041Y-130706148D01*
X128893334Y-130837595D01*
X128892249Y-130845216D01*
X128892227Y-130849505D01*
X128892226Y-130849512D01*
X128890765Y-131128417D01*
X128890743Y-131132703D01*
X121547561Y-131132703D01*
X121555693Y-131132062D01*
X121587951Y-131131048D01*
X121591970Y-131130922D01*
X121599889Y-131130673D01*
X121619343Y-131125021D01*
X121638700Y-131121013D01*
X121650930Y-131119468D01*
X121650931Y-131119468D01*
X121658797Y-131118474D01*
X121666168Y-131115555D01*
X121666170Y-131115555D01*
X121699912Y-131102196D01*
X121711142Y-131098351D01*
X121745983Y-131088229D01*
X121745984Y-131088229D01*
X121753593Y-131086018D01*
X121760412Y-131081985D01*
X121760417Y-131081983D01*
X121771028Y-131075707D01*
X121788776Y-131067012D01*
X121807617Y-131059552D01*
X121843387Y-131033564D01*
X121853307Y-131027048D01*
X121884535Y-131008580D01*
X121884538Y-131008578D01*
X121891362Y-131004542D01*
X121905683Y-130990221D01*
X121920717Y-130977380D01*
X121937107Y-130965472D01*
X121965298Y-130931395D01*
X121973288Y-130922616D01*
X122696224Y-130199680D01*
X122739963Y-130171921D01*
X122741759Y-130171510D01*
X122894958Y-130094459D01*
X122900729Y-130089530D01*
X122900732Y-130089528D01*
X123019578Y-129988023D01*
X123025355Y-129983089D01*
X123125424Y-129843830D01*
X123189385Y-129684720D01*
X123193372Y-129656704D01*
X123212966Y-129519031D01*
X123212966Y-129519027D01*
X123213547Y-129514947D01*
X123213704Y-129500000D01*
X123203109Y-129412452D01*
X123194015Y-129337299D01*
X123194014Y-129337296D01*
X123193102Y-129329758D01*
X123164253Y-129253409D01*
X123135171Y-129176447D01*
X123132487Y-129169344D01*
X123065103Y-129071299D01*
X123039659Y-129034278D01*
X123039658Y-129034276D01*
X123035357Y-129028019D01*
X123029686Y-129022966D01*
X122912993Y-128918996D01*
X122912990Y-128918994D01*
X122907321Y-128913943D01*
X122900173Y-128910158D01*
X122762481Y-128837254D01*
X122762482Y-128837254D01*
X122755769Y-128833700D01*
X122738196Y-128829286D01*
X122596822Y-128793775D01*
X122596818Y-128793775D01*
X122589451Y-128791924D01*
X122581852Y-128791884D01*
X122581850Y-128791884D01*
X122510394Y-128791510D01*
X122417969Y-128791026D01*
X122410589Y-128792798D01*
X122410587Y-128792798D01*
X122258602Y-128829286D01*
X122258598Y-128829287D01*
X122251223Y-128831058D01*
X122098839Y-128909709D01*
X121969615Y-129022439D01*
X121871010Y-129162739D01*
X121855779Y-129201804D01*
X121835659Y-129253409D01*
X121807361Y-129296735D01*
X121274499Y-129829596D01*
X121212187Y-129863621D01*
X121185404Y-129866500D01*
X113199899Y-129866500D01*
X113131778Y-129846498D01*
X113092755Y-129806803D01*
X113077332Y-129781880D01*
X113073478Y-129775652D01*
X112948303Y-129650695D01*
X112935753Y-129642959D01*
X112803968Y-129561725D01*
X112803966Y-129561724D01*
X112797738Y-129557885D01*
X112740051Y-129538751D01*
X112719833Y-129532045D01*
X112661473Y-129491614D01*
X112634236Y-129426050D01*
X112633500Y-129412452D01*
X112633500Y-125314595D01*
X112653502Y-125246474D01*
X112670405Y-125225499D01*
X112892258Y-125003647D01*
X112900537Y-124996113D01*
X112907018Y-124992000D01*
X112953644Y-124942348D01*
X112956398Y-124939507D01*
X112976135Y-124919770D01*
X112978615Y-124916573D01*
X112986320Y-124907551D01*
X113011159Y-124881100D01*
X113016586Y-124875321D01*
X113020405Y-124868375D01*
X113020407Y-124868372D01*
X113026348Y-124857566D01*
X113037199Y-124841047D01*
X113037559Y-124840583D01*
X113049614Y-124825041D01*
X113052759Y-124817772D01*
X113052762Y-124817768D01*
X113067174Y-124784463D01*
X113072391Y-124773813D01*
X113093695Y-124735060D01*
X113098733Y-124715437D01*
X113105137Y-124696734D01*
X113110033Y-124685420D01*
X113110033Y-124685419D01*
X113113181Y-124678145D01*
X113114420Y-124670322D01*
X113114423Y-124670312D01*
X113120099Y-124634476D01*
X113122505Y-124622856D01*
X113131528Y-124587711D01*
X113131528Y-124587710D01*
X113133500Y-124580030D01*
X113133500Y-124559776D01*
X113135051Y-124540065D01*
X113136980Y-124527886D01*
X113138220Y-124520057D01*
X113134059Y-124476038D01*
X113133500Y-124464181D01*
X113133500Y-122333595D01*
X113153502Y-122265474D01*
X113207158Y-122218981D01*
X113277432Y-122208877D01*
X113342012Y-122238371D01*
X113348595Y-122244500D01*
X115580230Y-124476135D01*
X115580233Y-124476137D01*
X115580238Y-124476142D01*
X116657826Y-125553731D01*
X116665366Y-125562017D01*
X116669478Y-125568496D01*
X116675255Y-125573921D01*
X116719129Y-125615121D01*
X116721971Y-125617876D01*
X116741708Y-125637613D01*
X116744905Y-125640093D01*
X116753925Y-125647796D01*
X116786157Y-125678064D01*
X116793103Y-125681883D01*
X116793106Y-125681885D01*
X116803912Y-125687826D01*
X116820431Y-125698677D01*
X116836437Y-125711092D01*
X116843706Y-125714237D01*
X116843710Y-125714240D01*
X116877015Y-125728652D01*
X116887665Y-125733869D01*
X116926418Y-125755173D01*
X116934093Y-125757144D01*
X116934094Y-125757144D01*
X116946040Y-125760211D01*
X116964745Y-125766615D01*
X116983333Y-125774659D01*
X116991156Y-125775898D01*
X116991166Y-125775901D01*
X117027002Y-125781577D01*
X117038622Y-125783983D01*
X117073767Y-125793006D01*
X117081448Y-125794978D01*
X117101702Y-125794978D01*
X117121412Y-125796529D01*
X117141421Y-125799698D01*
X117149313Y-125798952D01*
X117174945Y-125796529D01*
X117185440Y-125795537D01*
X117197297Y-125794978D01*
X122504927Y-125794978D01*
X122573048Y-125814980D01*
X122619541Y-125868636D01*
X122629645Y-125938910D01*
X122600151Y-126003490D01*
X122594026Y-126010070D01*
X122342672Y-126261423D01*
X122119793Y-126484302D01*
X122057481Y-126518327D01*
X122030698Y-126521206D01*
X118464707Y-126521206D01*
X118405751Y-126506562D01*
X118371461Y-126488406D01*
X118360943Y-126485764D01*
X118212514Y-126448481D01*
X118212510Y-126448481D01*
X118205143Y-126446630D01*
X118197544Y-126446590D01*
X118197542Y-126446590D01*
X118126086Y-126446216D01*
X118033661Y-126445732D01*
X118026281Y-126447504D01*
X118026279Y-126447504D01*
X117874294Y-126483992D01*
X117874290Y-126483993D01*
X117866915Y-126485764D01*
X117714531Y-126564415D01*
X117585307Y-126677145D01*
X117486702Y-126817445D01*
X117483942Y-126824525D01*
X117433504Y-126953891D01*
X117424410Y-126977215D01*
X117423418Y-126984748D01*
X117423418Y-126984749D01*
X117403631Y-127135049D01*
X117402027Y-127147232D01*
X117408791Y-127208500D01*
X117419089Y-127301772D01*
X117420845Y-127317681D01*
X117479777Y-127478721D01*
X117484014Y-127485027D01*
X117484016Y-127485030D01*
X117523066Y-127543141D01*
X117575422Y-127621055D01*
X117581038Y-127626165D01*
X117686043Y-127721712D01*
X117702257Y-127736466D01*
X117852960Y-127818291D01*
X118018831Y-127861807D01*
X118106278Y-127863180D01*
X118182695Y-127864381D01*
X118182698Y-127864381D01*
X118190294Y-127864500D01*
X118197698Y-127862804D01*
X118197700Y-127862804D01*
X118264620Y-127847477D01*
X118357451Y-127826216D01*
X118406314Y-127801641D01*
X118462927Y-127788206D01*
X122266527Y-127788206D01*
X122277710Y-127788733D01*
X122285203Y-127790408D01*
X122293129Y-127790159D01*
X122293130Y-127790159D01*
X122353280Y-127788268D01*
X122357239Y-127788206D01*
X122385150Y-127788206D01*
X122389085Y-127787709D01*
X122389150Y-127787701D01*
X122400987Y-127786768D01*
X122433245Y-127785754D01*
X122437264Y-127785628D01*
X122445183Y-127785379D01*
X122464637Y-127779727D01*
X122483994Y-127775719D01*
X122496224Y-127774174D01*
X122496225Y-127774174D01*
X122504091Y-127773180D01*
X122511462Y-127770261D01*
X122511464Y-127770261D01*
X122545206Y-127756902D01*
X122556436Y-127753057D01*
X122591277Y-127742935D01*
X122591278Y-127742935D01*
X122598887Y-127740724D01*
X122605706Y-127736691D01*
X122605711Y-127736689D01*
X122616322Y-127730413D01*
X122634070Y-127721718D01*
X122652911Y-127714258D01*
X122688681Y-127688270D01*
X122698601Y-127681754D01*
X122729829Y-127663286D01*
X122729832Y-127663284D01*
X122736656Y-127659248D01*
X122750977Y-127644927D01*
X122766011Y-127632086D01*
X122767621Y-127630916D01*
X122782401Y-127620178D01*
X122787451Y-127614074D01*
X122787456Y-127614069D01*
X122810587Y-127586108D01*
X122818577Y-127577327D01*
X123725501Y-126670404D01*
X123787813Y-126636379D01*
X123814596Y-126633500D01*
X128421233Y-126633500D01*
X128432416Y-126634027D01*
X128439909Y-126635702D01*
X128447835Y-126635453D01*
X128447836Y-126635453D01*
X128507986Y-126633562D01*
X128511945Y-126633500D01*
X128539856Y-126633500D01*
X128543791Y-126633003D01*
X128543856Y-126632995D01*
X128555693Y-126632062D01*
X128587951Y-126631048D01*
X128591970Y-126630922D01*
X128599889Y-126630673D01*
X128619343Y-126625021D01*
X128638700Y-126621013D01*
X128650930Y-126619468D01*
X128650931Y-126619468D01*
X128658797Y-126618474D01*
X128666168Y-126615555D01*
X128666170Y-126615555D01*
X128699912Y-126602196D01*
X128711142Y-126598351D01*
X128745983Y-126588229D01*
X128745984Y-126588229D01*
X128753593Y-126586018D01*
X128760412Y-126581985D01*
X128760417Y-126581983D01*
X128771028Y-126575707D01*
X128788776Y-126567012D01*
X128807617Y-126559552D01*
X128843387Y-126533564D01*
X128853307Y-126527048D01*
X128884535Y-126508580D01*
X128884538Y-126508578D01*
X128891362Y-126504542D01*
X128905683Y-126490221D01*
X128920717Y-126477380D01*
X128930694Y-126470131D01*
X128937107Y-126465472D01*
X128965298Y-126431395D01*
X128973288Y-126422616D01*
X130196224Y-125199680D01*
X130239963Y-125171921D01*
X130241759Y-125171510D01*
X130394958Y-125094459D01*
X130400729Y-125089530D01*
X130400732Y-125089528D01*
X130519578Y-124988023D01*
X130525355Y-124983089D01*
X130615554Y-124857566D01*
X130620992Y-124849998D01*
X130620993Y-124849997D01*
X130625424Y-124843830D01*
X130689385Y-124684720D01*
X130696536Y-124634476D01*
X130712966Y-124519031D01*
X130712966Y-124519027D01*
X130713547Y-124514947D01*
X130713704Y-124500000D01*
X130701890Y-124402376D01*
X130694015Y-124337299D01*
X130694014Y-124337296D01*
X130693102Y-124329758D01*
X130683124Y-124303350D01*
X130635171Y-124176447D01*
X130632487Y-124169344D01*
X130585251Y-124100615D01*
X130539659Y-124034278D01*
X130539658Y-124034276D01*
X130535357Y-124028019D01*
X130529686Y-124022966D01*
X130412993Y-123918996D01*
X130412990Y-123918994D01*
X130407321Y-123913943D01*
X130399325Y-123909709D01*
X130298421Y-123856283D01*
X130255769Y-123833700D01*
X130238196Y-123829286D01*
X130096822Y-123793775D01*
X130096818Y-123793775D01*
X130089451Y-123791924D01*
X130081852Y-123791884D01*
X130081850Y-123791884D01*
X130010394Y-123791510D01*
X129917969Y-123791026D01*
X129910589Y-123792798D01*
X129910587Y-123792798D01*
X129758602Y-123829286D01*
X129758598Y-123829287D01*
X129751223Y-123831058D01*
X129598839Y-123909709D01*
X129469615Y-124022439D01*
X129371010Y-124162739D01*
X129342826Y-124235027D01*
X129335659Y-124253409D01*
X129307361Y-124296734D01*
X128274500Y-125329595D01*
X128212188Y-125363621D01*
X128185405Y-125366500D01*
X124261354Y-125366500D01*
X124193233Y-125346498D01*
X124146740Y-125292842D01*
X124136611Y-125222748D01*
X124143204Y-125176425D01*
X124143278Y-125169335D01*
X124143318Y-125165611D01*
X124143318Y-125165605D01*
X124143361Y-125161478D01*
X124132793Y-125074149D01*
X124123672Y-124998777D01*
X124123671Y-124998774D01*
X124122759Y-124991236D01*
X124114144Y-124968435D01*
X124064828Y-124837925D01*
X124062144Y-124830822D01*
X123965014Y-124689497D01*
X123952273Y-124678145D01*
X123842650Y-124580474D01*
X123842647Y-124580472D01*
X123836978Y-124575421D01*
X123685426Y-124495178D01*
X123674908Y-124492536D01*
X123526479Y-124455253D01*
X123526475Y-124455253D01*
X123519108Y-124453402D01*
X123511509Y-124453362D01*
X123511507Y-124453362D01*
X123440051Y-124452988D01*
X123347626Y-124452504D01*
X123340246Y-124454276D01*
X123340244Y-124454276D01*
X123188259Y-124490764D01*
X123188255Y-124490765D01*
X123180880Y-124492536D01*
X123142850Y-124512165D01*
X123139403Y-124513944D01*
X123081613Y-124527978D01*
X119514035Y-124527978D01*
X119445914Y-124507976D01*
X119399421Y-124454320D01*
X119389317Y-124384046D01*
X119397128Y-124354982D01*
X119455106Y-124210755D01*
X119455107Y-124210752D01*
X119457940Y-124203704D01*
X119462109Y-124174409D01*
X119481521Y-124038015D01*
X119481521Y-124038011D01*
X119482102Y-124033931D01*
X119482259Y-124018984D01*
X119469639Y-123914698D01*
X119462570Y-123856283D01*
X119462569Y-123856280D01*
X119461657Y-123848742D01*
X119457122Y-123836739D01*
X119410189Y-123712535D01*
X119402055Y-123667997D01*
X119402055Y-123347322D01*
X119402582Y-123336139D01*
X119404257Y-123328646D01*
X119402117Y-123260555D01*
X119402055Y-123256598D01*
X119402055Y-123228699D01*
X119401551Y-123224708D01*
X119400618Y-123212866D01*
X119400340Y-123204000D01*
X119399229Y-123168666D01*
X119397017Y-123161052D01*
X119397016Y-123161047D01*
X119393578Y-123149214D01*
X119389567Y-123129850D01*
X119388022Y-123117619D01*
X119387029Y-123109758D01*
X119384112Y-123102391D01*
X119384111Y-123102386D01*
X119370753Y-123068647D01*
X119366909Y-123057420D01*
X119356785Y-123022577D01*
X119354573Y-123014962D01*
X119344262Y-122997527D01*
X119335567Y-122979779D01*
X119328107Y-122960938D01*
X119302119Y-122925168D01*
X119295603Y-122915248D01*
X119277135Y-122884020D01*
X119277133Y-122884017D01*
X119273097Y-122877193D01*
X119258776Y-122862872D01*
X119245935Y-122847838D01*
X119238686Y-122837861D01*
X119234027Y-122831448D01*
X119199950Y-122803257D01*
X119191171Y-122795267D01*
X109692508Y-113296603D01*
X109663737Y-113252046D01*
X109635171Y-113176447D01*
X109632487Y-113169344D01*
X109550942Y-113050695D01*
X109539659Y-113034278D01*
X109539658Y-113034276D01*
X109535357Y-113028019D01*
X109457275Y-112958450D01*
X109412993Y-112918996D01*
X109412990Y-112918994D01*
X109407321Y-112913943D01*
X109255769Y-112833700D01*
X109245251Y-112831058D01*
X109096822Y-112793775D01*
X109096818Y-112793775D01*
X109089451Y-112791924D01*
X109081852Y-112791884D01*
X109081850Y-112791884D01*
X109010394Y-112791510D01*
X108917969Y-112791026D01*
X108910589Y-112792798D01*
X108910587Y-112792798D01*
X108788914Y-112822009D01*
X108718006Y-112818462D01*
X108660272Y-112777142D01*
X108634042Y-112711168D01*
X108633500Y-112699490D01*
X108633500Y-111348119D01*
X108642592Y-111301123D01*
X108673971Y-111223063D01*
X108689385Y-111184720D01*
X108697025Y-111131037D01*
X108712966Y-111019031D01*
X108712966Y-111019027D01*
X108713547Y-111014947D01*
X108713704Y-111000000D01*
X108706764Y-110942653D01*
X108694015Y-110837299D01*
X108694014Y-110837296D01*
X108693102Y-110829758D01*
X108687373Y-110814595D01*
X108635171Y-110676447D01*
X108632487Y-110669344D01*
X108590636Y-110608450D01*
X108581727Y-110595487D01*
X125091500Y-110595487D01*
X125092872Y-110601939D01*
X125092872Y-110601944D01*
X125098785Y-110629760D01*
X125131206Y-110782288D01*
X125133891Y-110788318D01*
X125133891Y-110788319D01*
X125202605Y-110942653D01*
X125208882Y-110956752D01*
X125321134Y-111111253D01*
X125326044Y-111115674D01*
X125326045Y-111115675D01*
X125454417Y-111231261D01*
X125463056Y-111239040D01*
X125563990Y-111297314D01*
X125619566Y-111329401D01*
X125628444Y-111334527D01*
X125810072Y-111393542D01*
X125816633Y-111394232D01*
X125816635Y-111394232D01*
X125869889Y-111399829D01*
X125952390Y-111408500D01*
X126047610Y-111408500D01*
X126130111Y-111399829D01*
X126183365Y-111394232D01*
X126183367Y-111394232D01*
X126189928Y-111393542D01*
X126371556Y-111334527D01*
X126380435Y-111329401D01*
X126436010Y-111297314D01*
X126536944Y-111239040D01*
X126545584Y-111231261D01*
X126673955Y-111115675D01*
X126673956Y-111115674D01*
X126678866Y-111111253D01*
X126791118Y-110956752D01*
X126797396Y-110942653D01*
X126866109Y-110788319D01*
X126866109Y-110788318D01*
X126868794Y-110782288D01*
X126901215Y-110629760D01*
X126907128Y-110601944D01*
X126907128Y-110601939D01*
X126908500Y-110595487D01*
X126908500Y-110404513D01*
X126906357Y-110394427D01*
X126881426Y-110277142D01*
X126868794Y-110217712D01*
X126866109Y-110211681D01*
X126793803Y-110049278D01*
X126793802Y-110049276D01*
X126791118Y-110043248D01*
X126769105Y-110012949D01*
X126682749Y-109894092D01*
X126678866Y-109888747D01*
X126536944Y-109760960D01*
X126371556Y-109665473D01*
X126189928Y-109606458D01*
X126183367Y-109605768D01*
X126183365Y-109605768D01*
X126130111Y-109600171D01*
X126047610Y-109591500D01*
X125952390Y-109591500D01*
X125869889Y-109600171D01*
X125816635Y-109605768D01*
X125816633Y-109605768D01*
X125810072Y-109606458D01*
X125628444Y-109665473D01*
X125463056Y-109760960D01*
X125321134Y-109888747D01*
X125317251Y-109894092D01*
X125230896Y-110012949D01*
X125208882Y-110043248D01*
X125206198Y-110049276D01*
X125206197Y-110049278D01*
X125133891Y-110211681D01*
X125131206Y-110217712D01*
X125118574Y-110277142D01*
X125093644Y-110394427D01*
X125091500Y-110404513D01*
X125091500Y-110595487D01*
X108581727Y-110595487D01*
X108539659Y-110534278D01*
X108539658Y-110534276D01*
X108535357Y-110528019D01*
X108529686Y-110522966D01*
X108412993Y-110418996D01*
X108412990Y-110418994D01*
X108407321Y-110413943D01*
X108379375Y-110399146D01*
X108262481Y-110337254D01*
X108262482Y-110337254D01*
X108255769Y-110333700D01*
X108245251Y-110331058D01*
X108096822Y-110293775D01*
X108096818Y-110293775D01*
X108089451Y-110291924D01*
X108081852Y-110291884D01*
X108081850Y-110291884D01*
X108010394Y-110291510D01*
X107917969Y-110291026D01*
X107910589Y-110292798D01*
X107910587Y-110292798D01*
X107788914Y-110322009D01*
X107718006Y-110318462D01*
X107660272Y-110277142D01*
X107634042Y-110211168D01*
X107633500Y-110199490D01*
X107633500Y-109435774D01*
X131538102Y-109435774D01*
X131546751Y-109666158D01*
X131594093Y-109891791D01*
X131596051Y-109896750D01*
X131596052Y-109896752D01*
X131653907Y-110043248D01*
X131678776Y-110106221D01*
X131681543Y-110110780D01*
X131681544Y-110110783D01*
X131746883Y-110218458D01*
X131798377Y-110303317D01*
X131801874Y-110307347D01*
X131918123Y-110441312D01*
X131949477Y-110477445D01*
X131962030Y-110487738D01*
X132123627Y-110620240D01*
X132123633Y-110620244D01*
X132127755Y-110623624D01*
X132132391Y-110626263D01*
X132132394Y-110626265D01*
X132234630Y-110684461D01*
X132328114Y-110737675D01*
X132544825Y-110816337D01*
X132550074Y-110817286D01*
X132550077Y-110817287D01*
X132767608Y-110856623D01*
X132767615Y-110856624D01*
X132771692Y-110857361D01*
X132789414Y-110858197D01*
X132794356Y-110858430D01*
X132794363Y-110858430D01*
X132795844Y-110858500D01*
X133257890Y-110858500D01*
X133324809Y-110852822D01*
X133424409Y-110844371D01*
X133424413Y-110844370D01*
X133429720Y-110843920D01*
X133434875Y-110842582D01*
X133434881Y-110842581D01*
X133647703Y-110787343D01*
X133647707Y-110787342D01*
X133652872Y-110786001D01*
X133657738Y-110783809D01*
X133657741Y-110783808D01*
X133858202Y-110693507D01*
X133863075Y-110691312D01*
X134054319Y-110562559D01*
X134221135Y-110403424D01*
X134358754Y-110218458D01*
X134362461Y-110211168D01*
X134460822Y-110017704D01*
X134463240Y-110012949D01*
X134475726Y-109972740D01*
X134530024Y-109797871D01*
X134531607Y-109792773D01*
X134536261Y-109757659D01*
X134561198Y-109569511D01*
X134561198Y-109569506D01*
X134561898Y-109564226D01*
X134553249Y-109333842D01*
X134505907Y-109108209D01*
X134421224Y-108893779D01*
X134380932Y-108827379D01*
X134304390Y-108701243D01*
X134301623Y-108696683D01*
X134289744Y-108682994D01*
X134154023Y-108526588D01*
X134154021Y-108526586D01*
X134150523Y-108522555D01*
X134114471Y-108492994D01*
X134074476Y-108434334D01*
X134072545Y-108363364D01*
X134109290Y-108302616D01*
X134128059Y-108288416D01*
X134267807Y-108201937D01*
X134279208Y-108192901D01*
X134393739Y-108078171D01*
X134402751Y-108066760D01*
X134487816Y-107928757D01*
X134493963Y-107915576D01*
X134545138Y-107761290D01*
X134548005Y-107747914D01*
X134557672Y-107653562D01*
X134558000Y-107647146D01*
X134558000Y-107272115D01*
X134553525Y-107256876D01*
X134552135Y-107255671D01*
X134544452Y-107254000D01*
X131560116Y-107254000D01*
X131544877Y-107258475D01*
X131543672Y-107259865D01*
X131542001Y-107267548D01*
X131542001Y-107647095D01*
X131542338Y-107653614D01*
X131552257Y-107749206D01*
X131555149Y-107762600D01*
X131606588Y-107916784D01*
X131612761Y-107929962D01*
X131698063Y-108067807D01*
X131707099Y-108079208D01*
X131821829Y-108193739D01*
X131833243Y-108202753D01*
X131972713Y-108288723D01*
X132020207Y-108341495D01*
X132031631Y-108411566D01*
X132003357Y-108476690D01*
X131993574Y-108487149D01*
X131878865Y-108596576D01*
X131875682Y-108600854D01*
X131852861Y-108631526D01*
X131741246Y-108781542D01*
X131738830Y-108786293D01*
X131738828Y-108786297D01*
X131699613Y-108863428D01*
X131636760Y-108987051D01*
X131635178Y-108992145D01*
X131635177Y-108992148D01*
X131573115Y-109192020D01*
X131568393Y-109207227D01*
X131567692Y-109212516D01*
X131541590Y-109409460D01*
X131538102Y-109435774D01*
X107633500Y-109435774D01*
X107633500Y-107848119D01*
X107642592Y-107801123D01*
X107686553Y-107691764D01*
X107689385Y-107684720D01*
X107712967Y-107519022D01*
X107742485Y-107454263D01*
X107744329Y-107452135D01*
X107746000Y-107444452D01*
X107746000Y-107439884D01*
X108254000Y-107439884D01*
X108258475Y-107455123D01*
X108259865Y-107456328D01*
X108267548Y-107457999D01*
X108522095Y-107457999D01*
X108528614Y-107457662D01*
X108624206Y-107447743D01*
X108637600Y-107444851D01*
X108791784Y-107393412D01*
X108804962Y-107387239D01*
X108933578Y-107307648D01*
X109002030Y-107288810D01*
X109065997Y-107307532D01*
X109196243Y-107387816D01*
X109209424Y-107393963D01*
X109363710Y-107445138D01*
X109377086Y-107448005D01*
X109471438Y-107457672D01*
X109477854Y-107458000D01*
X109727885Y-107458000D01*
X109743124Y-107453525D01*
X109744329Y-107452135D01*
X109746000Y-107444452D01*
X109746000Y-107439884D01*
X110254000Y-107439884D01*
X110258475Y-107455123D01*
X110259865Y-107456328D01*
X110267548Y-107457999D01*
X110522095Y-107457999D01*
X110528614Y-107457662D01*
X110624206Y-107447743D01*
X110637600Y-107444851D01*
X110791784Y-107393412D01*
X110804962Y-107387239D01*
X110942807Y-107301937D01*
X110954208Y-107292901D01*
X111068739Y-107178171D01*
X111077751Y-107166760D01*
X111162816Y-107028757D01*
X111168963Y-107015576D01*
X111220138Y-106861290D01*
X111223005Y-106847914D01*
X111232672Y-106753562D01*
X111233000Y-106747146D01*
X111233000Y-106727885D01*
X131542000Y-106727885D01*
X131546475Y-106743124D01*
X131547865Y-106744329D01*
X131555548Y-106746000D01*
X132777885Y-106746000D01*
X132793124Y-106741525D01*
X132794329Y-106740135D01*
X132796000Y-106732452D01*
X132796000Y-106727885D01*
X133304000Y-106727885D01*
X133308475Y-106743124D01*
X133309865Y-106744329D01*
X133317548Y-106746000D01*
X134539884Y-106746000D01*
X134555123Y-106741525D01*
X134556328Y-106740135D01*
X134557999Y-106732452D01*
X134557999Y-106352905D01*
X134557662Y-106346386D01*
X134547743Y-106250794D01*
X134544851Y-106237400D01*
X134493412Y-106083216D01*
X134487239Y-106070038D01*
X134401937Y-105932193D01*
X134392901Y-105920792D01*
X134278171Y-105806261D01*
X134266760Y-105797249D01*
X134128757Y-105712184D01*
X134115576Y-105706037D01*
X133961290Y-105654862D01*
X133947914Y-105651995D01*
X133853562Y-105642328D01*
X133847145Y-105642000D01*
X133322115Y-105642000D01*
X133306876Y-105646475D01*
X133305671Y-105647865D01*
X133304000Y-105655548D01*
X133304000Y-106727885D01*
X132796000Y-106727885D01*
X132796000Y-105660116D01*
X132791525Y-105644877D01*
X132790135Y-105643672D01*
X132782452Y-105642001D01*
X132252905Y-105642001D01*
X132246386Y-105642338D01*
X132150794Y-105652257D01*
X132137400Y-105655149D01*
X131983216Y-105706588D01*
X131970038Y-105712761D01*
X131832193Y-105798063D01*
X131820792Y-105807099D01*
X131706261Y-105921829D01*
X131697249Y-105933240D01*
X131612184Y-106071243D01*
X131606037Y-106084424D01*
X131554862Y-106238710D01*
X131551995Y-106252086D01*
X131542328Y-106346438D01*
X131542000Y-106352855D01*
X131542000Y-106727885D01*
X111233000Y-106727885D01*
X111233000Y-106722115D01*
X111228525Y-106706876D01*
X111227135Y-106705671D01*
X111219452Y-106704000D01*
X110272115Y-106704000D01*
X110256876Y-106708475D01*
X110255671Y-106709865D01*
X110254000Y-106717548D01*
X110254000Y-107439884D01*
X109746000Y-107439884D01*
X109746000Y-106722115D01*
X109741525Y-106706876D01*
X109740135Y-106705671D01*
X109732452Y-106704000D01*
X108272115Y-106704000D01*
X108256876Y-106708475D01*
X108255671Y-106709865D01*
X108254000Y-106717548D01*
X108254000Y-107439884D01*
X107746000Y-107439884D01*
X107746000Y-106722115D01*
X107741525Y-106706876D01*
X107740135Y-106705671D01*
X107732452Y-106704000D01*
X106785116Y-106704000D01*
X106769877Y-106708475D01*
X106768672Y-106709865D01*
X106767001Y-106717548D01*
X106767001Y-106746154D01*
X106746999Y-106814275D01*
X106698791Y-106858120D01*
X106598839Y-106909709D01*
X106469615Y-107022439D01*
X106371010Y-107162739D01*
X106339864Y-107242624D01*
X106316739Y-107301937D01*
X106308718Y-107322509D01*
X106307726Y-107330042D01*
X106307726Y-107330043D01*
X106288940Y-107472740D01*
X106286335Y-107492526D01*
X106295744Y-107577751D01*
X106304120Y-107653614D01*
X106305153Y-107662975D01*
X106307762Y-107670106D01*
X106307763Y-107670108D01*
X106358826Y-107809644D01*
X106366500Y-107852945D01*
X106366500Y-111240228D01*
X106346498Y-111308349D01*
X106292842Y-111354842D01*
X106222568Y-111364946D01*
X106157988Y-111335452D01*
X106151482Y-111329401D01*
X106053171Y-111231261D01*
X106041760Y-111222249D01*
X105903757Y-111137184D01*
X105890576Y-111131037D01*
X105736290Y-111079862D01*
X105722914Y-111076995D01*
X105628562Y-111067328D01*
X105622145Y-111067000D01*
X104772115Y-111067000D01*
X104756876Y-111071475D01*
X104755671Y-111072865D01*
X104754000Y-111080548D01*
X104754000Y-113289884D01*
X104758475Y-113305123D01*
X104759865Y-113306328D01*
X104767548Y-113307999D01*
X105622095Y-113307999D01*
X105628614Y-113307662D01*
X105724206Y-113297743D01*
X105737600Y-113294851D01*
X105891784Y-113243412D01*
X105904962Y-113237239D01*
X106042807Y-113151937D01*
X106054208Y-113142901D01*
X106151327Y-113045613D01*
X106213610Y-113011534D01*
X106284430Y-113016537D01*
X106341303Y-113059034D01*
X106366171Y-113125533D01*
X106366500Y-113134631D01*
X106366500Y-114776511D01*
X106346498Y-114844632D01*
X106292842Y-114891125D01*
X106222568Y-114901229D01*
X106190464Y-114892150D01*
X106178145Y-114886819D01*
X106170322Y-114885580D01*
X106170312Y-114885577D01*
X106134476Y-114879901D01*
X106122856Y-114877495D01*
X106087711Y-114868472D01*
X106087710Y-114868472D01*
X106080030Y-114866500D01*
X106059776Y-114866500D01*
X106040065Y-114864949D01*
X106027886Y-114863020D01*
X106020057Y-114861780D01*
X106012165Y-114862526D01*
X105976039Y-114865941D01*
X105964181Y-114866500D01*
X99584500Y-114866500D01*
X99516379Y-114846498D01*
X99469886Y-114792842D01*
X99458500Y-114740500D01*
X99458500Y-113599600D01*
X99447526Y-113493834D01*
X99411355Y-113385416D01*
X99408771Y-113314467D01*
X99444955Y-113253383D01*
X99508419Y-113221558D01*
X99579014Y-113229097D01*
X99594444Y-113236978D01*
X99609424Y-113243963D01*
X99763710Y-113295138D01*
X99777086Y-113298005D01*
X99871438Y-113307672D01*
X99877854Y-113308000D01*
X100727885Y-113308000D01*
X100743124Y-113303525D01*
X100744329Y-113302135D01*
X100746000Y-113294452D01*
X100746000Y-113289884D01*
X101254000Y-113289884D01*
X101258475Y-113305123D01*
X101259865Y-113306328D01*
X101267548Y-113307999D01*
X102122095Y-113307999D01*
X102128614Y-113307662D01*
X102224206Y-113297743D01*
X102237600Y-113294851D01*
X102391784Y-113243412D01*
X102404962Y-113237239D01*
X102542807Y-113151937D01*
X102554208Y-113142901D01*
X102660740Y-113036184D01*
X102723023Y-113002105D01*
X102793843Y-113007108D01*
X102838931Y-113036029D01*
X102946829Y-113143739D01*
X102958240Y-113152751D01*
X103096243Y-113237816D01*
X103109424Y-113243963D01*
X103263710Y-113295138D01*
X103277086Y-113298005D01*
X103371438Y-113307672D01*
X103377854Y-113308000D01*
X104227885Y-113308000D01*
X104243124Y-113303525D01*
X104244329Y-113302135D01*
X104246000Y-113294452D01*
X104246000Y-112459615D01*
X104241525Y-112444376D01*
X104240135Y-112443171D01*
X104232452Y-112441500D01*
X101272115Y-112441500D01*
X101256876Y-112445975D01*
X101255671Y-112447365D01*
X101254000Y-112455048D01*
X101254000Y-113289884D01*
X100746000Y-113289884D01*
X100746000Y-111915385D01*
X101254000Y-111915385D01*
X101258475Y-111930624D01*
X101259865Y-111931829D01*
X101267548Y-111933500D01*
X104227885Y-111933500D01*
X104243124Y-111929025D01*
X104244329Y-111927635D01*
X104246000Y-111919952D01*
X104246000Y-111085116D01*
X104241525Y-111069877D01*
X104240135Y-111068672D01*
X104232452Y-111067001D01*
X103377905Y-111067001D01*
X103371386Y-111067338D01*
X103275794Y-111077257D01*
X103262400Y-111080149D01*
X103108216Y-111131588D01*
X103095038Y-111137761D01*
X102957193Y-111223063D01*
X102945792Y-111232099D01*
X102839260Y-111338816D01*
X102776977Y-111372895D01*
X102706157Y-111367892D01*
X102661069Y-111338971D01*
X102553171Y-111231261D01*
X102541760Y-111222249D01*
X102403757Y-111137184D01*
X102390576Y-111131037D01*
X102236290Y-111079862D01*
X102222914Y-111076995D01*
X102128562Y-111067328D01*
X102122145Y-111067000D01*
X101272115Y-111067000D01*
X101256876Y-111071475D01*
X101255671Y-111072865D01*
X101254000Y-111080548D01*
X101254000Y-111915385D01*
X100746000Y-111915385D01*
X100746000Y-111085116D01*
X100741525Y-111069877D01*
X100740135Y-111068672D01*
X100732452Y-111067001D01*
X99877905Y-111067001D01*
X99871386Y-111067338D01*
X99775794Y-111077257D01*
X99762400Y-111080149D01*
X99608216Y-111131588D01*
X99595038Y-111137762D01*
X99500546Y-111196235D01*
X99432094Y-111215073D01*
X99364325Y-111193912D01*
X99322050Y-111145870D01*
X99321224Y-111143779D01*
X99201623Y-110946683D01*
X99112450Y-110843920D01*
X99054023Y-110776588D01*
X99054021Y-110776586D01*
X99050523Y-110772555D01*
X98951440Y-110691312D01*
X98876373Y-110629760D01*
X98876367Y-110629756D01*
X98872245Y-110626376D01*
X98840750Y-110608448D01*
X98791445Y-110557368D01*
X98777583Y-110487738D01*
X98803566Y-110421667D01*
X98832716Y-110394427D01*
X98940282Y-110322009D01*
X98954319Y-110312559D01*
X98976850Y-110291066D01*
X99053744Y-110217712D01*
X99121135Y-110153424D01*
X99258754Y-109968458D01*
X99297734Y-109891791D01*
X99310997Y-109865704D01*
X99363240Y-109762949D01*
X99392482Y-109668777D01*
X99430024Y-109547871D01*
X99431607Y-109542773D01*
X99445082Y-109441105D01*
X99461198Y-109319511D01*
X99461198Y-109319506D01*
X99461898Y-109314226D01*
X99453249Y-109083842D01*
X99405907Y-108858209D01*
X99390264Y-108818598D01*
X99323185Y-108648744D01*
X99323184Y-108648742D01*
X99321224Y-108643779D01*
X99314282Y-108632338D01*
X99204390Y-108451243D01*
X99201623Y-108446683D01*
X99114755Y-108346576D01*
X99054023Y-108276588D01*
X99054021Y-108276586D01*
X99050523Y-108272555D01*
X98979109Y-108213999D01*
X98876373Y-108129760D01*
X98876367Y-108129756D01*
X98872245Y-108126376D01*
X98840750Y-108108448D01*
X98791445Y-108057368D01*
X98777583Y-107987738D01*
X98803566Y-107921667D01*
X98832716Y-107894427D01*
X98894331Y-107852945D01*
X98954319Y-107812559D01*
X99121135Y-107653424D01*
X99258754Y-107468458D01*
X99264072Y-107458000D01*
X99329128Y-107330043D01*
X99363240Y-107262949D01*
X99389565Y-107178171D01*
X99430024Y-107047871D01*
X99431607Y-107042773D01*
X99435212Y-107015576D01*
X99461198Y-106819511D01*
X99461198Y-106819506D01*
X99461898Y-106814226D01*
X99459343Y-106746154D01*
X99455196Y-106635702D01*
X99453249Y-106583842D01*
X99449717Y-106567006D01*
X99407002Y-106363428D01*
X99405907Y-106358209D01*
X99403948Y-106353248D01*
X99323185Y-106148744D01*
X99323184Y-106148742D01*
X99321224Y-106143779D01*
X99293367Y-106097871D01*
X99204390Y-105951243D01*
X99201623Y-105946683D01*
X99147598Y-105884424D01*
X99054023Y-105776588D01*
X99054021Y-105776586D01*
X99050523Y-105772555D01*
X98977599Y-105712761D01*
X98876373Y-105629760D01*
X98876367Y-105629756D01*
X98872245Y-105626376D01*
X98867609Y-105623737D01*
X98867606Y-105623735D01*
X98676529Y-105514968D01*
X98671886Y-105512325D01*
X98455175Y-105433663D01*
X98449926Y-105432714D01*
X98449923Y-105432713D01*
X98232392Y-105393377D01*
X98232385Y-105393376D01*
X98228308Y-105392639D01*
X98210586Y-105391803D01*
X98205644Y-105391570D01*
X98205637Y-105391570D01*
X98204156Y-105391500D01*
X97792110Y-105391500D01*
X97725191Y-105397178D01*
X97625591Y-105405629D01*
X97625587Y-105405630D01*
X97620280Y-105406080D01*
X97615125Y-105407418D01*
X97615119Y-105407419D01*
X97402297Y-105462657D01*
X97402293Y-105462658D01*
X97397128Y-105463999D01*
X97392262Y-105466191D01*
X97392259Y-105466192D01*
X97284027Y-105514947D01*
X97186925Y-105558688D01*
X96995681Y-105687441D01*
X96828865Y-105846576D01*
X96691246Y-106031542D01*
X96688830Y-106036293D01*
X96688828Y-106036297D01*
X96639003Y-106134297D01*
X96586760Y-106237051D01*
X96585178Y-106242145D01*
X96585177Y-106242148D01*
X96538570Y-106392247D01*
X96518393Y-106457227D01*
X96517692Y-106462516D01*
X96494405Y-106638220D01*
X96488102Y-106685774D01*
X96496751Y-106916158D01*
X96544093Y-107141791D01*
X96546051Y-107146750D01*
X96546052Y-107146752D01*
X96609548Y-107307532D01*
X96628776Y-107356221D01*
X96631543Y-107360780D01*
X96631544Y-107360783D01*
X96721045Y-107508276D01*
X96748377Y-107553317D01*
X96751874Y-107557347D01*
X96868515Y-107691764D01*
X96899477Y-107727445D01*
X96940754Y-107761290D01*
X97073627Y-107870240D01*
X97073633Y-107870244D01*
X97077755Y-107873624D01*
X97109250Y-107891552D01*
X97158555Y-107942632D01*
X97172417Y-108012262D01*
X97146434Y-108078333D01*
X97117284Y-108105573D01*
X96995681Y-108187441D01*
X96828865Y-108346576D01*
X96691246Y-108531542D01*
X96688828Y-108536298D01*
X96688826Y-108536301D01*
X96673014Y-108567401D01*
X96624311Y-108619059D01*
X96595252Y-108631015D01*
X96591203Y-108631526D01*
X96583834Y-108634443D01*
X96583828Y-108634445D01*
X96550092Y-108647802D01*
X96538865Y-108651646D01*
X96496407Y-108663982D01*
X96489581Y-108668019D01*
X96478972Y-108674293D01*
X96461224Y-108682988D01*
X96442383Y-108690448D01*
X96435967Y-108695110D01*
X96435966Y-108695110D01*
X96406613Y-108716436D01*
X96396693Y-108722952D01*
X96365465Y-108741420D01*
X96365462Y-108741422D01*
X96358638Y-108745458D01*
X96344317Y-108759779D01*
X96329284Y-108772619D01*
X96312893Y-108784528D01*
X96307843Y-108790632D01*
X96307838Y-108790637D01*
X96284707Y-108818598D01*
X96276717Y-108827379D01*
X95723595Y-109380500D01*
X95661283Y-109414525D01*
X95590467Y-109409460D01*
X95533632Y-109366913D01*
X95508821Y-109300393D01*
X95508500Y-109291404D01*
X95508500Y-104492526D01*
X106286335Y-104492526D01*
X106305153Y-104662975D01*
X106364085Y-104824015D01*
X106368322Y-104830321D01*
X106368324Y-104830324D01*
X106372981Y-104837254D01*
X106459730Y-104966349D01*
X106586565Y-105081760D01*
X106737268Y-105163585D01*
X106786295Y-105176447D01*
X106832691Y-105188619D01*
X106893506Y-105225253D01*
X106907856Y-105244185D01*
X106926522Y-105274348D01*
X107051697Y-105399305D01*
X107056235Y-105402102D01*
X107096824Y-105459353D01*
X107100054Y-105530276D01*
X107064428Y-105591687D01*
X107055932Y-105599062D01*
X107045793Y-105607098D01*
X106931261Y-105721829D01*
X106922249Y-105733240D01*
X106837184Y-105871243D01*
X106831037Y-105884424D01*
X106779862Y-106038710D01*
X106776995Y-106052086D01*
X106767328Y-106146438D01*
X106767000Y-106152855D01*
X106767000Y-106177885D01*
X106771475Y-106193124D01*
X106772865Y-106194329D01*
X106780548Y-106196000D01*
X111214884Y-106196000D01*
X111230123Y-106191525D01*
X111231328Y-106190135D01*
X111232999Y-106182452D01*
X111232999Y-106152905D01*
X111232662Y-106146386D01*
X111222743Y-106050794D01*
X111219851Y-106037400D01*
X111168412Y-105883216D01*
X111162239Y-105870038D01*
X111076937Y-105732193D01*
X111067901Y-105720792D01*
X110953172Y-105606262D01*
X110944238Y-105599206D01*
X110903177Y-105541288D01*
X110899947Y-105470365D01*
X110935574Y-105408954D01*
X110943407Y-105402154D01*
X110949348Y-105398478D01*
X110955372Y-105392444D01*
X111069134Y-105278483D01*
X111074305Y-105273303D01*
X111088009Y-105251071D01*
X111092749Y-105243382D01*
X111145522Y-105195890D01*
X111200008Y-105183500D01*
X122735406Y-105183500D01*
X122803527Y-105203502D01*
X122824501Y-105220405D01*
X123996343Y-106392247D01*
X124003887Y-106400537D01*
X124008000Y-106407018D01*
X124013777Y-106412443D01*
X124057667Y-106453658D01*
X124060509Y-106456413D01*
X124080231Y-106476135D01*
X124083355Y-106478558D01*
X124083359Y-106478562D01*
X124083424Y-106478612D01*
X124092445Y-106486317D01*
X124124679Y-106516586D01*
X124131627Y-106520405D01*
X124131629Y-106520407D01*
X124142432Y-106526346D01*
X124158959Y-106537202D01*
X124168698Y-106544757D01*
X124168700Y-106544758D01*
X124174960Y-106549614D01*
X124215540Y-106567174D01*
X124226188Y-106572391D01*
X124256715Y-106589173D01*
X124264940Y-106593695D01*
X124272616Y-106595666D01*
X124272619Y-106595667D01*
X124284562Y-106598733D01*
X124303267Y-106605137D01*
X124321855Y-106613181D01*
X124329678Y-106614420D01*
X124329688Y-106614423D01*
X124365524Y-106620099D01*
X124377144Y-106622505D01*
X124408959Y-106630673D01*
X124419970Y-106633500D01*
X124440224Y-106633500D01*
X124459934Y-106635051D01*
X124479943Y-106638220D01*
X124487835Y-106637474D01*
X124506580Y-106635702D01*
X124523962Y-106634059D01*
X124535819Y-106633500D01*
X124921233Y-106633500D01*
X124932416Y-106634027D01*
X124939909Y-106635702D01*
X124947835Y-106635453D01*
X124947836Y-106635453D01*
X125007986Y-106633562D01*
X125011945Y-106633500D01*
X125039856Y-106633500D01*
X125043791Y-106633003D01*
X125043856Y-106632995D01*
X125055693Y-106632062D01*
X125087951Y-106631048D01*
X125091970Y-106630922D01*
X125099889Y-106630673D01*
X125119343Y-106625021D01*
X125138700Y-106621013D01*
X125150930Y-106619468D01*
X125150931Y-106619468D01*
X125158797Y-106618474D01*
X125166168Y-106615555D01*
X125166170Y-106615555D01*
X125199912Y-106602196D01*
X125211142Y-106598351D01*
X125245983Y-106588229D01*
X125245984Y-106588229D01*
X125253593Y-106586018D01*
X125260412Y-106581985D01*
X125260417Y-106581983D01*
X125271028Y-106575707D01*
X125288776Y-106567012D01*
X125307617Y-106559552D01*
X125343387Y-106533564D01*
X125353307Y-106527048D01*
X125384535Y-106508580D01*
X125384538Y-106508578D01*
X125391362Y-106504542D01*
X125405683Y-106490221D01*
X125420717Y-106477380D01*
X125430693Y-106470132D01*
X125437107Y-106465472D01*
X125465293Y-106431401D01*
X125473282Y-106422622D01*
X125696225Y-106199679D01*
X125739965Y-106171921D01*
X125741759Y-106171510D01*
X125894958Y-106094459D01*
X125900729Y-106089530D01*
X125900732Y-106089528D01*
X126019578Y-105988023D01*
X126025355Y-105983089D01*
X126125424Y-105843830D01*
X126189385Y-105684720D01*
X126194828Y-105646475D01*
X126212966Y-105519031D01*
X126212966Y-105519027D01*
X126213547Y-105514947D01*
X126213704Y-105500000D01*
X126202284Y-105405629D01*
X126194015Y-105337299D01*
X126194014Y-105337296D01*
X126193102Y-105329758D01*
X126172165Y-105274348D01*
X126135171Y-105176447D01*
X126132487Y-105169344D01*
X126035357Y-105028019D01*
X126029686Y-105022966D01*
X125912993Y-104918996D01*
X125912990Y-104918994D01*
X125907321Y-104913943D01*
X125899325Y-104909709D01*
X125762481Y-104837254D01*
X125762482Y-104837254D01*
X125755769Y-104833700D01*
X125738196Y-104829286D01*
X125596822Y-104793775D01*
X125596818Y-104793775D01*
X125589451Y-104791924D01*
X125581852Y-104791884D01*
X125581850Y-104791884D01*
X125510394Y-104791510D01*
X125417969Y-104791026D01*
X125410589Y-104792798D01*
X125410587Y-104792798D01*
X125258602Y-104829286D01*
X125258598Y-104829287D01*
X125251223Y-104831058D01*
X125098839Y-104909709D01*
X124969615Y-105022439D01*
X124871010Y-105162739D01*
X124853462Y-105207748D01*
X124810083Y-105263947D01*
X124743205Y-105287774D01*
X124674060Y-105271661D01*
X124646975Y-105251071D01*
X123553652Y-104157747D01*
X123546112Y-104149461D01*
X123542000Y-104142982D01*
X123492348Y-104096356D01*
X123489507Y-104093602D01*
X123469770Y-104073865D01*
X123466573Y-104071385D01*
X123457551Y-104063680D01*
X123431100Y-104038841D01*
X123425321Y-104033414D01*
X123418375Y-104029595D01*
X123418372Y-104029593D01*
X123407566Y-104023652D01*
X123391047Y-104012801D01*
X123390583Y-104012441D01*
X123375041Y-104000386D01*
X123367772Y-103997241D01*
X123367768Y-103997238D01*
X123334463Y-103982826D01*
X123323813Y-103977609D01*
X123285060Y-103956305D01*
X123265437Y-103951267D01*
X123246734Y-103944863D01*
X123235420Y-103939967D01*
X123235419Y-103939967D01*
X123228145Y-103936819D01*
X123220322Y-103935580D01*
X123220312Y-103935577D01*
X123184476Y-103929901D01*
X123172856Y-103927495D01*
X123137711Y-103918472D01*
X123137710Y-103918472D01*
X123130030Y-103916500D01*
X123109776Y-103916500D01*
X123090065Y-103914949D01*
X123088481Y-103914698D01*
X123070057Y-103911780D01*
X123062165Y-103912526D01*
X123026039Y-103915941D01*
X123014181Y-103916500D01*
X111199899Y-103916500D01*
X111131778Y-103896498D01*
X111092755Y-103856803D01*
X111077332Y-103831880D01*
X111073478Y-103825652D01*
X110948303Y-103700695D01*
X110942072Y-103696854D01*
X110803968Y-103611725D01*
X110803966Y-103611724D01*
X110797738Y-103607885D01*
X110637254Y-103554655D01*
X110636389Y-103554368D01*
X110636387Y-103554368D01*
X110629861Y-103552203D01*
X110623025Y-103551503D01*
X110623022Y-103551502D01*
X110579969Y-103547091D01*
X110525400Y-103541500D01*
X109474600Y-103541500D01*
X109471354Y-103541837D01*
X109471350Y-103541837D01*
X109375692Y-103551762D01*
X109375688Y-103551763D01*
X109368834Y-103552474D01*
X109362298Y-103554655D01*
X109362296Y-103554655D01*
X109230194Y-103598728D01*
X109201054Y-103608450D01*
X109066421Y-103691764D01*
X108997969Y-103710602D01*
X108934002Y-103691880D01*
X108803968Y-103611725D01*
X108803966Y-103611724D01*
X108797738Y-103607885D01*
X108637254Y-103554655D01*
X108636389Y-103554368D01*
X108636387Y-103554368D01*
X108629861Y-103552203D01*
X108623025Y-103551503D01*
X108623022Y-103551502D01*
X108579969Y-103547091D01*
X108525400Y-103541500D01*
X107474600Y-103541500D01*
X107471354Y-103541837D01*
X107471350Y-103541837D01*
X107375692Y-103551762D01*
X107375688Y-103551763D01*
X107368834Y-103552474D01*
X107362298Y-103554655D01*
X107362296Y-103554655D01*
X107230194Y-103598728D01*
X107201054Y-103608450D01*
X107088100Y-103678349D01*
X107066421Y-103691764D01*
X107050652Y-103701522D01*
X107045478Y-103706705D01*
X106996970Y-103755298D01*
X106934688Y-103789378D01*
X106924589Y-103791061D01*
X106917969Y-103791026D01*
X106910590Y-103792798D01*
X106910586Y-103792798D01*
X106758602Y-103829286D01*
X106758598Y-103829287D01*
X106751223Y-103831058D01*
X106598839Y-103909709D01*
X106469615Y-104022439D01*
X106371010Y-104162739D01*
X106308718Y-104322509D01*
X106286335Y-104492526D01*
X95508500Y-104492526D01*
X95508500Y-100132703D01*
X97890743Y-100132703D01*
X97928268Y-100417734D01*
X98004129Y-100695036D01*
X98116923Y-100959476D01*
X98264561Y-101206161D01*
X98444313Y-101430528D01*
X98652851Y-101628423D01*
X98886317Y-101796186D01*
X98890112Y-101798195D01*
X98890113Y-101798196D01*
X98911869Y-101809715D01*
X99140392Y-101930712D01*
X99410373Y-102029511D01*
X99691264Y-102090755D01*
X99719841Y-102093004D01*
X99914282Y-102108307D01*
X99914291Y-102108307D01*
X99916739Y-102108500D01*
X100072271Y-102108500D01*
X100074407Y-102108354D01*
X100074418Y-102108354D01*
X100282548Y-102094165D01*
X100282554Y-102094164D01*
X100286825Y-102093873D01*
X100291020Y-102093004D01*
X100291022Y-102093004D01*
X100427584Y-102064723D01*
X100568342Y-102035574D01*
X100839343Y-101939607D01*
X101094812Y-101807750D01*
X101098313Y-101805289D01*
X101098317Y-101805287D01*
X101212417Y-101725096D01*
X101330023Y-101642441D01*
X101540622Y-101446740D01*
X101722713Y-101224268D01*
X101872927Y-100979142D01*
X101988483Y-100715898D01*
X102067244Y-100439406D01*
X102107751Y-100154784D01*
X102107845Y-100136951D01*
X102109235Y-99871583D01*
X102109235Y-99871576D01*
X102109257Y-99867297D01*
X102071732Y-99582266D01*
X101995871Y-99304964D01*
X101959656Y-99220059D01*
X101884763Y-99044476D01*
X101884761Y-99044472D01*
X101883077Y-99040524D01*
X101761578Y-98837514D01*
X101737643Y-98797521D01*
X101737640Y-98797517D01*
X101735439Y-98793839D01*
X101555687Y-98569472D01*
X101347149Y-98371577D01*
X101157064Y-98234987D01*
X101117172Y-98206321D01*
X101117171Y-98206320D01*
X101113683Y-98203814D01*
X101091843Y-98192250D01*
X101068654Y-98179972D01*
X100859608Y-98069288D01*
X100589627Y-97970489D01*
X100308736Y-97909245D01*
X100277685Y-97906801D01*
X100085718Y-97891693D01*
X100085709Y-97891693D01*
X100083261Y-97891500D01*
X99927729Y-97891500D01*
X99925593Y-97891646D01*
X99925582Y-97891646D01*
X99717452Y-97905835D01*
X99717446Y-97905836D01*
X99713175Y-97906127D01*
X99708980Y-97906996D01*
X99708978Y-97906996D01*
X99572416Y-97935277D01*
X99431658Y-97964426D01*
X99160657Y-98060393D01*
X98905188Y-98192250D01*
X98901687Y-98194711D01*
X98901683Y-98194713D01*
X98787582Y-98274905D01*
X98669977Y-98357559D01*
X98654892Y-98371577D01*
X98561095Y-98458739D01*
X98459378Y-98553260D01*
X98277287Y-98775732D01*
X98127073Y-99020858D01*
X98011517Y-99284102D01*
X97932756Y-99560594D01*
X97892249Y-99845216D01*
X97892227Y-99849505D01*
X97892226Y-99849512D01*
X97891263Y-100033420D01*
X97890743Y-100132703D01*
X95508500Y-100132703D01*
X95508500Y-100053250D01*
X95510246Y-100032345D01*
X95512770Y-100017344D01*
X95512770Y-100017341D01*
X95513576Y-100012552D01*
X95513729Y-100000000D01*
X95513039Y-99995184D01*
X95513039Y-99995178D01*
X95511387Y-99983644D01*
X95510234Y-99960284D01*
X95525352Y-99614036D01*
X95526310Y-99603086D01*
X95567761Y-99288230D01*
X95576019Y-99225502D01*
X95577927Y-99214685D01*
X95615662Y-99044476D01*
X95660353Y-98842885D01*
X95663198Y-98832268D01*
X95750123Y-98556579D01*
X95777718Y-98469061D01*
X95781474Y-98458739D01*
X95817578Y-98371577D01*
X95927220Y-98106877D01*
X95931862Y-98096924D01*
X95946249Y-98069288D01*
X96107706Y-97759132D01*
X96113201Y-97749613D01*
X96317820Y-97428426D01*
X96324124Y-97419422D01*
X96555962Y-97117284D01*
X96563028Y-97108863D01*
X96820314Y-96828086D01*
X96828086Y-96820314D01*
X97108863Y-96563028D01*
X97117284Y-96555962D01*
X97419422Y-96324124D01*
X97428426Y-96317820D01*
X97749613Y-96113201D01*
X97759133Y-96107705D01*
X98096933Y-95931858D01*
X98106877Y-95927220D01*
X98458746Y-95781471D01*
X98469061Y-95777718D01*
X98832269Y-95663198D01*
X98842886Y-95660353D01*
X99214693Y-95577926D01*
X99225502Y-95576019D01*
X99603087Y-95526310D01*
X99614035Y-95525352D01*
X99956554Y-95510397D01*
X99981429Y-95511777D01*
X99993724Y-95513691D01*
X100002626Y-95512527D01*
X100002628Y-95512527D01*
X100021399Y-95510072D01*
X100025286Y-95509564D01*
X100041621Y-95508500D01*
X103874000Y-95508500D01*
X103942121Y-95528502D01*
G37*
%TD.AperFunction*%
%TA.AperFunction,Conductor*%
G36*
X100752908Y-127653502D02*
G01*
X100773882Y-127670404D01*
X100886645Y-127783168D01*
X100995735Y-127892258D01*
X101003269Y-127900537D01*
X101007382Y-127907018D01*
X101051043Y-127948018D01*
X101057033Y-127953643D01*
X101059875Y-127956398D01*
X101079612Y-127976135D01*
X101082809Y-127978615D01*
X101091829Y-127986318D01*
X101124061Y-128016586D01*
X101131007Y-128020405D01*
X101131010Y-128020407D01*
X101141816Y-128026348D01*
X101158335Y-128037199D01*
X101174341Y-128049614D01*
X101181610Y-128052759D01*
X101181614Y-128052762D01*
X101214919Y-128067174D01*
X101225569Y-128072391D01*
X101264322Y-128093695D01*
X101271997Y-128095666D01*
X101271998Y-128095666D01*
X101283944Y-128098733D01*
X101302648Y-128105137D01*
X101311742Y-128109072D01*
X101321237Y-128113181D01*
X101329060Y-128114420D01*
X101329070Y-128114423D01*
X101364906Y-128120099D01*
X101376526Y-128122505D01*
X101411574Y-128131503D01*
X101419352Y-128133500D01*
X101439606Y-128133500D01*
X101459316Y-128135051D01*
X101479325Y-128138220D01*
X101487217Y-128137474D01*
X101523343Y-128134059D01*
X101535201Y-128133500D01*
X102660905Y-128133500D01*
X102729026Y-128153502D01*
X102750000Y-128170405D01*
X102807461Y-128227866D01*
X102836692Y-128273660D01*
X102864084Y-128348515D01*
X102959729Y-128490849D01*
X102965345Y-128495959D01*
X103069729Y-128590941D01*
X103086564Y-128606260D01*
X103237267Y-128688085D01*
X103403138Y-128731601D01*
X103490585Y-128732974D01*
X103567002Y-128734175D01*
X103567005Y-128734175D01*
X103574601Y-128734294D01*
X103582005Y-128732598D01*
X103582007Y-128732598D01*
X103712371Y-128702741D01*
X103783238Y-128707031D01*
X103840536Y-128748953D01*
X103866073Y-128815197D01*
X103866500Y-128825561D01*
X103866500Y-131021233D01*
X103865973Y-131032416D01*
X103864298Y-131039909D01*
X103864547Y-131047835D01*
X103864547Y-131047836D01*
X103866438Y-131107986D01*
X103866500Y-131111945D01*
X103866500Y-131139856D01*
X103866997Y-131143790D01*
X103866997Y-131143791D01*
X103867005Y-131143856D01*
X103867938Y-131155693D01*
X103869327Y-131199889D01*
X103874624Y-131218120D01*
X103874978Y-131219339D01*
X103878987Y-131238700D01*
X103881526Y-131258797D01*
X103884445Y-131266168D01*
X103884445Y-131266170D01*
X103897804Y-131299912D01*
X103901649Y-131311142D01*
X103911233Y-131344131D01*
X103913982Y-131353593D01*
X103918015Y-131360412D01*
X103918017Y-131360417D01*
X103924293Y-131371028D01*
X103932988Y-131388776D01*
X103940448Y-131407617D01*
X103945110Y-131414033D01*
X103945110Y-131414034D01*
X103966436Y-131443387D01*
X103972952Y-131453307D01*
X103990303Y-131482645D01*
X103995458Y-131491362D01*
X104009779Y-131505683D01*
X104022619Y-131520716D01*
X104034528Y-131537107D01*
X104058693Y-131557098D01*
X104068605Y-131565298D01*
X104077384Y-131573288D01*
X105954595Y-133450499D01*
X105988621Y-133512811D01*
X105991500Y-133539594D01*
X105991500Y-135365500D01*
X105971498Y-135433621D01*
X105917842Y-135480114D01*
X105865500Y-135491500D01*
X100049367Y-135491500D01*
X100029982Y-135490000D01*
X100015149Y-135487690D01*
X100015145Y-135487690D01*
X100006276Y-135486309D01*
X99985817Y-135488984D01*
X99963993Y-135489928D01*
X99614035Y-135474648D01*
X99603086Y-135473690D01*
X99586436Y-135471498D01*
X99225502Y-135423981D01*
X99214693Y-135422074D01*
X98842885Y-135339647D01*
X98832268Y-135336802D01*
X98717498Y-135300615D01*
X98469061Y-135222282D01*
X98458746Y-135218529D01*
X98106877Y-135072780D01*
X98096933Y-135068142D01*
X97759132Y-134892294D01*
X97749613Y-134886799D01*
X97428426Y-134682180D01*
X97419422Y-134675876D01*
X97117284Y-134444038D01*
X97108863Y-134436972D01*
X96828086Y-134179686D01*
X96820314Y-134171914D01*
X96563028Y-133891137D01*
X96555962Y-133882716D01*
X96324124Y-133580578D01*
X96317820Y-133571574D01*
X96114707Y-133252751D01*
X96113200Y-133250385D01*
X96107705Y-133240867D01*
X96037450Y-133105908D01*
X95931858Y-132903067D01*
X95927216Y-132893114D01*
X95916906Y-132868222D01*
X95781471Y-132541254D01*
X95777715Y-132530932D01*
X95762085Y-132481358D01*
X95663198Y-132167731D01*
X95660353Y-132157114D01*
X95657519Y-132144329D01*
X95577926Y-131785307D01*
X95576018Y-131774490D01*
X95573803Y-131757659D01*
X95526310Y-131396913D01*
X95525352Y-131385964D01*
X95523606Y-131345983D01*
X95514294Y-131132703D01*
X97890743Y-131132703D01*
X97891302Y-131136947D01*
X97891302Y-131136951D01*
X97901988Y-131218120D01*
X97928268Y-131417734D01*
X97929401Y-131421874D01*
X97929401Y-131421876D01*
X97946026Y-131482645D01*
X98004129Y-131695036D01*
X98005813Y-131698984D01*
X98094730Y-131907445D01*
X98116923Y-131959476D01*
X98191473Y-132084040D01*
X98241562Y-132167732D01*
X98264561Y-132206161D01*
X98444313Y-132430528D01*
X98461397Y-132446740D01*
X98635232Y-132611703D01*
X98652851Y-132628423D01*
X98811205Y-132742212D01*
X98877898Y-132790136D01*
X98886317Y-132796186D01*
X98890112Y-132798195D01*
X98890113Y-132798196D01*
X98911869Y-132809715D01*
X99140392Y-132930712D01*
X99164699Y-132939607D01*
X99349515Y-133007240D01*
X99410373Y-133029511D01*
X99691264Y-133090755D01*
X99719841Y-133093004D01*
X99914282Y-133108307D01*
X99914291Y-133108307D01*
X99916739Y-133108500D01*
X100072271Y-133108500D01*
X100074407Y-133108354D01*
X100074418Y-133108354D01*
X100282548Y-133094165D01*
X100282554Y-133094164D01*
X100286825Y-133093873D01*
X100291020Y-133093004D01*
X100291022Y-133093004D01*
X100548495Y-133039684D01*
X100568342Y-133035574D01*
X100839343Y-132939607D01*
X101094812Y-132807750D01*
X101098313Y-132805289D01*
X101098317Y-132805287D01*
X101241336Y-132704771D01*
X101330023Y-132642441D01*
X101408403Y-132569606D01*
X101537479Y-132449661D01*
X101537481Y-132449658D01*
X101540622Y-132446740D01*
X101722713Y-132224268D01*
X101872927Y-131979142D01*
X101988483Y-131715898D01*
X102067244Y-131439406D01*
X102102459Y-131191970D01*
X102107146Y-131159036D01*
X102107146Y-131159034D01*
X102107751Y-131154784D01*
X102107778Y-131149760D01*
X102109235Y-130871583D01*
X102109235Y-130871576D01*
X102109257Y-130867297D01*
X102071732Y-130582266D01*
X101995871Y-130304964D01*
X101985295Y-130280170D01*
X101884763Y-130044476D01*
X101884761Y-130044472D01*
X101883077Y-130040524D01*
X101777203Y-129863621D01*
X101737643Y-129797521D01*
X101737640Y-129797517D01*
X101735439Y-129793839D01*
X101555687Y-129569472D01*
X101347149Y-129371577D01*
X101113683Y-129203814D01*
X101091843Y-129192250D01*
X101049478Y-129169819D01*
X100859608Y-129069288D01*
X100616721Y-128980404D01*
X100593658Y-128971964D01*
X100593656Y-128971963D01*
X100589627Y-128970489D01*
X100308736Y-128909245D01*
X100270401Y-128906228D01*
X100085718Y-128891693D01*
X100085709Y-128891693D01*
X100083261Y-128891500D01*
X99927729Y-128891500D01*
X99925593Y-128891646D01*
X99925582Y-128891646D01*
X99717452Y-128905835D01*
X99717446Y-128905836D01*
X99713175Y-128906127D01*
X99708980Y-128906996D01*
X99708978Y-128906996D01*
X99572417Y-128935276D01*
X99431658Y-128964426D01*
X99160657Y-129060393D01*
X98905188Y-129192250D01*
X98901687Y-129194711D01*
X98901683Y-129194713D01*
X98787582Y-129274905D01*
X98669977Y-129357559D01*
X98654892Y-129371577D01*
X98482272Y-129531986D01*
X98459378Y-129553260D01*
X98277287Y-129775732D01*
X98127073Y-130020858D01*
X98125347Y-130024791D01*
X98125346Y-130024792D01*
X98096929Y-130089528D01*
X98011517Y-130284102D01*
X97932756Y-130560594D01*
X97912041Y-130706148D01*
X97893334Y-130837595D01*
X97892249Y-130845216D01*
X97892227Y-130849505D01*
X97892226Y-130849512D01*
X97890765Y-131128417D01*
X97890743Y-131132703D01*
X95514294Y-131132703D01*
X95510561Y-131047206D01*
X95512188Y-131020805D01*
X95512769Y-131017352D01*
X95512770Y-131017345D01*
X95513576Y-131012552D01*
X95513729Y-131000000D01*
X95509773Y-130972376D01*
X95508500Y-130954514D01*
X95508500Y-127848367D01*
X95528502Y-127780246D01*
X95582158Y-127733753D01*
X95647342Y-127723023D01*
X95715113Y-127729967D01*
X95749600Y-127733500D01*
X96285405Y-127733500D01*
X96353526Y-127753502D01*
X96374500Y-127770405D01*
X96545868Y-127941773D01*
X96553408Y-127950059D01*
X96557520Y-127956538D01*
X96563297Y-127961963D01*
X96607171Y-128003163D01*
X96610013Y-128005918D01*
X96629750Y-128025655D01*
X96632947Y-128028135D01*
X96641967Y-128035838D01*
X96674199Y-128066106D01*
X96681145Y-128069925D01*
X96681148Y-128069927D01*
X96691954Y-128075868D01*
X96708473Y-128086719D01*
X96724479Y-128099134D01*
X96731748Y-128102279D01*
X96731752Y-128102282D01*
X96765057Y-128116694D01*
X96775707Y-128121911D01*
X96814460Y-128143215D01*
X96822135Y-128145186D01*
X96822136Y-128145186D01*
X96834082Y-128148253D01*
X96852787Y-128154657D01*
X96871375Y-128162701D01*
X96879198Y-128163940D01*
X96879208Y-128163943D01*
X96915044Y-128169619D01*
X96926664Y-128172025D01*
X96958479Y-128180193D01*
X96969490Y-128183020D01*
X96989744Y-128183020D01*
X97009454Y-128184571D01*
X97029463Y-128187740D01*
X97037355Y-128186994D01*
X97056100Y-128185222D01*
X97073482Y-128183579D01*
X97085339Y-128183020D01*
X98371713Y-128183020D01*
X98382896Y-128183547D01*
X98390389Y-128185222D01*
X98398315Y-128184973D01*
X98398316Y-128184973D01*
X98458466Y-128183082D01*
X98462425Y-128183020D01*
X98490336Y-128183020D01*
X98494271Y-128182523D01*
X98494336Y-128182515D01*
X98506173Y-128181582D01*
X98538431Y-128180568D01*
X98542450Y-128180442D01*
X98550369Y-128180193D01*
X98569823Y-128174541D01*
X98589180Y-128170533D01*
X98601410Y-128168988D01*
X98601411Y-128168988D01*
X98609277Y-128167994D01*
X98616648Y-128165075D01*
X98616650Y-128165075D01*
X98650392Y-128151716D01*
X98661622Y-128147871D01*
X98696463Y-128137749D01*
X98696464Y-128137749D01*
X98704073Y-128135538D01*
X98710892Y-128131505D01*
X98710897Y-128131503D01*
X98721508Y-128125227D01*
X98739256Y-128116532D01*
X98758097Y-128109072D01*
X98768934Y-128101199D01*
X98793867Y-128083084D01*
X98803787Y-128076568D01*
X98835015Y-128058100D01*
X98835018Y-128058098D01*
X98841842Y-128054062D01*
X98856163Y-128039741D01*
X98871197Y-128026900D01*
X98876770Y-128022851D01*
X98887587Y-128014992D01*
X98915778Y-127980915D01*
X98923768Y-127972136D01*
X99225499Y-127670405D01*
X99287811Y-127636379D01*
X99314594Y-127633500D01*
X100684787Y-127633500D01*
X100752908Y-127653502D01*
G37*
%TD.AperFunction*%
%TA.AperFunction,Conductor*%
G36*
X99301099Y-125417434D02*
G01*
X99353115Y-125465755D01*
X99370750Y-125534526D01*
X99362218Y-125575939D01*
X99345478Y-125618875D01*
X99344486Y-125626408D01*
X99344486Y-125626409D01*
X99324969Y-125774659D01*
X99323095Y-125788892D01*
X99341913Y-125959341D01*
X99344522Y-125966472D01*
X99344523Y-125966474D01*
X99367562Y-126029430D01*
X99400845Y-126120381D01*
X99434340Y-126170226D01*
X99455731Y-126237921D01*
X99437127Y-126306437D01*
X99384434Y-126354018D01*
X99329757Y-126366500D01*
X99083999Y-126366500D01*
X99015878Y-126346498D01*
X98969385Y-126292842D01*
X98957999Y-126240500D01*
X98957999Y-125977905D01*
X98957662Y-125971386D01*
X98947743Y-125875794D01*
X98944851Y-125862400D01*
X98893412Y-125708216D01*
X98887238Y-125695038D01*
X98828924Y-125600803D01*
X98810086Y-125532351D01*
X98831247Y-125464582D01*
X98885688Y-125419010D01*
X98936068Y-125408500D01*
X99198134Y-125408500D01*
X99231217Y-125404906D01*
X99301099Y-125417434D01*
G37*
%TD.AperFunction*%
%TA.AperFunction,Conductor*%
G36*
X95665526Y-123732735D02*
G01*
X95671309Y-123733000D01*
X95695327Y-123733000D01*
X95763448Y-123753002D01*
X95809941Y-123806658D01*
X95820045Y-123876932D01*
X95817767Y-123888339D01*
X95815341Y-123894561D01*
X95812690Y-123914698D01*
X95796993Y-124033931D01*
X95792958Y-124064578D01*
X95797332Y-124104196D01*
X95806705Y-124189092D01*
X95811776Y-124235027D01*
X95870708Y-124396067D01*
X95874945Y-124402373D01*
X95874947Y-124402376D01*
X95916479Y-124464181D01*
X95966353Y-124538401D01*
X96093188Y-124653812D01*
X96243891Y-124735637D01*
X96409762Y-124779153D01*
X96561639Y-124781538D01*
X96629437Y-124802607D01*
X96675081Y-124856986D01*
X96685660Y-124907522D01*
X96685660Y-124916245D01*
X96665658Y-124984366D01*
X96648755Y-125005340D01*
X96424500Y-125229595D01*
X96362188Y-125263621D01*
X96335405Y-125266500D01*
X95749600Y-125266500D01*
X95746356Y-125266837D01*
X95746348Y-125266837D01*
X95647503Y-125277093D01*
X95577682Y-125264228D01*
X95525900Y-125215657D01*
X95508500Y-125151766D01*
X95508500Y-123856414D01*
X95528502Y-123788293D01*
X95582158Y-123741800D01*
X95646032Y-123730943D01*
X95665526Y-123732735D01*
G37*
%TD.AperFunction*%
%TA.AperFunction,Conductor*%
G36*
X111196121Y-122716002D02*
G01*
X111242614Y-122769658D01*
X111254000Y-122822000D01*
X111254000Y-123043547D01*
X111233998Y-123111668D01*
X111180342Y-123158161D01*
X111157413Y-123166066D01*
X111097049Y-123180558D01*
X111090307Y-123184038D01*
X111090301Y-123184040D01*
X111078820Y-123189966D01*
X111021031Y-123204000D01*
X108872000Y-123204000D01*
X108803879Y-123183998D01*
X108757386Y-123130342D01*
X108746000Y-123078000D01*
X108746000Y-122822000D01*
X108766002Y-122753879D01*
X108819658Y-122707386D01*
X108872000Y-122696000D01*
X111128000Y-122696000D01*
X111196121Y-122716002D01*
G37*
%TD.AperFunction*%
%TA.AperFunction,Conductor*%
G36*
X102033621Y-121766002D02*
G01*
X102080114Y-121819658D01*
X102091500Y-121872000D01*
X102091500Y-122128000D01*
X102071498Y-122196121D01*
X102017842Y-122242614D01*
X101965500Y-122254000D01*
X98994440Y-122254000D01*
X98926319Y-122233998D01*
X98879826Y-122180342D01*
X98876458Y-122172230D01*
X98853767Y-122111703D01*
X98850615Y-122103295D01*
X98829832Y-122075564D01*
X98804985Y-122009057D01*
X98820039Y-121939675D01*
X98829832Y-121924436D01*
X98845229Y-121903891D01*
X98850615Y-121896705D01*
X98859853Y-121872063D01*
X98876458Y-121827770D01*
X98919100Y-121771006D01*
X98985662Y-121746306D01*
X98994440Y-121746000D01*
X101965500Y-121746000D01*
X102033621Y-121766002D01*
G37*
%TD.AperFunction*%
%TA.AperFunction,Conductor*%
G36*
X96829649Y-110170424D02*
G01*
X96880783Y-110205902D01*
X96895973Y-110223408D01*
X96895979Y-110223413D01*
X96899477Y-110227445D01*
X96903608Y-110230832D01*
X97073627Y-110370240D01*
X97073633Y-110370244D01*
X97077755Y-110373624D01*
X97109250Y-110391552D01*
X97158555Y-110442632D01*
X97172417Y-110512262D01*
X97146434Y-110578333D01*
X97117284Y-110605573D01*
X96995681Y-110687441D01*
X96828865Y-110846576D01*
X96691246Y-111031542D01*
X96688830Y-111036293D01*
X96688828Y-111036297D01*
X96653436Y-111105908D01*
X96586760Y-111237051D01*
X96585178Y-111242145D01*
X96585177Y-111242148D01*
X96549139Y-111358209D01*
X96518393Y-111457227D01*
X96488102Y-111685774D01*
X96496751Y-111916158D01*
X96544093Y-112141791D01*
X96628776Y-112356221D01*
X96748377Y-112553317D01*
X96751874Y-112557347D01*
X96885353Y-112711168D01*
X96899477Y-112727445D01*
X96935120Y-112756670D01*
X96975114Y-112815329D01*
X96977046Y-112886299D01*
X96940302Y-112947048D01*
X96921532Y-112961248D01*
X96832187Y-113016537D01*
X96775652Y-113051522D01*
X96650695Y-113176697D01*
X96646855Y-113182927D01*
X96646854Y-113182928D01*
X96569961Y-113307672D01*
X96557885Y-113327262D01*
X96502203Y-113495139D01*
X96491500Y-113599600D01*
X96491500Y-114900400D01*
X96491837Y-114903646D01*
X96491837Y-114903650D01*
X96494620Y-114930467D01*
X96502474Y-115006166D01*
X96558450Y-115173946D01*
X96651522Y-115324348D01*
X96776697Y-115449305D01*
X96782927Y-115453145D01*
X96782928Y-115453146D01*
X96913675Y-115533740D01*
X96961168Y-115586513D01*
X96972592Y-115656584D01*
X96944318Y-115721708D01*
X96885324Y-115761207D01*
X96847559Y-115767000D01*
X96822115Y-115767000D01*
X96806876Y-115771475D01*
X96805671Y-115772865D01*
X96804000Y-115780548D01*
X96804000Y-118214884D01*
X96808475Y-118230123D01*
X96809865Y-118231328D01*
X96817548Y-118232999D01*
X96847095Y-118232999D01*
X96853614Y-118232662D01*
X96949206Y-118222743D01*
X96962600Y-118219851D01*
X97116784Y-118168412D01*
X97129962Y-118162239D01*
X97267807Y-118076937D01*
X97279208Y-118067901D01*
X97393738Y-117953172D01*
X97400794Y-117944238D01*
X97458712Y-117903177D01*
X97529635Y-117899947D01*
X97591046Y-117935574D01*
X97597846Y-117943407D01*
X97601522Y-117949348D01*
X97726697Y-118074305D01*
X97732927Y-118078145D01*
X97732928Y-118078146D01*
X97869352Y-118162239D01*
X97877262Y-118167115D01*
X97945080Y-118189609D01*
X98038611Y-118220632D01*
X98038613Y-118220632D01*
X98045139Y-118222797D01*
X98051975Y-118223497D01*
X98051978Y-118223498D01*
X98095031Y-118227909D01*
X98149600Y-118233500D01*
X98240500Y-118233500D01*
X98308621Y-118253502D01*
X98355114Y-118307158D01*
X98366500Y-118359500D01*
X98366500Y-118918174D01*
X98358482Y-118962404D01*
X98348255Y-118989684D01*
X98341500Y-119051866D01*
X98341500Y-119595823D01*
X98321498Y-119663944D01*
X98291064Y-119696650D01*
X98244275Y-119731716D01*
X98231716Y-119744275D01*
X98196650Y-119791064D01*
X98139791Y-119833580D01*
X98095823Y-119841500D01*
X97551866Y-119841500D01*
X97489684Y-119848255D01*
X97462404Y-119858482D01*
X97418174Y-119866500D01*
X96314595Y-119866500D01*
X96246474Y-119846498D01*
X96225499Y-119829595D01*
X96170404Y-119774499D01*
X96136379Y-119712186D01*
X96133500Y-119685404D01*
X96133500Y-118359000D01*
X96153502Y-118290879D01*
X96207158Y-118244386D01*
X96259500Y-118233000D01*
X96277885Y-118233000D01*
X96293124Y-118228525D01*
X96294329Y-118227135D01*
X96296000Y-118219452D01*
X96296000Y-115785116D01*
X96291525Y-115769877D01*
X96290135Y-115768672D01*
X96282452Y-115767001D01*
X96259500Y-115767001D01*
X96191379Y-115746999D01*
X96144886Y-115693343D01*
X96133500Y-115641001D01*
X96133500Y-110814595D01*
X96153502Y-110746474D01*
X96170405Y-110725499D01*
X96696521Y-110199384D01*
X96758833Y-110165359D01*
X96829649Y-110170424D01*
G37*
%TD.AperFunction*%
%TD*%
M02*
